<mxfile host="app.diagrams.net" agent="Mozilla/5.0 (Macintosh; Intel Mac OS X 10_15_7) AppleWebKit/537.36 (KHTML, like Gecko) Chrome/127.0.0.0 Safari/537.36" version="24.7.8">
  <diagram name="Page-1" id="o3jslVHKb2ZfWiQ6rIfp">
    <mxGraphModel dx="2313" dy="1310" grid="1" gridSize="10" guides="1" tooltips="1" connect="1" arrows="1" fold="1" page="1" pageScale="1" pageWidth="850" pageHeight="1100" math="0" shadow="0">
      <root>
        <mxCell id="0" />
        <mxCell id="1" parent="0" />
        <mxCell id="gDiiwQV4zZhBu72KXJR7-796" value="" style="rounded=0;whiteSpace=wrap;html=1;" vertex="1" parent="1">
          <mxGeometry x="15" y="1170" width="1010" height="520" as="geometry" />
        </mxCell>
        <mxCell id="gDiiwQV4zZhBu72KXJR7-380" value="" style="rounded=0;whiteSpace=wrap;html=1;" vertex="1" parent="1">
          <mxGeometry x="15" y="670" width="1010" height="490" as="geometry" />
        </mxCell>
        <mxCell id="gDiiwQV4zZhBu72KXJR7-374" value="" style="rounded=0;whiteSpace=wrap;html=1;" vertex="1" parent="1">
          <mxGeometry x="10" y="120" width="1010" height="490" as="geometry" />
        </mxCell>
        <mxCell id="gDiiwQV4zZhBu72KXJR7-1" value="" style="rounded=0;whiteSpace=wrap;html=1;fillColor=#2e7956;" vertex="1" parent="1">
          <mxGeometry x="20" y="150" width="990" height="240" as="geometry" />
        </mxCell>
        <mxCell id="gDiiwQV4zZhBu72KXJR7-12" value="" style="rounded=0;whiteSpace=wrap;html=1;fillColor=#e5dc7b;" vertex="1" parent="1">
          <mxGeometry x="50" y="370" width="10" height="20" as="geometry" />
        </mxCell>
        <mxCell id="gDiiwQV4zZhBu72KXJR7-13" value="" style="rounded=0;whiteSpace=wrap;html=1;fillColor=#e5dc7b;" vertex="1" parent="1">
          <mxGeometry x="60" y="370" width="10" height="20" as="geometry" />
        </mxCell>
        <mxCell id="gDiiwQV4zZhBu72KXJR7-14" value="" style="rounded=0;whiteSpace=wrap;html=1;fillColor=#e5dc7b;" vertex="1" parent="1">
          <mxGeometry x="70" y="370" width="10" height="20" as="geometry" />
        </mxCell>
        <mxCell id="gDiiwQV4zZhBu72KXJR7-15" value="" style="rounded=0;whiteSpace=wrap;html=1;fillColor=#e5dc7b;" vertex="1" parent="1">
          <mxGeometry x="80" y="370" width="10" height="20" as="geometry" />
        </mxCell>
        <mxCell id="gDiiwQV4zZhBu72KXJR7-16" value="" style="rounded=0;whiteSpace=wrap;html=1;fillColor=#e5dc7b;" vertex="1" parent="1">
          <mxGeometry x="90" y="370" width="10" height="20" as="geometry" />
        </mxCell>
        <mxCell id="gDiiwQV4zZhBu72KXJR7-17" value="" style="rounded=0;whiteSpace=wrap;html=1;fillColor=#e5dc7b;" vertex="1" parent="1">
          <mxGeometry x="100" y="370" width="10" height="20" as="geometry" />
        </mxCell>
        <mxCell id="gDiiwQV4zZhBu72KXJR7-18" value="" style="rounded=0;whiteSpace=wrap;html=1;fillColor=#e5dc7b;" vertex="1" parent="1">
          <mxGeometry x="110" y="370" width="10" height="20" as="geometry" />
        </mxCell>
        <mxCell id="gDiiwQV4zZhBu72KXJR7-19" value="" style="rounded=0;whiteSpace=wrap;html=1;fillColor=#e5dc7b;" vertex="1" parent="1">
          <mxGeometry x="120" y="370" width="10" height="20" as="geometry" />
        </mxCell>
        <mxCell id="gDiiwQV4zZhBu72KXJR7-20" value="" style="rounded=0;whiteSpace=wrap;html=1;fillColor=#e5dc7b;" vertex="1" parent="1">
          <mxGeometry x="130" y="370" width="10" height="20" as="geometry" />
        </mxCell>
        <mxCell id="gDiiwQV4zZhBu72KXJR7-21" value="" style="rounded=0;whiteSpace=wrap;html=1;fillColor=#e5dc7b;" vertex="1" parent="1">
          <mxGeometry x="140" y="370" width="10" height="20" as="geometry" />
        </mxCell>
        <mxCell id="gDiiwQV4zZhBu72KXJR7-22" value="" style="rounded=0;whiteSpace=wrap;html=1;fillColor=#e5dc7b;" vertex="1" parent="1">
          <mxGeometry x="150" y="370" width="10" height="20" as="geometry" />
        </mxCell>
        <mxCell id="gDiiwQV4zZhBu72KXJR7-23" value="" style="rounded=0;whiteSpace=wrap;html=1;fillColor=#e5dc7b;" vertex="1" parent="1">
          <mxGeometry x="160" y="370" width="10" height="20" as="geometry" />
        </mxCell>
        <mxCell id="gDiiwQV4zZhBu72KXJR7-24" value="" style="rounded=0;whiteSpace=wrap;html=1;fillColor=#e5dc7b;" vertex="1" parent="1">
          <mxGeometry x="170" y="370" width="10" height="20" as="geometry" />
        </mxCell>
        <mxCell id="gDiiwQV4zZhBu72KXJR7-25" value="" style="rounded=0;whiteSpace=wrap;html=1;fillColor=#e5dc7b;" vertex="1" parent="1">
          <mxGeometry x="180" y="370" width="10" height="20" as="geometry" />
        </mxCell>
        <mxCell id="gDiiwQV4zZhBu72KXJR7-26" value="" style="rounded=0;whiteSpace=wrap;html=1;fillColor=#e5dc7b;" vertex="1" parent="1">
          <mxGeometry x="190" y="370" width="10" height="20" as="geometry" />
        </mxCell>
        <mxCell id="gDiiwQV4zZhBu72KXJR7-27" value="" style="rounded=0;whiteSpace=wrap;html=1;fillColor=#e5dc7b;" vertex="1" parent="1">
          <mxGeometry x="200" y="370" width="10" height="20" as="geometry" />
        </mxCell>
        <mxCell id="gDiiwQV4zZhBu72KXJR7-28" value="" style="rounded=0;whiteSpace=wrap;html=1;fillColor=#e5dc7b;" vertex="1" parent="1">
          <mxGeometry x="210" y="370" width="10" height="20" as="geometry" />
        </mxCell>
        <mxCell id="gDiiwQV4zZhBu72KXJR7-29" value="" style="rounded=0;whiteSpace=wrap;html=1;fillColor=#e5dc7b;" vertex="1" parent="1">
          <mxGeometry x="220" y="370" width="10" height="20" as="geometry" />
        </mxCell>
        <mxCell id="gDiiwQV4zZhBu72KXJR7-30" value="" style="rounded=0;whiteSpace=wrap;html=1;fillColor=#e5dc7b;" vertex="1" parent="1">
          <mxGeometry x="230" y="370" width="10" height="20" as="geometry" />
        </mxCell>
        <mxCell id="gDiiwQV4zZhBu72KXJR7-31" value="" style="rounded=0;whiteSpace=wrap;html=1;fillColor=#e5dc7b;" vertex="1" parent="1">
          <mxGeometry x="240" y="370" width="10" height="20" as="geometry" />
        </mxCell>
        <mxCell id="gDiiwQV4zZhBu72KXJR7-32" value="" style="rounded=0;whiteSpace=wrap;html=1;fillColor=#e5dc7b;" vertex="1" parent="1">
          <mxGeometry x="250" y="370" width="10" height="20" as="geometry" />
        </mxCell>
        <mxCell id="gDiiwQV4zZhBu72KXJR7-33" value="" style="rounded=0;whiteSpace=wrap;html=1;fillColor=#e5dc7b;" vertex="1" parent="1">
          <mxGeometry x="260" y="370" width="10" height="20" as="geometry" />
        </mxCell>
        <mxCell id="gDiiwQV4zZhBu72KXJR7-34" value="" style="rounded=0;whiteSpace=wrap;html=1;fillColor=#e5dc7b;" vertex="1" parent="1">
          <mxGeometry x="270" y="370" width="10" height="20" as="geometry" />
        </mxCell>
        <mxCell id="gDiiwQV4zZhBu72KXJR7-35" value="" style="rounded=0;whiteSpace=wrap;html=1;fillColor=#e5dc7b;" vertex="1" parent="1">
          <mxGeometry x="280" y="370" width="10" height="20" as="geometry" />
        </mxCell>
        <mxCell id="gDiiwQV4zZhBu72KXJR7-36" value="" style="rounded=0;whiteSpace=wrap;html=1;fillColor=#e5dc7b;" vertex="1" parent="1">
          <mxGeometry x="290" y="370" width="10" height="20" as="geometry" />
        </mxCell>
        <mxCell id="gDiiwQV4zZhBu72KXJR7-37" value="" style="rounded=0;whiteSpace=wrap;html=1;fillColor=#e5dc7b;" vertex="1" parent="1">
          <mxGeometry x="300" y="370" width="10" height="20" as="geometry" />
        </mxCell>
        <mxCell id="gDiiwQV4zZhBu72KXJR7-38" value="" style="rounded=0;whiteSpace=wrap;html=1;fillColor=#e5dc7b;" vertex="1" parent="1">
          <mxGeometry x="310" y="370" width="10" height="20" as="geometry" />
        </mxCell>
        <mxCell id="gDiiwQV4zZhBu72KXJR7-39" value="" style="rounded=0;whiteSpace=wrap;html=1;fillColor=#e5dc7b;" vertex="1" parent="1">
          <mxGeometry x="320" y="370" width="10" height="20" as="geometry" />
        </mxCell>
        <mxCell id="gDiiwQV4zZhBu72KXJR7-40" value="" style="rounded=0;whiteSpace=wrap;html=1;fillColor=#e5dc7b;" vertex="1" parent="1">
          <mxGeometry x="330" y="370" width="10" height="20" as="geometry" />
        </mxCell>
        <mxCell id="gDiiwQV4zZhBu72KXJR7-41" value="" style="rounded=0;whiteSpace=wrap;html=1;fillColor=#e5dc7b;" vertex="1" parent="1">
          <mxGeometry x="340" y="370" width="10" height="20" as="geometry" />
        </mxCell>
        <mxCell id="gDiiwQV4zZhBu72KXJR7-42" value="" style="rounded=0;whiteSpace=wrap;html=1;fillColor=#e5dc7b;" vertex="1" parent="1">
          <mxGeometry x="350" y="370" width="10" height="20" as="geometry" />
        </mxCell>
        <mxCell id="gDiiwQV4zZhBu72KXJR7-43" value="" style="rounded=0;whiteSpace=wrap;html=1;fillColor=#e5dc7b;" vertex="1" parent="1">
          <mxGeometry x="360" y="370" width="10" height="20" as="geometry" />
        </mxCell>
        <mxCell id="gDiiwQV4zZhBu72KXJR7-44" value="" style="rounded=0;whiteSpace=wrap;html=1;fillColor=#e5dc7b;" vertex="1" parent="1">
          <mxGeometry x="370" y="370" width="10" height="20" as="geometry" />
        </mxCell>
        <mxCell id="gDiiwQV4zZhBu72KXJR7-45" value="" style="rounded=0;whiteSpace=wrap;html=1;fillColor=#e5dc7b;" vertex="1" parent="1">
          <mxGeometry x="380" y="370" width="10" height="20" as="geometry" />
        </mxCell>
        <mxCell id="gDiiwQV4zZhBu72KXJR7-46" value="" style="rounded=0;whiteSpace=wrap;html=1;fillColor=#e5dc7b;" vertex="1" parent="1">
          <mxGeometry x="390" y="370" width="10" height="20" as="geometry" />
        </mxCell>
        <mxCell id="gDiiwQV4zZhBu72KXJR7-47" value="" style="rounded=0;whiteSpace=wrap;html=1;fillColor=#e5dc7b;" vertex="1" parent="1">
          <mxGeometry x="400" y="370" width="10" height="20" as="geometry" />
        </mxCell>
        <mxCell id="gDiiwQV4zZhBu72KXJR7-48" value="" style="rounded=0;whiteSpace=wrap;html=1;fillColor=#e5dc7b;" vertex="1" parent="1">
          <mxGeometry x="410" y="370" width="10" height="20" as="geometry" />
        </mxCell>
        <mxCell id="gDiiwQV4zZhBu72KXJR7-49" value="" style="rounded=0;whiteSpace=wrap;html=1;fillColor=#e5dc7b;" vertex="1" parent="1">
          <mxGeometry x="420" y="370" width="10" height="20" as="geometry" />
        </mxCell>
        <mxCell id="gDiiwQV4zZhBu72KXJR7-50" value="" style="rounded=0;whiteSpace=wrap;html=1;fillColor=#e5dc7b;" vertex="1" parent="1">
          <mxGeometry x="600" y="370" width="10" height="20" as="geometry" />
        </mxCell>
        <mxCell id="gDiiwQV4zZhBu72KXJR7-51" value="" style="rounded=0;whiteSpace=wrap;html=1;fillColor=#e5dc7b;" vertex="1" parent="1">
          <mxGeometry x="610" y="370" width="10" height="20" as="geometry" />
        </mxCell>
        <mxCell id="gDiiwQV4zZhBu72KXJR7-52" value="" style="rounded=0;whiteSpace=wrap;html=1;fillColor=#e5dc7b;" vertex="1" parent="1">
          <mxGeometry x="620" y="370" width="10" height="20" as="geometry" />
        </mxCell>
        <mxCell id="gDiiwQV4zZhBu72KXJR7-53" value="" style="rounded=0;whiteSpace=wrap;html=1;fillColor=#e5dc7b;" vertex="1" parent="1">
          <mxGeometry x="630" y="370" width="10" height="20" as="geometry" />
        </mxCell>
        <mxCell id="gDiiwQV4zZhBu72KXJR7-54" value="" style="rounded=0;whiteSpace=wrap;html=1;fillColor=#e5dc7b;" vertex="1" parent="1">
          <mxGeometry x="640" y="370" width="10" height="20" as="geometry" />
        </mxCell>
        <mxCell id="gDiiwQV4zZhBu72KXJR7-55" value="" style="rounded=0;whiteSpace=wrap;html=1;fillColor=#e5dc7b;" vertex="1" parent="1">
          <mxGeometry x="650" y="370" width="10" height="20" as="geometry" />
        </mxCell>
        <mxCell id="gDiiwQV4zZhBu72KXJR7-56" value="" style="rounded=0;whiteSpace=wrap;html=1;fillColor=#e5dc7b;" vertex="1" parent="1">
          <mxGeometry x="660" y="370" width="10" height="20" as="geometry" />
        </mxCell>
        <mxCell id="gDiiwQV4zZhBu72KXJR7-57" value="" style="rounded=0;whiteSpace=wrap;html=1;fillColor=#e5dc7b;" vertex="1" parent="1">
          <mxGeometry x="670" y="370" width="10" height="20" as="geometry" />
        </mxCell>
        <mxCell id="gDiiwQV4zZhBu72KXJR7-58" value="" style="rounded=0;whiteSpace=wrap;html=1;fillColor=#e5dc7b;" vertex="1" parent="1">
          <mxGeometry x="680" y="370" width="10" height="20" as="geometry" />
        </mxCell>
        <mxCell id="gDiiwQV4zZhBu72KXJR7-59" value="" style="rounded=0;whiteSpace=wrap;html=1;fillColor=#e5dc7b;" vertex="1" parent="1">
          <mxGeometry x="690" y="370" width="10" height="20" as="geometry" />
        </mxCell>
        <mxCell id="gDiiwQV4zZhBu72KXJR7-60" value="" style="rounded=0;whiteSpace=wrap;html=1;fillColor=#e5dc7b;" vertex="1" parent="1">
          <mxGeometry x="700" y="370" width="10" height="20" as="geometry" />
        </mxCell>
        <mxCell id="gDiiwQV4zZhBu72KXJR7-61" value="" style="rounded=0;whiteSpace=wrap;html=1;fillColor=#e5dc7b;" vertex="1" parent="1">
          <mxGeometry x="710" y="370" width="10" height="20" as="geometry" />
        </mxCell>
        <mxCell id="gDiiwQV4zZhBu72KXJR7-62" value="" style="rounded=0;whiteSpace=wrap;html=1;fillColor=#e5dc7b;" vertex="1" parent="1">
          <mxGeometry x="720" y="370" width="10" height="20" as="geometry" />
        </mxCell>
        <mxCell id="gDiiwQV4zZhBu72KXJR7-63" value="" style="rounded=0;whiteSpace=wrap;html=1;fillColor=#e5dc7b;" vertex="1" parent="1">
          <mxGeometry x="730" y="370" width="10" height="20" as="geometry" />
        </mxCell>
        <mxCell id="gDiiwQV4zZhBu72KXJR7-64" value="" style="rounded=0;whiteSpace=wrap;html=1;fillColor=#e5dc7b;" vertex="1" parent="1">
          <mxGeometry x="740" y="370" width="10" height="20" as="geometry" />
        </mxCell>
        <mxCell id="gDiiwQV4zZhBu72KXJR7-65" value="" style="rounded=0;whiteSpace=wrap;html=1;fillColor=#e5dc7b;" vertex="1" parent="1">
          <mxGeometry x="750" y="370" width="10" height="20" as="geometry" />
        </mxCell>
        <mxCell id="gDiiwQV4zZhBu72KXJR7-66" value="" style="rounded=0;whiteSpace=wrap;html=1;fillColor=#e5dc7b;" vertex="1" parent="1">
          <mxGeometry x="760" y="370" width="10" height="20" as="geometry" />
        </mxCell>
        <mxCell id="gDiiwQV4zZhBu72KXJR7-67" value="" style="rounded=0;whiteSpace=wrap;html=1;fillColor=#e5dc7b;" vertex="1" parent="1">
          <mxGeometry x="770" y="370" width="10" height="20" as="geometry" />
        </mxCell>
        <mxCell id="gDiiwQV4zZhBu72KXJR7-68" value="" style="rounded=0;whiteSpace=wrap;html=1;fillColor=#e5dc7b;" vertex="1" parent="1">
          <mxGeometry x="780" y="370" width="10" height="20" as="geometry" />
        </mxCell>
        <mxCell id="gDiiwQV4zZhBu72KXJR7-69" value="" style="rounded=0;whiteSpace=wrap;html=1;fillColor=#e5dc7b;" vertex="1" parent="1">
          <mxGeometry x="790" y="370" width="10" height="20" as="geometry" />
        </mxCell>
        <mxCell id="gDiiwQV4zZhBu72KXJR7-70" value="" style="rounded=0;whiteSpace=wrap;html=1;fillColor=#e5dc7b;" vertex="1" parent="1">
          <mxGeometry x="800" y="370" width="10" height="20" as="geometry" />
        </mxCell>
        <mxCell id="gDiiwQV4zZhBu72KXJR7-71" value="" style="rounded=0;whiteSpace=wrap;html=1;fillColor=#e5dc7b;" vertex="1" parent="1">
          <mxGeometry x="810" y="370" width="10" height="20" as="geometry" />
        </mxCell>
        <mxCell id="gDiiwQV4zZhBu72KXJR7-72" value="" style="rounded=0;whiteSpace=wrap;html=1;fillColor=#e5dc7b;" vertex="1" parent="1">
          <mxGeometry x="820" y="370" width="10" height="20" as="geometry" />
        </mxCell>
        <mxCell id="gDiiwQV4zZhBu72KXJR7-73" value="" style="rounded=0;whiteSpace=wrap;html=1;fillColor=#e5dc7b;" vertex="1" parent="1">
          <mxGeometry x="830" y="370" width="10" height="20" as="geometry" />
        </mxCell>
        <mxCell id="gDiiwQV4zZhBu72KXJR7-74" value="" style="rounded=0;whiteSpace=wrap;html=1;fillColor=#e5dc7b;" vertex="1" parent="1">
          <mxGeometry x="840" y="370" width="10" height="20" as="geometry" />
        </mxCell>
        <mxCell id="gDiiwQV4zZhBu72KXJR7-75" value="" style="rounded=0;whiteSpace=wrap;html=1;fillColor=#e5dc7b;" vertex="1" parent="1">
          <mxGeometry x="850" y="370" width="10" height="20" as="geometry" />
        </mxCell>
        <mxCell id="gDiiwQV4zZhBu72KXJR7-76" value="" style="rounded=0;whiteSpace=wrap;html=1;fillColor=#e5dc7b;" vertex="1" parent="1">
          <mxGeometry x="860" y="370" width="10" height="20" as="geometry" />
        </mxCell>
        <mxCell id="gDiiwQV4zZhBu72KXJR7-77" value="" style="rounded=0;whiteSpace=wrap;html=1;fillColor=#e5dc7b;" vertex="1" parent="1">
          <mxGeometry x="870" y="370" width="10" height="20" as="geometry" />
        </mxCell>
        <mxCell id="gDiiwQV4zZhBu72KXJR7-78" value="" style="rounded=0;whiteSpace=wrap;html=1;fillColor=#e5dc7b;" vertex="1" parent="1">
          <mxGeometry x="880" y="370" width="10" height="20" as="geometry" />
        </mxCell>
        <mxCell id="gDiiwQV4zZhBu72KXJR7-79" value="" style="rounded=0;whiteSpace=wrap;html=1;fillColor=#e5dc7b;" vertex="1" parent="1">
          <mxGeometry x="890" y="370" width="10" height="20" as="geometry" />
        </mxCell>
        <mxCell id="gDiiwQV4zZhBu72KXJR7-80" value="" style="rounded=0;whiteSpace=wrap;html=1;fillColor=#e5dc7b;" vertex="1" parent="1">
          <mxGeometry x="900" y="370" width="10" height="20" as="geometry" />
        </mxCell>
        <mxCell id="gDiiwQV4zZhBu72KXJR7-81" value="" style="rounded=0;whiteSpace=wrap;html=1;fillColor=#e5dc7b;" vertex="1" parent="1">
          <mxGeometry x="910" y="370" width="10" height="20" as="geometry" />
        </mxCell>
        <mxCell id="gDiiwQV4zZhBu72KXJR7-82" value="" style="rounded=0;whiteSpace=wrap;html=1;fillColor=#e5dc7b;" vertex="1" parent="1">
          <mxGeometry x="920" y="370" width="10" height="20" as="geometry" />
        </mxCell>
        <mxCell id="gDiiwQV4zZhBu72KXJR7-83" value="" style="rounded=0;whiteSpace=wrap;html=1;fillColor=#e5dc7b;" vertex="1" parent="1">
          <mxGeometry x="930" y="370" width="10" height="20" as="geometry" />
        </mxCell>
        <mxCell id="gDiiwQV4zZhBu72KXJR7-84" value="" style="rounded=0;whiteSpace=wrap;html=1;fillColor=#e5dc7b;" vertex="1" parent="1">
          <mxGeometry x="940" y="370" width="10" height="20" as="geometry" />
        </mxCell>
        <mxCell id="gDiiwQV4zZhBu72KXJR7-85" value="" style="rounded=0;whiteSpace=wrap;html=1;fillColor=#e5dc7b;" vertex="1" parent="1">
          <mxGeometry x="950" y="370" width="10" height="20" as="geometry" />
        </mxCell>
        <mxCell id="gDiiwQV4zZhBu72KXJR7-86" value="" style="rounded=0;whiteSpace=wrap;html=1;fillColor=#e5dc7b;" vertex="1" parent="1">
          <mxGeometry x="960" y="370" width="10" height="20" as="geometry" />
        </mxCell>
        <mxCell id="gDiiwQV4zZhBu72KXJR7-87" value="" style="rounded=0;whiteSpace=wrap;html=1;fillColor=#e5dc7b;" vertex="1" parent="1">
          <mxGeometry x="970" y="370" width="10" height="20" as="geometry" />
        </mxCell>
        <mxCell id="gDiiwQV4zZhBu72KXJR7-88" value="" style="rounded=0;whiteSpace=wrap;html=1;fillColor=#e5dc7b;" vertex="1" parent="1">
          <mxGeometry x="980" y="370" width="10" height="20" as="geometry" />
        </mxCell>
        <mxCell id="gDiiwQV4zZhBu72KXJR7-89" value="" style="shape=or;whiteSpace=wrap;html=1;direction=north;" vertex="1" parent="1">
          <mxGeometry x="530" y="360" width="20" height="30" as="geometry" />
        </mxCell>
        <mxCell id="gDiiwQV4zZhBu72KXJR7-101" value="" style="rounded=0;whiteSpace=wrap;html=1;fillColor=#e5dc7b;" vertex="1" parent="1">
          <mxGeometry x="570" y="370" width="10" height="20" as="geometry" />
        </mxCell>
        <mxCell id="gDiiwQV4zZhBu72KXJR7-102" value="" style="rounded=0;whiteSpace=wrap;html=1;fillColor=#e5dc7b;" vertex="1" parent="1">
          <mxGeometry x="580" y="370" width="10" height="20" as="geometry" />
        </mxCell>
        <mxCell id="gDiiwQV4zZhBu72KXJR7-103" value="" style="rounded=0;whiteSpace=wrap;html=1;fillColor=#e5dc7b;" vertex="1" parent="1">
          <mxGeometry x="590" y="370" width="10" height="20" as="geometry" />
        </mxCell>
        <mxCell id="gDiiwQV4zZhBu72KXJR7-104" value="" style="rounded=0;whiteSpace=wrap;html=1;fillColor=#e5dc7b;" vertex="1" parent="1">
          <mxGeometry x="430" y="370" width="10" height="20" as="geometry" />
        </mxCell>
        <mxCell id="gDiiwQV4zZhBu72KXJR7-105" value="" style="rounded=0;whiteSpace=wrap;html=1;fillColor=#e5dc7b;" vertex="1" parent="1">
          <mxGeometry x="440" y="370" width="10" height="20" as="geometry" />
        </mxCell>
        <mxCell id="gDiiwQV4zZhBu72KXJR7-106" value="&lt;font style=&quot;font-size: 14px;&quot; color=&quot;#ababab&quot;&gt;&lt;b&gt;RCD&lt;/b&gt;&lt;/font&gt;" style="rounded=0;whiteSpace=wrap;html=1;strokeColor=#454744;fillColor=#464646;direction=south;" vertex="1" parent="1">
          <mxGeometry x="480" y="230" width="80" height="60" as="geometry" />
        </mxCell>
        <mxCell id="gDiiwQV4zZhBu72KXJR7-108" value="" style="rounded=0;whiteSpace=wrap;html=1;fillColor=#e5dc7b;" vertex="1" parent="1">
          <mxGeometry x="450" y="370" width="10" height="20" as="geometry" />
        </mxCell>
        <mxCell id="gDiiwQV4zZhBu72KXJR7-109" value="" style="rounded=0;whiteSpace=wrap;html=1;fillColor=#e5dc7b;" vertex="1" parent="1">
          <mxGeometry x="460" y="370" width="10" height="20" as="geometry" />
        </mxCell>
        <mxCell id="gDiiwQV4zZhBu72KXJR7-110" value="" style="rounded=0;whiteSpace=wrap;html=1;fillColor=#e5dc7b;" vertex="1" parent="1">
          <mxGeometry x="470" y="370" width="10" height="20" as="geometry" />
        </mxCell>
        <mxCell id="gDiiwQV4zZhBu72KXJR7-111" value="" style="rounded=0;whiteSpace=wrap;html=1;fillColor=#e5dc7b;" vertex="1" parent="1">
          <mxGeometry x="480" y="370" width="10" height="20" as="geometry" />
        </mxCell>
        <mxCell id="gDiiwQV4zZhBu72KXJR7-112" value="" style="rounded=0;whiteSpace=wrap;html=1;fillColor=#e5dc7b;" vertex="1" parent="1">
          <mxGeometry x="490" y="370" width="10" height="20" as="geometry" />
        </mxCell>
        <mxCell id="gDiiwQV4zZhBu72KXJR7-113" value="" style="rounded=0;whiteSpace=wrap;html=1;fillColor=#e5dc7b;" vertex="1" parent="1">
          <mxGeometry x="500" y="370" width="10" height="20" as="geometry" />
        </mxCell>
        <mxCell id="gDiiwQV4zZhBu72KXJR7-114" value="" style="rounded=0;whiteSpace=wrap;html=1;fillColor=#e5dc7b;" vertex="1" parent="1">
          <mxGeometry x="510" y="370" width="10" height="20" as="geometry" />
        </mxCell>
        <mxCell id="gDiiwQV4zZhBu72KXJR7-115" value="&lt;font style=&quot;font-size: 14px;&quot; color=&quot;#ababab&quot;&gt;&lt;b&gt;MEMORY CONTROLLER&lt;/b&gt;&lt;/font&gt;" style="rounded=0;whiteSpace=wrap;html=1;strokeColor=#454744;fillColor=#464646;direction=south;" vertex="1" parent="1">
          <mxGeometry x="455" y="500" width="130" height="100" as="geometry" />
        </mxCell>
        <mxCell id="gDiiwQV4zZhBu72KXJR7-116" value="" style="endArrow=classic;html=1;rounded=0;exitX=0;exitY=0.5;exitDx=0;exitDy=0;strokeWidth=4;fillColor=#ffe6cc;strokeColor=#d79b00;" edge="1" parent="1">
          <mxGeometry width="50" height="50" relative="1" as="geometry">
            <mxPoint x="494.5" y="500" as="sourcePoint" />
            <mxPoint x="494.5" y="290" as="targetPoint" />
          </mxGeometry>
        </mxCell>
        <mxCell id="gDiiwQV4zZhBu72KXJR7-117" value="" style="endArrow=classic;html=1;rounded=0;exitX=0;exitY=0.5;exitDx=0;exitDy=0;strokeWidth=4;fillColor=#f8cecc;strokeColor=#b85450;" edge="1" parent="1">
          <mxGeometry width="50" height="50" relative="1" as="geometry">
            <mxPoint x="519.5" y="500" as="sourcePoint" />
            <mxPoint x="519.5" y="290" as="targetPoint" />
          </mxGeometry>
        </mxCell>
        <mxCell id="gDiiwQV4zZhBu72KXJR7-118" value="" style="endArrow=classic;html=1;rounded=0;exitX=0;exitY=0.5;exitDx=0;exitDy=0;strokeWidth=4;fillColor=#dae8fc;strokeColor=#6c8ebf;" edge="1" parent="1">
          <mxGeometry width="50" height="50" relative="1" as="geometry">
            <mxPoint x="549" y="500" as="sourcePoint" />
            <mxPoint x="549" y="290" as="targetPoint" />
          </mxGeometry>
        </mxCell>
        <mxCell id="gDiiwQV4zZhBu72KXJR7-120" value="" style="endArrow=classic;html=1;rounded=0;exitX=1;exitY=0.75;exitDx=0;exitDy=0;strokeWidth=2;fillColor=#ffe6cc;strokeColor=#d79b00;" edge="1" parent="1" source="gDiiwQV4zZhBu72KXJR7-6">
          <mxGeometry width="50" height="50" relative="1" as="geometry">
            <mxPoint x="120" y="540" as="sourcePoint" />
            <mxPoint x="120" y="330" as="targetPoint" />
          </mxGeometry>
        </mxCell>
        <mxCell id="gDiiwQV4zZhBu72KXJR7-121" value="" style="endArrow=classic;html=1;rounded=0;exitX=1;exitY=0.75;exitDx=0;exitDy=0;strokeWidth=2;fillColor=#f8cecc;strokeColor=#b85450;" edge="1" parent="1">
          <mxGeometry width="50" height="50" relative="1" as="geometry">
            <mxPoint x="440" y="309.5" as="sourcePoint" />
            <mxPoint x="120" y="309.5" as="targetPoint" />
          </mxGeometry>
        </mxCell>
        <mxCell id="gDiiwQV4zZhBu72KXJR7-122" value="" style="endArrow=classic;html=1;rounded=0;exitX=1;exitY=0.75;exitDx=0;exitDy=0;strokeWidth=2;fillColor=#dae8fc;strokeColor=#6c8ebf;" edge="1" parent="1">
          <mxGeometry width="50" height="50" relative="1" as="geometry">
            <mxPoint x="440" y="290" as="sourcePoint" />
            <mxPoint x="120" y="290" as="targetPoint" />
          </mxGeometry>
        </mxCell>
        <mxCell id="gDiiwQV4zZhBu72KXJR7-123" value="" style="endArrow=classic;html=1;rounded=0;exitX=1;exitY=0.75;exitDx=0;exitDy=0;strokeWidth=2;fillColor=#ffe6cc;strokeColor=#d79b00;" edge="1" parent="1">
          <mxGeometry width="50" height="50" relative="1" as="geometry">
            <mxPoint x="440" y="237.5" as="sourcePoint" />
            <mxPoint x="120" y="237.5" as="targetPoint" />
          </mxGeometry>
        </mxCell>
        <mxCell id="gDiiwQV4zZhBu72KXJR7-124" value="" style="endArrow=classic;html=1;rounded=0;exitX=1;exitY=0.75;exitDx=0;exitDy=0;strokeWidth=2;fillColor=#f8cecc;strokeColor=#b85450;" edge="1" parent="1">
          <mxGeometry width="50" height="50" relative="1" as="geometry">
            <mxPoint x="440" y="217" as="sourcePoint" />
            <mxPoint x="120" y="217" as="targetPoint" />
          </mxGeometry>
        </mxCell>
        <mxCell id="gDiiwQV4zZhBu72KXJR7-125" value="" style="endArrow=classic;html=1;rounded=0;exitX=1;exitY=0.75;exitDx=0;exitDy=0;strokeWidth=2;fillColor=#dae8fc;strokeColor=#6c8ebf;" edge="1" parent="1">
          <mxGeometry width="50" height="50" relative="1" as="geometry">
            <mxPoint x="440" y="197.5" as="sourcePoint" />
            <mxPoint x="120" y="197.5" as="targetPoint" />
          </mxGeometry>
        </mxCell>
        <mxCell id="gDiiwQV4zZhBu72KXJR7-126" value="" style="endArrow=none;html=1;rounded=0;exitX=1;exitY=0.75;exitDx=0;exitDy=0;strokeWidth=2;fillColor=#ffe6cc;strokeColor=#d79b00;startArrow=classic;startFill=1;endFill=0;" edge="1" parent="1">
          <mxGeometry width="50" height="50" relative="1" as="geometry">
            <mxPoint x="920" y="325.75" as="sourcePoint" />
            <mxPoint x="600" y="325.75" as="targetPoint" />
          </mxGeometry>
        </mxCell>
        <mxCell id="gDiiwQV4zZhBu72KXJR7-127" value="" style="endArrow=none;html=1;rounded=0;exitX=1;exitY=0.75;exitDx=0;exitDy=0;strokeWidth=2;fillColor=#f8cecc;strokeColor=#b85450;startArrow=classic;startFill=1;endFill=0;" edge="1" parent="1">
          <mxGeometry width="50" height="50" relative="1" as="geometry">
            <mxPoint x="920" y="305.25" as="sourcePoint" />
            <mxPoint x="600" y="305.25" as="targetPoint" />
          </mxGeometry>
        </mxCell>
        <mxCell id="gDiiwQV4zZhBu72KXJR7-128" value="" style="endArrow=none;html=1;rounded=0;exitX=1;exitY=0.75;exitDx=0;exitDy=0;strokeWidth=2;fillColor=#dae8fc;strokeColor=#6c8ebf;startArrow=classic;startFill=1;endFill=0;" edge="1" parent="1">
          <mxGeometry width="50" height="50" relative="1" as="geometry">
            <mxPoint x="920" y="285.75" as="sourcePoint" />
            <mxPoint x="600" y="285.75" as="targetPoint" />
          </mxGeometry>
        </mxCell>
        <mxCell id="gDiiwQV4zZhBu72KXJR7-129" value="" style="endArrow=none;html=1;rounded=0;exitX=1;exitY=0.75;exitDx=0;exitDy=0;strokeWidth=2;fillColor=#ffe6cc;strokeColor=#d79b00;startArrow=classic;startFill=1;endFill=0;" edge="1" parent="1">
          <mxGeometry width="50" height="50" relative="1" as="geometry">
            <mxPoint x="920" y="233.25" as="sourcePoint" />
            <mxPoint x="600" y="233.25" as="targetPoint" />
          </mxGeometry>
        </mxCell>
        <mxCell id="gDiiwQV4zZhBu72KXJR7-130" value="" style="endArrow=none;html=1;rounded=0;exitX=1;exitY=0.75;exitDx=0;exitDy=0;strokeWidth=2;fillColor=#f8cecc;strokeColor=#b85450;startArrow=classic;startFill=1;endFill=0;" edge="1" parent="1">
          <mxGeometry width="50" height="50" relative="1" as="geometry">
            <mxPoint x="920" y="212.75" as="sourcePoint" />
            <mxPoint x="600" y="212.75" as="targetPoint" />
          </mxGeometry>
        </mxCell>
        <mxCell id="gDiiwQV4zZhBu72KXJR7-131" value="" style="endArrow=none;html=1;rounded=0;exitX=1;exitY=0.75;exitDx=0;exitDy=0;strokeWidth=2;fillColor=#dae8fc;strokeColor=#6c8ebf;startArrow=classic;startFill=1;endFill=0;" edge="1" parent="1">
          <mxGeometry width="50" height="50" relative="1" as="geometry">
            <mxPoint x="920" y="193.25" as="sourcePoint" />
            <mxPoint x="600" y="193.25" as="targetPoint" />
          </mxGeometry>
        </mxCell>
        <mxCell id="gDiiwQV4zZhBu72KXJR7-2" value="&lt;font style=&quot;font-size: 14px;&quot; color=&quot;#ababab&quot;&gt;DQ&lt;/font&gt;&lt;div style=&quot;font-size: 14px;&quot;&gt;&lt;font color=&quot;#ababab&quot;&gt;x4&lt;/font&gt;&lt;/div&gt;" style="rounded=0;whiteSpace=wrap;html=1;strokeColor=#454744;fillColor=#464646;" vertex="1" parent="1">
          <mxGeometry x="60" y="270" width="60" height="80" as="geometry" />
        </mxCell>
        <mxCell id="gDiiwQV4zZhBu72KXJR7-3" value="&lt;font style=&quot;font-size: 14px;&quot; color=&quot;#ababab&quot;&gt;DQ&lt;/font&gt;&lt;div style=&quot;font-size: 14px;&quot;&gt;&lt;font color=&quot;#ababab&quot;&gt;x4&lt;/font&gt;&lt;/div&gt;" style="rounded=0;whiteSpace=wrap;html=1;strokeColor=#454744;fillColor=#464646;" vertex="1" parent="1">
          <mxGeometry x="140" y="270" width="60" height="80" as="geometry" />
        </mxCell>
        <mxCell id="gDiiwQV4zZhBu72KXJR7-4" value="&lt;font style=&quot;font-size: 14px;&quot; color=&quot;#ababab&quot;&gt;DQ&lt;/font&gt;&lt;div style=&quot;font-size: 14px;&quot;&gt;&lt;font color=&quot;#ababab&quot;&gt;x4&lt;/font&gt;&lt;/div&gt;" style="rounded=0;whiteSpace=wrap;html=1;strokeColor=#454744;fillColor=#464646;" vertex="1" parent="1">
          <mxGeometry x="220" y="270" width="60" height="80" as="geometry" />
        </mxCell>
        <mxCell id="gDiiwQV4zZhBu72KXJR7-5" value="&lt;font style=&quot;font-size: 14px;&quot; color=&quot;#ababab&quot;&gt;DQ&lt;/font&gt;&lt;div style=&quot;font-size: 14px;&quot;&gt;&lt;font color=&quot;#ababab&quot;&gt;x4&lt;/font&gt;&lt;/div&gt;" style="rounded=0;whiteSpace=wrap;html=1;strokeColor=#454744;fillColor=#464646;" vertex="1" parent="1">
          <mxGeometry x="300" y="270" width="60" height="80" as="geometry" />
        </mxCell>
        <mxCell id="gDiiwQV4zZhBu72KXJR7-6" value="&lt;font style=&quot;font-size: 14px;&quot; color=&quot;#ababab&quot;&gt;ECC&lt;/font&gt;&lt;div style=&quot;font-size: 14px;&quot;&gt;&lt;font color=&quot;#ababab&quot;&gt;x4&lt;/font&gt;&lt;/div&gt;" style="rounded=0;whiteSpace=wrap;html=1;strokeColor=#454744;fillColor=#464646;" vertex="1" parent="1">
          <mxGeometry x="380" y="270" width="60" height="80" as="geometry" />
        </mxCell>
        <mxCell id="gDiiwQV4zZhBu72KXJR7-7" value="&lt;font style=&quot;font-size: 14px;&quot; color=&quot;#ababab&quot;&gt;ECC&lt;/font&gt;&lt;div style=&quot;font-size: 14px;&quot;&gt;&lt;font color=&quot;#ababab&quot;&gt;x4&lt;/font&gt;&lt;/div&gt;" style="rounded=0;whiteSpace=wrap;html=1;strokeColor=#454744;fillColor=#464646;" vertex="1" parent="1">
          <mxGeometry x="600" y="270" width="60" height="80" as="geometry" />
        </mxCell>
        <mxCell id="gDiiwQV4zZhBu72KXJR7-8" value="&lt;font style=&quot;font-size: 14px;&quot; color=&quot;#ababab&quot;&gt;DQ&lt;/font&gt;&lt;div style=&quot;font-size: 14px;&quot;&gt;&lt;font color=&quot;#ababab&quot;&gt;x4&lt;/font&gt;&lt;/div&gt;" style="rounded=0;whiteSpace=wrap;html=1;strokeColor=#454744;fillColor=#464646;" vertex="1" parent="1">
          <mxGeometry x="680" y="270" width="60" height="80" as="geometry" />
        </mxCell>
        <mxCell id="gDiiwQV4zZhBu72KXJR7-9" value="&lt;font style=&quot;font-size: 14px;&quot; color=&quot;#ababab&quot;&gt;DQ&lt;/font&gt;&lt;div style=&quot;font-size: 14px;&quot;&gt;&lt;font color=&quot;#ababab&quot;&gt;x4&lt;/font&gt;&lt;/div&gt;" style="rounded=0;whiteSpace=wrap;html=1;strokeColor=#454744;fillColor=#464646;" vertex="1" parent="1">
          <mxGeometry x="760" y="270" width="60" height="80" as="geometry" />
        </mxCell>
        <mxCell id="gDiiwQV4zZhBu72KXJR7-10" value="&lt;font style=&quot;font-size: 14px;&quot; color=&quot;#ababab&quot;&gt;DQ&lt;/font&gt;&lt;div style=&quot;font-size: 14px;&quot;&gt;&lt;font color=&quot;#ababab&quot;&gt;x4&lt;/font&gt;&lt;/div&gt;" style="rounded=0;whiteSpace=wrap;html=1;strokeColor=#454744;fillColor=#464646;" vertex="1" parent="1">
          <mxGeometry x="840" y="270" width="60" height="80" as="geometry" />
        </mxCell>
        <mxCell id="gDiiwQV4zZhBu72KXJR7-11" value="&lt;font style=&quot;font-size: 14px;&quot; color=&quot;#ababab&quot;&gt;DQ&lt;/font&gt;&lt;div style=&quot;font-size: 14px;&quot;&gt;&lt;font color=&quot;#ababab&quot;&gt;x4&lt;/font&gt;&lt;/div&gt;" style="rounded=0;whiteSpace=wrap;html=1;strokeColor=#454744;fillColor=#464646;" vertex="1" parent="1">
          <mxGeometry x="920" y="270" width="60" height="80" as="geometry" />
        </mxCell>
        <mxCell id="gDiiwQV4zZhBu72KXJR7-90" value="&lt;font color=&quot;#ababab&quot; style=&quot;font-size: 14px;&quot;&gt;DQ&lt;/font&gt;&lt;div style=&quot;font-size: 14px;&quot;&gt;&lt;font color=&quot;#ababab&quot; style=&quot;font-size: 14px;&quot;&gt;x4&lt;/font&gt;&lt;/div&gt;" style="rounded=0;whiteSpace=wrap;html=1;strokeColor=#454744;fillColor=#464646;" vertex="1" parent="1">
          <mxGeometry x="60" y="178" width="60" height="80" as="geometry" />
        </mxCell>
        <mxCell id="gDiiwQV4zZhBu72KXJR7-91" value="&lt;font style=&quot;font-size: 14px;&quot; color=&quot;#ababab&quot;&gt;DQ&lt;/font&gt;&lt;div style=&quot;font-size: 14px;&quot;&gt;&lt;font color=&quot;#ababab&quot;&gt;x4&lt;/font&gt;&lt;/div&gt;" style="rounded=0;whiteSpace=wrap;html=1;strokeColor=#454744;fillColor=#464646;" vertex="1" parent="1">
          <mxGeometry x="140" y="178" width="60" height="80" as="geometry" />
        </mxCell>
        <mxCell id="gDiiwQV4zZhBu72KXJR7-92" value="&lt;font style=&quot;font-size: 14px;&quot; color=&quot;#ababab&quot;&gt;DQ&lt;/font&gt;&lt;div style=&quot;font-size: 14px;&quot;&gt;&lt;font color=&quot;#ababab&quot;&gt;x4&lt;/font&gt;&lt;/div&gt;" style="rounded=0;whiteSpace=wrap;html=1;strokeColor=#454744;fillColor=#464646;" vertex="1" parent="1">
          <mxGeometry x="220" y="178" width="60" height="80" as="geometry" />
        </mxCell>
        <mxCell id="gDiiwQV4zZhBu72KXJR7-93" value="&lt;font style=&quot;font-size: 14px;&quot; color=&quot;#ababab&quot;&gt;DQ&lt;/font&gt;&lt;div style=&quot;font-size: 14px;&quot;&gt;&lt;font color=&quot;#ababab&quot;&gt;x4&lt;/font&gt;&lt;/div&gt;" style="rounded=0;whiteSpace=wrap;html=1;strokeColor=#454744;fillColor=#464646;" vertex="1" parent="1">
          <mxGeometry x="300" y="178" width="60" height="80" as="geometry" />
        </mxCell>
        <mxCell id="gDiiwQV4zZhBu72KXJR7-94" value="&lt;font style=&quot;font-size: 14px;&quot; color=&quot;#ababab&quot;&gt;ECC&lt;/font&gt;&lt;div style=&quot;font-size: 14px;&quot;&gt;&lt;font color=&quot;#ababab&quot;&gt;x4&lt;/font&gt;&lt;/div&gt;" style="rounded=0;whiteSpace=wrap;html=1;strokeColor=#454744;fillColor=#464646;" vertex="1" parent="1">
          <mxGeometry x="380" y="178" width="60" height="80" as="geometry" />
        </mxCell>
        <mxCell id="gDiiwQV4zZhBu72KXJR7-95" value="&lt;font style=&quot;font-size: 14px;&quot; color=&quot;#ababab&quot;&gt;ECC&lt;/font&gt;&lt;div style=&quot;font-size: 14px;&quot;&gt;&lt;font color=&quot;#ababab&quot;&gt;x4&lt;/font&gt;&lt;/div&gt;" style="rounded=0;whiteSpace=wrap;html=1;strokeColor=#454744;fillColor=#464646;" vertex="1" parent="1">
          <mxGeometry x="600" y="178" width="60" height="80" as="geometry" />
        </mxCell>
        <mxCell id="gDiiwQV4zZhBu72KXJR7-96" value="&lt;font style=&quot;font-size: 14px;&quot; color=&quot;#ababab&quot;&gt;DQ&lt;/font&gt;&lt;div style=&quot;font-size: 14px;&quot;&gt;&lt;font color=&quot;#ababab&quot;&gt;x4&lt;/font&gt;&lt;/div&gt;" style="rounded=0;whiteSpace=wrap;html=1;strokeColor=#454744;fillColor=#464646;" vertex="1" parent="1">
          <mxGeometry x="680" y="178" width="60" height="80" as="geometry" />
        </mxCell>
        <mxCell id="gDiiwQV4zZhBu72KXJR7-97" value="&lt;font style=&quot;font-size: 14px;&quot; color=&quot;#ababab&quot;&gt;DQ&lt;/font&gt;&lt;div style=&quot;font-size: 14px;&quot;&gt;&lt;font color=&quot;#ababab&quot;&gt;x4&lt;/font&gt;&lt;/div&gt;" style="rounded=0;whiteSpace=wrap;html=1;strokeColor=#454744;fillColor=#464646;" vertex="1" parent="1">
          <mxGeometry x="760" y="178" width="60" height="80" as="geometry" />
        </mxCell>
        <mxCell id="gDiiwQV4zZhBu72KXJR7-98" value="&lt;font style=&quot;font-size: 14px;&quot; color=&quot;#ababab&quot;&gt;DQ&lt;/font&gt;&lt;div style=&quot;font-size: 14px;&quot;&gt;&lt;font color=&quot;#ababab&quot;&gt;x4&lt;/font&gt;&lt;/div&gt;" style="rounded=0;whiteSpace=wrap;html=1;strokeColor=#454744;fillColor=#464646;" vertex="1" parent="1">
          <mxGeometry x="840" y="178" width="60" height="80" as="geometry" />
        </mxCell>
        <mxCell id="gDiiwQV4zZhBu72KXJR7-99" value="&lt;font style=&quot;font-size: 14px;&quot; color=&quot;#ababab&quot;&gt;DQ&lt;/font&gt;&lt;div style=&quot;font-size: 14px;&quot;&gt;&lt;font color=&quot;#ababab&quot;&gt;x4&lt;/font&gt;&lt;/div&gt;" style="rounded=0;whiteSpace=wrap;html=1;strokeColor=#454744;fillColor=#464646;" vertex="1" parent="1">
          <mxGeometry x="920" y="178" width="60" height="80" as="geometry" />
        </mxCell>
        <mxCell id="gDiiwQV4zZhBu72KXJR7-132" value="" style="endArrow=classic;html=1;rounded=0;exitX=0.75;exitY=1;exitDx=0;exitDy=0;strokeWidth=2;fillColor=#ffe6cc;strokeColor=#d79b00;entryX=1;entryY=0.75;entryDx=0;entryDy=0;" edge="1" parent="1" source="gDiiwQV4zZhBu72KXJR7-106" target="gDiiwQV4zZhBu72KXJR7-6">
          <mxGeometry width="50" height="50" relative="1" as="geometry">
            <mxPoint x="480" y="292.5" as="sourcePoint" />
            <mxPoint x="440" y="327.5" as="targetPoint" />
          </mxGeometry>
        </mxCell>
        <mxCell id="gDiiwQV4zZhBu72KXJR7-134" value="" style="endArrow=classic;html=1;rounded=0;exitX=0.75;exitY=1;exitDx=0;exitDy=0;strokeWidth=2;fillColor=#f8cecc;strokeColor=#b85450;entryX=1;entryY=0.5;entryDx=0;entryDy=0;" edge="1" parent="1">
          <mxGeometry width="50" height="50" relative="1" as="geometry">
            <mxPoint x="480" y="258" as="sourcePoint" />
            <mxPoint x="440" y="310.5" as="targetPoint" />
          </mxGeometry>
        </mxCell>
        <mxCell id="gDiiwQV4zZhBu72KXJR7-135" value="" style="endArrow=classic;html=1;rounded=0;exitX=0.75;exitY=1;exitDx=0;exitDy=0;strokeWidth=2;fillColor=#dae8fc;strokeColor=#6c8ebf;entryX=1;entryY=0.5;entryDx=0;entryDy=0;" edge="1" parent="1">
          <mxGeometry width="50" height="50" relative="1" as="geometry">
            <mxPoint x="480" y="237.5" as="sourcePoint" />
            <mxPoint x="440" y="290" as="targetPoint" />
          </mxGeometry>
        </mxCell>
        <mxCell id="gDiiwQV4zZhBu72KXJR7-136" value="" style="endArrow=classic;html=1;rounded=0;exitX=0.75;exitY=1;exitDx=0;exitDy=0;strokeWidth=2;fillColor=#ffe6cc;strokeColor=#d79b00;entryX=1;entryY=0.75;entryDx=0;entryDy=0;" edge="1" parent="1" target="gDiiwQV4zZhBu72KXJR7-94">
          <mxGeometry width="50" height="50" relative="1" as="geometry">
            <mxPoint x="480" y="274" as="sourcePoint" />
            <mxPoint x="440" y="326.5" as="targetPoint" />
          </mxGeometry>
        </mxCell>
        <mxCell id="gDiiwQV4zZhBu72KXJR7-137" value="" style="endArrow=classic;html=1;rounded=0;strokeWidth=2;fillColor=#f8cecc;strokeColor=#b85450;" edge="1" parent="1">
          <mxGeometry width="50" height="50" relative="1" as="geometry">
            <mxPoint x="480" y="260" as="sourcePoint" />
            <mxPoint x="440" y="219" as="targetPoint" />
          </mxGeometry>
        </mxCell>
        <mxCell id="gDiiwQV4zZhBu72KXJR7-138" value="" style="endArrow=classic;html=1;rounded=0;exitX=0.75;exitY=1;exitDx=0;exitDy=0;strokeWidth=2;fillColor=#dae8fc;strokeColor=#6c8ebf;" edge="1" parent="1">
          <mxGeometry width="50" height="50" relative="1" as="geometry">
            <mxPoint x="480" y="236.5" as="sourcePoint" />
            <mxPoint x="440" y="200" as="targetPoint" />
          </mxGeometry>
        </mxCell>
        <mxCell id="gDiiwQV4zZhBu72KXJR7-152" value="" style="endArrow=classic;html=1;rounded=0;strokeWidth=2;fillColor=#dae8fc;strokeColor=#6c8ebf;entryX=0;entryY=0.25;entryDx=0;entryDy=0;" edge="1" parent="1" target="gDiiwQV4zZhBu72KXJR7-95">
          <mxGeometry width="50" height="50" relative="1" as="geometry">
            <mxPoint x="560" y="250" as="sourcePoint" />
            <mxPoint x="450" y="210" as="targetPoint" />
          </mxGeometry>
        </mxCell>
        <mxCell id="gDiiwQV4zZhBu72KXJR7-153" value="" style="endArrow=classic;html=1;rounded=0;strokeWidth=2;fillColor=#dae8fc;strokeColor=#6c8ebf;entryX=0;entryY=0.25;entryDx=0;entryDy=0;exitX=0.25;exitY=0;exitDx=0;exitDy=0;" edge="1" parent="1" source="gDiiwQV4zZhBu72KXJR7-106" target="gDiiwQV4zZhBu72KXJR7-7">
          <mxGeometry width="50" height="50" relative="1" as="geometry">
            <mxPoint x="560" y="247" as="sourcePoint" />
            <mxPoint x="600" y="200" as="targetPoint" />
          </mxGeometry>
        </mxCell>
        <mxCell id="gDiiwQV4zZhBu72KXJR7-154" value="" style="endArrow=classic;html=1;rounded=0;strokeWidth=2;fillColor=#f8cecc;strokeColor=#b85450;entryX=0;entryY=0.5;entryDx=0;entryDy=0;" edge="1" parent="1" target="gDiiwQV4zZhBu72KXJR7-95">
          <mxGeometry width="50" height="50" relative="1" as="geometry">
            <mxPoint x="560" y="260" as="sourcePoint" />
            <mxPoint x="600" y="211" as="targetPoint" />
          </mxGeometry>
        </mxCell>
        <mxCell id="gDiiwQV4zZhBu72KXJR7-155" value="" style="endArrow=classic;html=1;rounded=0;strokeWidth=2;fillColor=#f8cecc;strokeColor=#b85450;entryX=0;entryY=0.5;entryDx=0;entryDy=0;" edge="1" parent="1">
          <mxGeometry width="50" height="50" relative="1" as="geometry">
            <mxPoint x="560" y="260" as="sourcePoint" />
            <mxPoint x="600" y="308" as="targetPoint" />
          </mxGeometry>
        </mxCell>
        <mxCell id="gDiiwQV4zZhBu72KXJR7-157" value="" style="endArrow=classic;html=1;rounded=0;exitX=0.25;exitY=0;exitDx=0;exitDy=0;strokeWidth=2;fillColor=#ffe6cc;strokeColor=#d79b00;entryX=0;entryY=0.5;entryDx=0;entryDy=0;" edge="1" parent="1">
          <mxGeometry width="50" height="50" relative="1" as="geometry">
            <mxPoint x="560" y="280" as="sourcePoint" />
            <mxPoint x="600" y="240" as="targetPoint" />
          </mxGeometry>
        </mxCell>
        <mxCell id="gDiiwQV4zZhBu72KXJR7-158" value="" style="endArrow=classic;html=1;rounded=0;strokeWidth=2;fillColor=#ffe6cc;strokeColor=#d79b00;entryX=0;entryY=0.75;entryDx=0;entryDy=0;" edge="1" parent="1" target="gDiiwQV4zZhBu72KXJR7-7">
          <mxGeometry width="50" height="50" relative="1" as="geometry">
            <mxPoint x="560" y="280" as="sourcePoint" />
            <mxPoint x="610" y="250" as="targetPoint" />
          </mxGeometry>
        </mxCell>
        <mxCell id="gDiiwQV4zZhBu72KXJR7-159" value="" style="endArrow=classic;html=1;rounded=0;exitX=0;exitY=0.5;exitDx=0;exitDy=0;strokeWidth=4;fillColor=#ffe6cc;strokeColor=#d79b00;" edge="1" parent="1">
          <mxGeometry width="50" height="50" relative="1" as="geometry">
            <mxPoint x="42.25" y="480" as="sourcePoint" />
            <mxPoint x="157.75" y="480" as="targetPoint" />
          </mxGeometry>
        </mxCell>
        <mxCell id="gDiiwQV4zZhBu72KXJR7-160" value="" style="endArrow=classic;html=1;rounded=0;exitX=0;exitY=0.5;exitDx=0;exitDy=0;strokeWidth=4;fillColor=#f8cecc;strokeColor=#b85450;" edge="1" parent="1">
          <mxGeometry width="50" height="50" relative="1" as="geometry">
            <mxPoint x="42.25" y="520" as="sourcePoint" />
            <mxPoint x="157.75" y="520" as="targetPoint" />
          </mxGeometry>
        </mxCell>
        <mxCell id="gDiiwQV4zZhBu72KXJR7-161" value="" style="endArrow=classic;html=1;rounded=0;exitX=0;exitY=0.5;exitDx=0;exitDy=0;strokeWidth=4;fillColor=#dae8fc;strokeColor=#6c8ebf;" edge="1" parent="1">
          <mxGeometry width="50" height="50" relative="1" as="geometry">
            <mxPoint x="44.5" y="562" as="sourcePoint" />
            <mxPoint x="160" y="562" as="targetPoint" />
          </mxGeometry>
        </mxCell>
        <mxCell id="gDiiwQV4zZhBu72KXJR7-162" value="" style="endArrow=classic;html=1;rounded=0;strokeWidth=2;fillColor=#ffe6cc;strokeColor=#d79b00;" edge="1" parent="1">
          <mxGeometry width="50" height="50" relative="1" as="geometry">
            <mxPoint x="610" y="480" as="sourcePoint" />
            <mxPoint x="697.75" y="479.5" as="targetPoint" />
          </mxGeometry>
        </mxCell>
        <mxCell id="gDiiwQV4zZhBu72KXJR7-163" value="" style="endArrow=classic;html=1;rounded=0;exitX=0;exitY=0.5;exitDx=0;exitDy=0;strokeWidth=2;fillColor=#f8cecc;strokeColor=#b85450;" edge="1" parent="1">
          <mxGeometry width="50" height="50" relative="1" as="geometry">
            <mxPoint x="610" y="519.5" as="sourcePoint" />
            <mxPoint x="700" y="520" as="targetPoint" />
          </mxGeometry>
        </mxCell>
        <mxCell id="gDiiwQV4zZhBu72KXJR7-164" value="" style="endArrow=classic;html=1;rounded=0;strokeWidth=2;fillColor=#dae8fc;strokeColor=#6c8ebf;" edge="1" parent="1">
          <mxGeometry width="50" height="50" relative="1" as="geometry">
            <mxPoint x="610" y="560" as="sourcePoint" />
            <mxPoint x="700" y="559.5" as="targetPoint" />
          </mxGeometry>
        </mxCell>
        <mxCell id="gDiiwQV4zZhBu72KXJR7-165" value="Pre-RCD Signals" style="text;html=1;align=center;verticalAlign=middle;whiteSpace=wrap;rounded=0;fontSize=14;fontStyle=1" vertex="1" parent="1">
          <mxGeometry x="240" y="410" width="130" height="30" as="geometry" />
        </mxCell>
        <mxCell id="gDiiwQV4zZhBu72KXJR7-166" value="Post-RCD Signals" style="text;html=1;align=center;verticalAlign=middle;whiteSpace=wrap;rounded=0;fontSize=14;fontStyle=1" vertex="1" parent="1">
          <mxGeometry x="830" y="410" width="130" height="30" as="geometry" />
        </mxCell>
        <mxCell id="gDiiwQV4zZhBu72KXJR7-167" value="Clock: DCK_t, DCK_c" style="text;html=1;align=center;verticalAlign=middle;whiteSpace=wrap;rounded=0;fontSize=14;fontStyle=1;fillColor=#ffe6cc;strokeColor=#d79b00;" vertex="1" parent="1">
          <mxGeometry x="160" y="464" width="270" height="30" as="geometry" />
        </mxCell>
        <mxCell id="gDiiwQV4zZhBu72KXJR7-168" value="Chip Select: DCS[1:0]_[B:A]_n" style="text;html=1;align=center;verticalAlign=middle;whiteSpace=wrap;rounded=0;fontSize=14;fontStyle=1;fillColor=#f8cecc;strokeColor=#b85450;" vertex="1" parent="1">
          <mxGeometry x="160" y="505" width="270" height="30" as="geometry" />
        </mxCell>
        <mxCell id="gDiiwQV4zZhBu72KXJR7-170" value="Clock: Q[D:A]CK_[B:A]_t, Q[D:A]CK_[B:A]_c" style="text;html=1;align=center;verticalAlign=middle;whiteSpace=wrap;rounded=0;fontSize=14;fontStyle=1;fillColor=#ffe6cc;strokeColor=#d79b00;" vertex="1" parent="1">
          <mxGeometry x="700" y="464" width="310" height="30" as="geometry" />
        </mxCell>
        <mxCell id="gDiiwQV4zZhBu72KXJR7-171" value="Chip Select: Q[B:A]CS[1:0]_[B:A]_n" style="text;html=1;align=center;verticalAlign=middle;whiteSpace=wrap;rounded=0;fontSize=14;fontStyle=1;fillColor=#f8cecc;strokeColor=#b85450;" vertex="1" parent="1">
          <mxGeometry x="700" y="505" width="310" height="30" as="geometry" />
        </mxCell>
        <mxCell id="gDiiwQV4zZhBu72KXJR7-172" value="Cmd/Addr/Ctrl: Q[B:A]CA[13:0]_[B:A]" style="text;html=1;align=center;verticalAlign=middle;whiteSpace=wrap;rounded=0;fontSize=14;fontStyle=1;fillColor=#dae8fc;strokeColor=#6c8ebf;" vertex="1" parent="1">
          <mxGeometry x="700" y="545" width="310" height="30" as="geometry" />
        </mxCell>
        <mxCell id="gDiiwQV4zZhBu72KXJR7-174" value="Cmd/Addr/Ctrl: DCA[6:0]_[B:A]" style="text;html=1;align=center;verticalAlign=middle;whiteSpace=wrap;rounded=0;fontSize=14;fontStyle=1;fillColor=#dae8fc;strokeColor=#6c8ebf;" vertex="1" parent="1">
          <mxGeometry x="160" y="545" width="270" height="30" as="geometry" />
        </mxCell>
        <mxCell id="gDiiwQV4zZhBu72KXJR7-175" value="" style="rounded=0;whiteSpace=wrap;html=1;fillColor=#2e7956;" vertex="1" parent="1">
          <mxGeometry x="25" y="690" width="990" height="250" as="geometry" />
        </mxCell>
        <mxCell id="gDiiwQV4zZhBu72KXJR7-176" value="" style="rounded=0;whiteSpace=wrap;html=1;fillColor=#e5dc7b;" vertex="1" parent="1">
          <mxGeometry x="55" y="920" width="10" height="20" as="geometry" />
        </mxCell>
        <mxCell id="gDiiwQV4zZhBu72KXJR7-177" value="" style="rounded=0;whiteSpace=wrap;html=1;fillColor=#e5dc7b;" vertex="1" parent="1">
          <mxGeometry x="65" y="920" width="10" height="20" as="geometry" />
        </mxCell>
        <mxCell id="gDiiwQV4zZhBu72KXJR7-178" value="" style="rounded=0;whiteSpace=wrap;html=1;fillColor=#e5dc7b;" vertex="1" parent="1">
          <mxGeometry x="75" y="920" width="10" height="20" as="geometry" />
        </mxCell>
        <mxCell id="gDiiwQV4zZhBu72KXJR7-179" value="" style="rounded=0;whiteSpace=wrap;html=1;fillColor=#e5dc7b;" vertex="1" parent="1">
          <mxGeometry x="85" y="920" width="10" height="20" as="geometry" />
        </mxCell>
        <mxCell id="gDiiwQV4zZhBu72KXJR7-180" value="" style="rounded=0;whiteSpace=wrap;html=1;fillColor=#e5dc7b;" vertex="1" parent="1">
          <mxGeometry x="95" y="920" width="10" height="20" as="geometry" />
        </mxCell>
        <mxCell id="gDiiwQV4zZhBu72KXJR7-181" value="" style="rounded=0;whiteSpace=wrap;html=1;fillColor=#e5dc7b;" vertex="1" parent="1">
          <mxGeometry x="105" y="920" width="10" height="20" as="geometry" />
        </mxCell>
        <mxCell id="gDiiwQV4zZhBu72KXJR7-182" value="" style="rounded=0;whiteSpace=wrap;html=1;fillColor=#e5dc7b;" vertex="1" parent="1">
          <mxGeometry x="115" y="920" width="10" height="20" as="geometry" />
        </mxCell>
        <mxCell id="gDiiwQV4zZhBu72KXJR7-183" value="" style="rounded=0;whiteSpace=wrap;html=1;fillColor=#e5dc7b;" vertex="1" parent="1">
          <mxGeometry x="125" y="920" width="10" height="20" as="geometry" />
        </mxCell>
        <mxCell id="gDiiwQV4zZhBu72KXJR7-184" value="" style="rounded=0;whiteSpace=wrap;html=1;fillColor=#e5dc7b;" vertex="1" parent="1">
          <mxGeometry x="135" y="920" width="10" height="20" as="geometry" />
        </mxCell>
        <mxCell id="gDiiwQV4zZhBu72KXJR7-185" value="" style="rounded=0;whiteSpace=wrap;html=1;fillColor=#e5dc7b;" vertex="1" parent="1">
          <mxGeometry x="145" y="920" width="10" height="20" as="geometry" />
        </mxCell>
        <mxCell id="gDiiwQV4zZhBu72KXJR7-186" value="" style="rounded=0;whiteSpace=wrap;html=1;fillColor=#e5dc7b;" vertex="1" parent="1">
          <mxGeometry x="155" y="920" width="10" height="20" as="geometry" />
        </mxCell>
        <mxCell id="gDiiwQV4zZhBu72KXJR7-187" value="" style="rounded=0;whiteSpace=wrap;html=1;fillColor=#e5dc7b;" vertex="1" parent="1">
          <mxGeometry x="165" y="920" width="10" height="20" as="geometry" />
        </mxCell>
        <mxCell id="gDiiwQV4zZhBu72KXJR7-188" value="" style="rounded=0;whiteSpace=wrap;html=1;fillColor=#e5dc7b;" vertex="1" parent="1">
          <mxGeometry x="175" y="920" width="10" height="20" as="geometry" />
        </mxCell>
        <mxCell id="gDiiwQV4zZhBu72KXJR7-189" value="" style="rounded=0;whiteSpace=wrap;html=1;fillColor=#e5dc7b;" vertex="1" parent="1">
          <mxGeometry x="185" y="920" width="10" height="20" as="geometry" />
        </mxCell>
        <mxCell id="gDiiwQV4zZhBu72KXJR7-190" value="" style="rounded=0;whiteSpace=wrap;html=1;fillColor=#e5dc7b;" vertex="1" parent="1">
          <mxGeometry x="195" y="920" width="10" height="20" as="geometry" />
        </mxCell>
        <mxCell id="gDiiwQV4zZhBu72KXJR7-191" value="" style="rounded=0;whiteSpace=wrap;html=1;fillColor=#e5dc7b;" vertex="1" parent="1">
          <mxGeometry x="205" y="920" width="10" height="20" as="geometry" />
        </mxCell>
        <mxCell id="gDiiwQV4zZhBu72KXJR7-192" value="" style="rounded=0;whiteSpace=wrap;html=1;fillColor=#e5dc7b;" vertex="1" parent="1">
          <mxGeometry x="215" y="920" width="10" height="20" as="geometry" />
        </mxCell>
        <mxCell id="gDiiwQV4zZhBu72KXJR7-193" value="" style="rounded=0;whiteSpace=wrap;html=1;fillColor=#e5dc7b;" vertex="1" parent="1">
          <mxGeometry x="225" y="920" width="10" height="20" as="geometry" />
        </mxCell>
        <mxCell id="gDiiwQV4zZhBu72KXJR7-194" value="" style="rounded=0;whiteSpace=wrap;html=1;fillColor=#e5dc7b;" vertex="1" parent="1">
          <mxGeometry x="235" y="920" width="10" height="20" as="geometry" />
        </mxCell>
        <mxCell id="gDiiwQV4zZhBu72KXJR7-195" value="" style="rounded=0;whiteSpace=wrap;html=1;fillColor=#e5dc7b;" vertex="1" parent="1">
          <mxGeometry x="245" y="920" width="10" height="20" as="geometry" />
        </mxCell>
        <mxCell id="gDiiwQV4zZhBu72KXJR7-196" value="" style="rounded=0;whiteSpace=wrap;html=1;fillColor=#e5dc7b;" vertex="1" parent="1">
          <mxGeometry x="255" y="920" width="10" height="20" as="geometry" />
        </mxCell>
        <mxCell id="gDiiwQV4zZhBu72KXJR7-197" value="" style="rounded=0;whiteSpace=wrap;html=1;fillColor=#e5dc7b;" vertex="1" parent="1">
          <mxGeometry x="265" y="920" width="10" height="20" as="geometry" />
        </mxCell>
        <mxCell id="gDiiwQV4zZhBu72KXJR7-198" value="" style="rounded=0;whiteSpace=wrap;html=1;fillColor=#e5dc7b;" vertex="1" parent="1">
          <mxGeometry x="275" y="920" width="10" height="20" as="geometry" />
        </mxCell>
        <mxCell id="gDiiwQV4zZhBu72KXJR7-199" value="" style="rounded=0;whiteSpace=wrap;html=1;fillColor=#e5dc7b;" vertex="1" parent="1">
          <mxGeometry x="285" y="920" width="10" height="20" as="geometry" />
        </mxCell>
        <mxCell id="gDiiwQV4zZhBu72KXJR7-200" value="" style="rounded=0;whiteSpace=wrap;html=1;fillColor=#e5dc7b;" vertex="1" parent="1">
          <mxGeometry x="295" y="920" width="10" height="20" as="geometry" />
        </mxCell>
        <mxCell id="gDiiwQV4zZhBu72KXJR7-201" value="" style="rounded=0;whiteSpace=wrap;html=1;fillColor=#e5dc7b;" vertex="1" parent="1">
          <mxGeometry x="305" y="920" width="10" height="20" as="geometry" />
        </mxCell>
        <mxCell id="gDiiwQV4zZhBu72KXJR7-202" value="" style="rounded=0;whiteSpace=wrap;html=1;fillColor=#e5dc7b;" vertex="1" parent="1">
          <mxGeometry x="315" y="920" width="10" height="20" as="geometry" />
        </mxCell>
        <mxCell id="gDiiwQV4zZhBu72KXJR7-203" value="" style="rounded=0;whiteSpace=wrap;html=1;fillColor=#e5dc7b;" vertex="1" parent="1">
          <mxGeometry x="325" y="920" width="10" height="20" as="geometry" />
        </mxCell>
        <mxCell id="gDiiwQV4zZhBu72KXJR7-204" value="" style="rounded=0;whiteSpace=wrap;html=1;fillColor=#e5dc7b;" vertex="1" parent="1">
          <mxGeometry x="335" y="920" width="10" height="20" as="geometry" />
        </mxCell>
        <mxCell id="gDiiwQV4zZhBu72KXJR7-205" value="" style="rounded=0;whiteSpace=wrap;html=1;fillColor=#e5dc7b;" vertex="1" parent="1">
          <mxGeometry x="345" y="920" width="10" height="20" as="geometry" />
        </mxCell>
        <mxCell id="gDiiwQV4zZhBu72KXJR7-206" value="" style="rounded=0;whiteSpace=wrap;html=1;fillColor=#e5dc7b;" vertex="1" parent="1">
          <mxGeometry x="355" y="920" width="10" height="20" as="geometry" />
        </mxCell>
        <mxCell id="gDiiwQV4zZhBu72KXJR7-207" value="" style="rounded=0;whiteSpace=wrap;html=1;fillColor=#e5dc7b;" vertex="1" parent="1">
          <mxGeometry x="365" y="920" width="10" height="20" as="geometry" />
        </mxCell>
        <mxCell id="gDiiwQV4zZhBu72KXJR7-208" value="" style="rounded=0;whiteSpace=wrap;html=1;fillColor=#e5dc7b;" vertex="1" parent="1">
          <mxGeometry x="375" y="920" width="10" height="20" as="geometry" />
        </mxCell>
        <mxCell id="gDiiwQV4zZhBu72KXJR7-209" value="" style="rounded=0;whiteSpace=wrap;html=1;fillColor=#e5dc7b;" vertex="1" parent="1">
          <mxGeometry x="385" y="920" width="10" height="20" as="geometry" />
        </mxCell>
        <mxCell id="gDiiwQV4zZhBu72KXJR7-210" value="" style="rounded=0;whiteSpace=wrap;html=1;fillColor=#e5dc7b;" vertex="1" parent="1">
          <mxGeometry x="395" y="920" width="10" height="20" as="geometry" />
        </mxCell>
        <mxCell id="gDiiwQV4zZhBu72KXJR7-211" value="" style="rounded=0;whiteSpace=wrap;html=1;fillColor=#e5dc7b;" vertex="1" parent="1">
          <mxGeometry x="405" y="920" width="10" height="20" as="geometry" />
        </mxCell>
        <mxCell id="gDiiwQV4zZhBu72KXJR7-212" value="" style="rounded=0;whiteSpace=wrap;html=1;fillColor=#e5dc7b;" vertex="1" parent="1">
          <mxGeometry x="415" y="920" width="10" height="20" as="geometry" />
        </mxCell>
        <mxCell id="gDiiwQV4zZhBu72KXJR7-213" value="" style="rounded=0;whiteSpace=wrap;html=1;fillColor=#e5dc7b;" vertex="1" parent="1">
          <mxGeometry x="425" y="920" width="10" height="20" as="geometry" />
        </mxCell>
        <mxCell id="gDiiwQV4zZhBu72KXJR7-214" value="" style="rounded=0;whiteSpace=wrap;html=1;fillColor=#e5dc7b;" vertex="1" parent="1">
          <mxGeometry x="605" y="920" width="10" height="20" as="geometry" />
        </mxCell>
        <mxCell id="gDiiwQV4zZhBu72KXJR7-215" value="" style="rounded=0;whiteSpace=wrap;html=1;fillColor=#e5dc7b;" vertex="1" parent="1">
          <mxGeometry x="615" y="920" width="10" height="20" as="geometry" />
        </mxCell>
        <mxCell id="gDiiwQV4zZhBu72KXJR7-216" value="" style="rounded=0;whiteSpace=wrap;html=1;fillColor=#e5dc7b;" vertex="1" parent="1">
          <mxGeometry x="625" y="920" width="10" height="20" as="geometry" />
        </mxCell>
        <mxCell id="gDiiwQV4zZhBu72KXJR7-217" value="" style="rounded=0;whiteSpace=wrap;html=1;fillColor=#e5dc7b;" vertex="1" parent="1">
          <mxGeometry x="635" y="920" width="10" height="20" as="geometry" />
        </mxCell>
        <mxCell id="gDiiwQV4zZhBu72KXJR7-218" value="" style="rounded=0;whiteSpace=wrap;html=1;fillColor=#e5dc7b;" vertex="1" parent="1">
          <mxGeometry x="645" y="920" width="10" height="20" as="geometry" />
        </mxCell>
        <mxCell id="gDiiwQV4zZhBu72KXJR7-219" value="" style="rounded=0;whiteSpace=wrap;html=1;fillColor=#e5dc7b;" vertex="1" parent="1">
          <mxGeometry x="655" y="920" width="10" height="20" as="geometry" />
        </mxCell>
        <mxCell id="gDiiwQV4zZhBu72KXJR7-220" value="" style="rounded=0;whiteSpace=wrap;html=1;fillColor=#e5dc7b;" vertex="1" parent="1">
          <mxGeometry x="665" y="920" width="10" height="20" as="geometry" />
        </mxCell>
        <mxCell id="gDiiwQV4zZhBu72KXJR7-221" value="" style="rounded=0;whiteSpace=wrap;html=1;fillColor=#e5dc7b;" vertex="1" parent="1">
          <mxGeometry x="675" y="920" width="10" height="20" as="geometry" />
        </mxCell>
        <mxCell id="gDiiwQV4zZhBu72KXJR7-222" value="" style="rounded=0;whiteSpace=wrap;html=1;fillColor=#e5dc7b;" vertex="1" parent="1">
          <mxGeometry x="685" y="920" width="10" height="20" as="geometry" />
        </mxCell>
        <mxCell id="gDiiwQV4zZhBu72KXJR7-223" value="" style="rounded=0;whiteSpace=wrap;html=1;fillColor=#e5dc7b;" vertex="1" parent="1">
          <mxGeometry x="695" y="920" width="10" height="20" as="geometry" />
        </mxCell>
        <mxCell id="gDiiwQV4zZhBu72KXJR7-224" value="" style="rounded=0;whiteSpace=wrap;html=1;fillColor=#e5dc7b;" vertex="1" parent="1">
          <mxGeometry x="705" y="920" width="10" height="20" as="geometry" />
        </mxCell>
        <mxCell id="gDiiwQV4zZhBu72KXJR7-225" value="" style="rounded=0;whiteSpace=wrap;html=1;fillColor=#e5dc7b;" vertex="1" parent="1">
          <mxGeometry x="715" y="920" width="10" height="20" as="geometry" />
        </mxCell>
        <mxCell id="gDiiwQV4zZhBu72KXJR7-226" value="" style="rounded=0;whiteSpace=wrap;html=1;fillColor=#e5dc7b;" vertex="1" parent="1">
          <mxGeometry x="725" y="920" width="10" height="20" as="geometry" />
        </mxCell>
        <mxCell id="gDiiwQV4zZhBu72KXJR7-227" value="" style="rounded=0;whiteSpace=wrap;html=1;fillColor=#e5dc7b;" vertex="1" parent="1">
          <mxGeometry x="735" y="920" width="10" height="20" as="geometry" />
        </mxCell>
        <mxCell id="gDiiwQV4zZhBu72KXJR7-228" value="" style="rounded=0;whiteSpace=wrap;html=1;fillColor=#e5dc7b;" vertex="1" parent="1">
          <mxGeometry x="745" y="920" width="10" height="20" as="geometry" />
        </mxCell>
        <mxCell id="gDiiwQV4zZhBu72KXJR7-229" value="" style="rounded=0;whiteSpace=wrap;html=1;fillColor=#e5dc7b;" vertex="1" parent="1">
          <mxGeometry x="755" y="920" width="10" height="20" as="geometry" />
        </mxCell>
        <mxCell id="gDiiwQV4zZhBu72KXJR7-230" value="" style="rounded=0;whiteSpace=wrap;html=1;fillColor=#e5dc7b;" vertex="1" parent="1">
          <mxGeometry x="765" y="920" width="10" height="20" as="geometry" />
        </mxCell>
        <mxCell id="gDiiwQV4zZhBu72KXJR7-231" value="" style="rounded=0;whiteSpace=wrap;html=1;fillColor=#e5dc7b;" vertex="1" parent="1">
          <mxGeometry x="775" y="920" width="10" height="20" as="geometry" />
        </mxCell>
        <mxCell id="gDiiwQV4zZhBu72KXJR7-232" value="" style="rounded=0;whiteSpace=wrap;html=1;fillColor=#e5dc7b;" vertex="1" parent="1">
          <mxGeometry x="785" y="920" width="10" height="20" as="geometry" />
        </mxCell>
        <mxCell id="gDiiwQV4zZhBu72KXJR7-233" value="" style="rounded=0;whiteSpace=wrap;html=1;fillColor=#e5dc7b;" vertex="1" parent="1">
          <mxGeometry x="795" y="920" width="10" height="20" as="geometry" />
        </mxCell>
        <mxCell id="gDiiwQV4zZhBu72KXJR7-234" value="" style="rounded=0;whiteSpace=wrap;html=1;fillColor=#e5dc7b;" vertex="1" parent="1">
          <mxGeometry x="805" y="920" width="10" height="20" as="geometry" />
        </mxCell>
        <mxCell id="gDiiwQV4zZhBu72KXJR7-235" value="" style="rounded=0;whiteSpace=wrap;html=1;fillColor=#e5dc7b;" vertex="1" parent="1">
          <mxGeometry x="815" y="920" width="10" height="20" as="geometry" />
        </mxCell>
        <mxCell id="gDiiwQV4zZhBu72KXJR7-236" value="" style="rounded=0;whiteSpace=wrap;html=1;fillColor=#e5dc7b;" vertex="1" parent="1">
          <mxGeometry x="825" y="920" width="10" height="20" as="geometry" />
        </mxCell>
        <mxCell id="gDiiwQV4zZhBu72KXJR7-237" value="" style="rounded=0;whiteSpace=wrap;html=1;fillColor=#e5dc7b;" vertex="1" parent="1">
          <mxGeometry x="835" y="920" width="10" height="20" as="geometry" />
        </mxCell>
        <mxCell id="gDiiwQV4zZhBu72KXJR7-238" value="" style="rounded=0;whiteSpace=wrap;html=1;fillColor=#e5dc7b;" vertex="1" parent="1">
          <mxGeometry x="845" y="920" width="10" height="20" as="geometry" />
        </mxCell>
        <mxCell id="gDiiwQV4zZhBu72KXJR7-239" value="" style="rounded=0;whiteSpace=wrap;html=1;fillColor=#e5dc7b;" vertex="1" parent="1">
          <mxGeometry x="855" y="920" width="10" height="20" as="geometry" />
        </mxCell>
        <mxCell id="gDiiwQV4zZhBu72KXJR7-240" value="" style="rounded=0;whiteSpace=wrap;html=1;fillColor=#e5dc7b;" vertex="1" parent="1">
          <mxGeometry x="865" y="920" width="10" height="20" as="geometry" />
        </mxCell>
        <mxCell id="gDiiwQV4zZhBu72KXJR7-241" value="" style="rounded=0;whiteSpace=wrap;html=1;fillColor=#e5dc7b;" vertex="1" parent="1">
          <mxGeometry x="875" y="920" width="10" height="20" as="geometry" />
        </mxCell>
        <mxCell id="gDiiwQV4zZhBu72KXJR7-242" value="" style="rounded=0;whiteSpace=wrap;html=1;fillColor=#e5dc7b;" vertex="1" parent="1">
          <mxGeometry x="885" y="920" width="10" height="20" as="geometry" />
        </mxCell>
        <mxCell id="gDiiwQV4zZhBu72KXJR7-243" value="" style="rounded=0;whiteSpace=wrap;html=1;fillColor=#e5dc7b;" vertex="1" parent="1">
          <mxGeometry x="895" y="920" width="10" height="20" as="geometry" />
        </mxCell>
        <mxCell id="gDiiwQV4zZhBu72KXJR7-244" value="" style="rounded=0;whiteSpace=wrap;html=1;fillColor=#e5dc7b;" vertex="1" parent="1">
          <mxGeometry x="905" y="920" width="10" height="20" as="geometry" />
        </mxCell>
        <mxCell id="gDiiwQV4zZhBu72KXJR7-245" value="" style="rounded=0;whiteSpace=wrap;html=1;fillColor=#e5dc7b;" vertex="1" parent="1">
          <mxGeometry x="915" y="920" width="10" height="20" as="geometry" />
        </mxCell>
        <mxCell id="gDiiwQV4zZhBu72KXJR7-246" value="" style="rounded=0;whiteSpace=wrap;html=1;fillColor=#e5dc7b;" vertex="1" parent="1">
          <mxGeometry x="925" y="920" width="10" height="20" as="geometry" />
        </mxCell>
        <mxCell id="gDiiwQV4zZhBu72KXJR7-247" value="" style="rounded=0;whiteSpace=wrap;html=1;fillColor=#e5dc7b;" vertex="1" parent="1">
          <mxGeometry x="935" y="920" width="10" height="20" as="geometry" />
        </mxCell>
        <mxCell id="gDiiwQV4zZhBu72KXJR7-248" value="" style="rounded=0;whiteSpace=wrap;html=1;fillColor=#e5dc7b;" vertex="1" parent="1">
          <mxGeometry x="945" y="920" width="10" height="20" as="geometry" />
        </mxCell>
        <mxCell id="gDiiwQV4zZhBu72KXJR7-249" value="" style="rounded=0;whiteSpace=wrap;html=1;fillColor=#e5dc7b;" vertex="1" parent="1">
          <mxGeometry x="955" y="920" width="10" height="20" as="geometry" />
        </mxCell>
        <mxCell id="gDiiwQV4zZhBu72KXJR7-250" value="" style="rounded=0;whiteSpace=wrap;html=1;fillColor=#e5dc7b;" vertex="1" parent="1">
          <mxGeometry x="965" y="920" width="10" height="20" as="geometry" />
        </mxCell>
        <mxCell id="gDiiwQV4zZhBu72KXJR7-251" value="" style="rounded=0;whiteSpace=wrap;html=1;fillColor=#e5dc7b;" vertex="1" parent="1">
          <mxGeometry x="975" y="920" width="10" height="20" as="geometry" />
        </mxCell>
        <mxCell id="gDiiwQV4zZhBu72KXJR7-252" value="" style="rounded=0;whiteSpace=wrap;html=1;fillColor=#e5dc7b;" vertex="1" parent="1">
          <mxGeometry x="985" y="920" width="10" height="20" as="geometry" />
        </mxCell>
        <mxCell id="gDiiwQV4zZhBu72KXJR7-253" value="" style="shape=or;whiteSpace=wrap;html=1;direction=north;" vertex="1" parent="1">
          <mxGeometry x="535" y="910" width="20" height="30" as="geometry" />
        </mxCell>
        <mxCell id="gDiiwQV4zZhBu72KXJR7-254" value="" style="rounded=0;whiteSpace=wrap;html=1;fillColor=#e5dc7b;" vertex="1" parent="1">
          <mxGeometry x="575" y="920" width="10" height="20" as="geometry" />
        </mxCell>
        <mxCell id="gDiiwQV4zZhBu72KXJR7-255" value="" style="rounded=0;whiteSpace=wrap;html=1;fillColor=#e5dc7b;" vertex="1" parent="1">
          <mxGeometry x="585" y="920" width="10" height="20" as="geometry" />
        </mxCell>
        <mxCell id="gDiiwQV4zZhBu72KXJR7-256" value="" style="rounded=0;whiteSpace=wrap;html=1;fillColor=#e5dc7b;" vertex="1" parent="1">
          <mxGeometry x="595" y="920" width="10" height="20" as="geometry" />
        </mxCell>
        <mxCell id="gDiiwQV4zZhBu72KXJR7-257" value="" style="rounded=0;whiteSpace=wrap;html=1;fillColor=#e5dc7b;" vertex="1" parent="1">
          <mxGeometry x="435" y="920" width="10" height="20" as="geometry" />
        </mxCell>
        <mxCell id="gDiiwQV4zZhBu72KXJR7-258" value="" style="rounded=0;whiteSpace=wrap;html=1;fillColor=#e5dc7b;" vertex="1" parent="1">
          <mxGeometry x="445" y="920" width="10" height="20" as="geometry" />
        </mxCell>
        <mxCell id="gDiiwQV4zZhBu72KXJR7-259" value="&lt;font style=&quot;font-size: 14px;&quot; color=&quot;#ababab&quot;&gt;&lt;b&gt;RCD&lt;/b&gt;&lt;/font&gt;" style="rounded=0;whiteSpace=wrap;html=1;strokeColor=#454744;fillColor=#464646;direction=south;" vertex="1" parent="1">
          <mxGeometry x="485" y="780" width="80" height="60" as="geometry" />
        </mxCell>
        <mxCell id="gDiiwQV4zZhBu72KXJR7-260" value="" style="rounded=0;whiteSpace=wrap;html=1;fillColor=#e5dc7b;" vertex="1" parent="1">
          <mxGeometry x="455" y="920" width="10" height="20" as="geometry" />
        </mxCell>
        <mxCell id="gDiiwQV4zZhBu72KXJR7-261" value="" style="rounded=0;whiteSpace=wrap;html=1;fillColor=#e5dc7b;" vertex="1" parent="1">
          <mxGeometry x="465" y="920" width="10" height="20" as="geometry" />
        </mxCell>
        <mxCell id="gDiiwQV4zZhBu72KXJR7-262" value="" style="rounded=0;whiteSpace=wrap;html=1;fillColor=#e5dc7b;" vertex="1" parent="1">
          <mxGeometry x="475" y="920" width="10" height="20" as="geometry" />
        </mxCell>
        <mxCell id="gDiiwQV4zZhBu72KXJR7-263" value="" style="rounded=0;whiteSpace=wrap;html=1;fillColor=#e5dc7b;" vertex="1" parent="1">
          <mxGeometry x="485" y="920" width="10" height="20" as="geometry" />
        </mxCell>
        <mxCell id="gDiiwQV4zZhBu72KXJR7-264" value="" style="rounded=0;whiteSpace=wrap;html=1;fillColor=#e5dc7b;" vertex="1" parent="1">
          <mxGeometry x="495" y="920" width="10" height="20" as="geometry" />
        </mxCell>
        <mxCell id="gDiiwQV4zZhBu72KXJR7-265" value="" style="rounded=0;whiteSpace=wrap;html=1;fillColor=#e5dc7b;" vertex="1" parent="1">
          <mxGeometry x="505" y="920" width="10" height="20" as="geometry" />
        </mxCell>
        <mxCell id="gDiiwQV4zZhBu72KXJR7-266" value="" style="rounded=0;whiteSpace=wrap;html=1;fillColor=#e5dc7b;" vertex="1" parent="1">
          <mxGeometry x="515" y="920" width="10" height="20" as="geometry" />
        </mxCell>
        <mxCell id="gDiiwQV4zZhBu72KXJR7-267" value="&lt;font style=&quot;font-size: 14px;&quot; color=&quot;#ababab&quot;&gt;&lt;b&gt;MEMORY CONTROLLER&lt;/b&gt;&lt;/font&gt;" style="rounded=0;whiteSpace=wrap;html=1;strokeColor=#454744;fillColor=#464646;direction=south;" vertex="1" parent="1">
          <mxGeometry x="460" y="1050" width="130" height="100" as="geometry" />
        </mxCell>
        <mxCell id="gDiiwQV4zZhBu72KXJR7-271" value="" style="endArrow=classic;html=1;rounded=0;strokeWidth=2;fillColor=#ffe6cc;strokeColor=#d79b00;startArrow=classic;startFill=1;" edge="1" parent="1">
          <mxGeometry width="50" height="50" relative="1" as="geometry">
            <mxPoint x="72" y="980" as="sourcePoint" />
            <mxPoint x="71.58" y="900" as="targetPoint" />
          </mxGeometry>
        </mxCell>
        <mxCell id="gDiiwQV4zZhBu72KXJR7-293" value="&lt;font color=&quot;#ababab&quot; style=&quot;font-size: 14px;&quot;&gt;DQ&lt;/font&gt;&lt;div style=&quot;font-size: 14px;&quot;&gt;&lt;font color=&quot;#ababab&quot; style=&quot;font-size: 14px;&quot;&gt;x4&lt;/font&gt;&lt;/div&gt;" style="rounded=0;whiteSpace=wrap;html=1;strokeColor=#454744;fillColor=#464646;" vertex="1" parent="1">
          <mxGeometry x="65" y="724" width="60" height="80" as="geometry" />
        </mxCell>
        <mxCell id="gDiiwQV4zZhBu72KXJR7-294" value="&lt;font style=&quot;font-size: 14px;&quot; color=&quot;#ababab&quot;&gt;DQ&lt;/font&gt;&lt;div style=&quot;font-size: 14px;&quot;&gt;&lt;font color=&quot;#ababab&quot;&gt;x4&lt;/font&gt;&lt;/div&gt;" style="rounded=0;whiteSpace=wrap;html=1;strokeColor=#454744;fillColor=#464646;" vertex="1" parent="1">
          <mxGeometry x="145" y="724" width="60" height="80" as="geometry" />
        </mxCell>
        <mxCell id="gDiiwQV4zZhBu72KXJR7-295" value="&lt;font style=&quot;font-size: 14px;&quot; color=&quot;#ababab&quot;&gt;DQ&lt;/font&gt;&lt;div style=&quot;font-size: 14px;&quot;&gt;&lt;font color=&quot;#ababab&quot;&gt;x4&lt;/font&gt;&lt;/div&gt;" style="rounded=0;whiteSpace=wrap;html=1;strokeColor=#454744;fillColor=#464646;" vertex="1" parent="1">
          <mxGeometry x="225" y="724" width="60" height="80" as="geometry" />
        </mxCell>
        <mxCell id="gDiiwQV4zZhBu72KXJR7-296" value="&lt;font style=&quot;font-size: 14px;&quot; color=&quot;#ababab&quot;&gt;DQ&lt;/font&gt;&lt;div style=&quot;font-size: 14px;&quot;&gt;&lt;font color=&quot;#ababab&quot;&gt;x4&lt;/font&gt;&lt;/div&gt;" style="rounded=0;whiteSpace=wrap;html=1;strokeColor=#454744;fillColor=#464646;" vertex="1" parent="1">
          <mxGeometry x="305" y="724" width="60" height="80" as="geometry" />
        </mxCell>
        <mxCell id="gDiiwQV4zZhBu72KXJR7-297" value="&lt;font style=&quot;font-size: 14px;&quot; color=&quot;#ababab&quot;&gt;ECC&lt;/font&gt;&lt;div style=&quot;font-size: 14px;&quot;&gt;&lt;font color=&quot;#ababab&quot;&gt;x4&lt;/font&gt;&lt;/div&gt;" style="rounded=0;whiteSpace=wrap;html=1;strokeColor=#454744;fillColor=#464646;" vertex="1" parent="1">
          <mxGeometry x="385" y="724" width="60" height="80" as="geometry" />
        </mxCell>
        <mxCell id="gDiiwQV4zZhBu72KXJR7-298" value="&lt;font style=&quot;font-size: 14px;&quot; color=&quot;#ababab&quot;&gt;ECC&lt;/font&gt;&lt;div style=&quot;font-size: 14px;&quot;&gt;&lt;font color=&quot;#ababab&quot;&gt;x4&lt;/font&gt;&lt;/div&gt;" style="rounded=0;whiteSpace=wrap;html=1;strokeColor=#454744;fillColor=#464646;" vertex="1" parent="1">
          <mxGeometry x="605" y="724" width="60" height="80" as="geometry" />
        </mxCell>
        <mxCell id="gDiiwQV4zZhBu72KXJR7-299" value="&lt;font style=&quot;font-size: 14px;&quot; color=&quot;#ababab&quot;&gt;DQ&lt;/font&gt;&lt;div style=&quot;font-size: 14px;&quot;&gt;&lt;font color=&quot;#ababab&quot;&gt;x4&lt;/font&gt;&lt;/div&gt;" style="rounded=0;whiteSpace=wrap;html=1;strokeColor=#454744;fillColor=#464646;" vertex="1" parent="1">
          <mxGeometry x="685" y="724" width="60" height="80" as="geometry" />
        </mxCell>
        <mxCell id="gDiiwQV4zZhBu72KXJR7-300" value="&lt;font style=&quot;font-size: 14px;&quot; color=&quot;#ababab&quot;&gt;DQ&lt;/font&gt;&lt;div style=&quot;font-size: 14px;&quot;&gt;&lt;font color=&quot;#ababab&quot;&gt;x4&lt;/font&gt;&lt;/div&gt;" style="rounded=0;whiteSpace=wrap;html=1;strokeColor=#454744;fillColor=#464646;" vertex="1" parent="1">
          <mxGeometry x="765" y="724" width="60" height="80" as="geometry" />
        </mxCell>
        <mxCell id="gDiiwQV4zZhBu72KXJR7-301" value="&lt;font style=&quot;font-size: 14px;&quot; color=&quot;#ababab&quot;&gt;DQ&lt;/font&gt;&lt;div style=&quot;font-size: 14px;&quot;&gt;&lt;font color=&quot;#ababab&quot;&gt;x4&lt;/font&gt;&lt;/div&gt;" style="rounded=0;whiteSpace=wrap;html=1;strokeColor=#454744;fillColor=#464646;" vertex="1" parent="1">
          <mxGeometry x="845" y="724" width="60" height="80" as="geometry" />
        </mxCell>
        <mxCell id="gDiiwQV4zZhBu72KXJR7-302" value="&lt;font style=&quot;font-size: 14px;&quot; color=&quot;#ababab&quot;&gt;DQ&lt;/font&gt;&lt;div style=&quot;font-size: 14px;&quot;&gt;&lt;font color=&quot;#ababab&quot;&gt;x4&lt;/font&gt;&lt;/div&gt;" style="rounded=0;whiteSpace=wrap;html=1;strokeColor=#454744;fillColor=#464646;" vertex="1" parent="1">
          <mxGeometry x="925" y="724" width="60" height="80" as="geometry" />
        </mxCell>
        <mxCell id="gDiiwQV4zZhBu72KXJR7-329" value="" style="endArrow=classic;html=1;rounded=0;strokeWidth=2;fillColor=#dae8fc;strokeColor=#6c8ebf;startArrow=classic;startFill=1;" edge="1" parent="1">
          <mxGeometry width="50" height="50" relative="1" as="geometry">
            <mxPoint x="85" y="1010" as="sourcePoint" />
            <mxPoint x="84.58" y="900" as="targetPoint" />
          </mxGeometry>
        </mxCell>
        <mxCell id="gDiiwQV4zZhBu72KXJR7-330" value="" style="endArrow=classic;html=1;rounded=0;strokeWidth=2;fillColor=#ffe6cc;strokeColor=#d79b00;startArrow=classic;startFill=1;" edge="1" parent="1">
          <mxGeometry width="50" height="50" relative="1" as="geometry">
            <mxPoint x="100" y="980" as="sourcePoint" />
            <mxPoint x="102" y="804" as="targetPoint" />
          </mxGeometry>
        </mxCell>
        <mxCell id="gDiiwQV4zZhBu72KXJR7-331" value="" style="endArrow=classic;html=1;rounded=0;strokeWidth=2;fillColor=#dae8fc;strokeColor=#6c8ebf;startArrow=classic;startFill=1;" edge="1" parent="1">
          <mxGeometry width="50" height="50" relative="1" as="geometry">
            <mxPoint x="117" y="1010" as="sourcePoint" />
            <mxPoint x="116.58" y="804" as="targetPoint" />
          </mxGeometry>
        </mxCell>
        <mxCell id="gDiiwQV4zZhBu72KXJR7-283" value="&lt;font style=&quot;font-size: 14px;&quot; color=&quot;#ababab&quot;&gt;DQ&lt;/font&gt;&lt;div style=&quot;font-size: 14px;&quot;&gt;&lt;font color=&quot;#ababab&quot;&gt;x4&lt;/font&gt;&lt;/div&gt;" style="rounded=0;whiteSpace=wrap;html=1;strokeColor=#454744;fillColor=#464646;" vertex="1" parent="1">
          <mxGeometry x="65" y="820" width="60" height="80" as="geometry" />
        </mxCell>
        <mxCell id="gDiiwQV4zZhBu72KXJR7-334" value="" style="endArrow=classic;html=1;rounded=0;strokeWidth=2;fillColor=#ffe6cc;strokeColor=#d79b00;startArrow=classic;startFill=1;" edge="1" parent="1">
          <mxGeometry width="50" height="50" relative="1" as="geometry">
            <mxPoint x="152" y="980" as="sourcePoint" />
            <mxPoint x="152.07999999999998" y="900" as="targetPoint" />
          </mxGeometry>
        </mxCell>
        <mxCell id="gDiiwQV4zZhBu72KXJR7-335" value="" style="endArrow=classic;html=1;rounded=0;strokeWidth=2;fillColor=#dae8fc;strokeColor=#6c8ebf;startArrow=classic;startFill=1;" edge="1" parent="1">
          <mxGeometry width="50" height="50" relative="1" as="geometry">
            <mxPoint x="164" y="1010" as="sourcePoint" />
            <mxPoint x="164.07999999999998" y="900" as="targetPoint" />
          </mxGeometry>
        </mxCell>
        <mxCell id="gDiiwQV4zZhBu72KXJR7-336" value="" style="endArrow=classic;html=1;rounded=0;strokeWidth=2;fillColor=#ffe6cc;strokeColor=#d79b00;startArrow=classic;startFill=1;" edge="1" parent="1">
          <mxGeometry width="50" height="50" relative="1" as="geometry">
            <mxPoint x="180" y="980" as="sourcePoint" />
            <mxPoint x="182.5" y="804" as="targetPoint" />
          </mxGeometry>
        </mxCell>
        <mxCell id="gDiiwQV4zZhBu72KXJR7-337" value="" style="endArrow=classic;html=1;rounded=0;strokeWidth=2;fillColor=#dae8fc;strokeColor=#6c8ebf;startArrow=classic;startFill=1;" edge="1" parent="1">
          <mxGeometry width="50" height="50" relative="1" as="geometry">
            <mxPoint x="197" y="1010" as="sourcePoint" />
            <mxPoint x="197.07999999999998" y="804" as="targetPoint" />
          </mxGeometry>
        </mxCell>
        <mxCell id="gDiiwQV4zZhBu72KXJR7-338" value="" style="endArrow=classic;html=1;rounded=0;strokeWidth=2;fillColor=#ffe6cc;strokeColor=#d79b00;startArrow=classic;startFill=1;" edge="1" parent="1">
          <mxGeometry width="50" height="50" relative="1" as="geometry">
            <mxPoint x="232" y="980" as="sourcePoint" />
            <mxPoint x="232.07999999999998" y="900" as="targetPoint" />
          </mxGeometry>
        </mxCell>
        <mxCell id="gDiiwQV4zZhBu72KXJR7-339" value="" style="endArrow=classic;html=1;rounded=0;strokeWidth=2;fillColor=#dae8fc;strokeColor=#6c8ebf;startArrow=classic;startFill=1;" edge="1" parent="1">
          <mxGeometry width="50" height="50" relative="1" as="geometry">
            <mxPoint x="245" y="1010" as="sourcePoint" />
            <mxPoint x="245.07999999999998" y="900" as="targetPoint" />
          </mxGeometry>
        </mxCell>
        <mxCell id="gDiiwQV4zZhBu72KXJR7-340" value="" style="endArrow=classic;html=1;rounded=0;strokeWidth=2;fillColor=#ffe6cc;strokeColor=#d79b00;startArrow=classic;startFill=1;" edge="1" parent="1">
          <mxGeometry width="50" height="50" relative="1" as="geometry">
            <mxPoint x="261" y="980" as="sourcePoint" />
            <mxPoint x="262.5" y="804" as="targetPoint" />
          </mxGeometry>
        </mxCell>
        <mxCell id="gDiiwQV4zZhBu72KXJR7-341" value="" style="endArrow=classic;html=1;rounded=0;strokeWidth=2;fillColor=#dae8fc;strokeColor=#6c8ebf;startArrow=classic;startFill=1;" edge="1" parent="1">
          <mxGeometry width="50" height="50" relative="1" as="geometry">
            <mxPoint x="277" y="1010" as="sourcePoint" />
            <mxPoint x="277.08" y="804" as="targetPoint" />
          </mxGeometry>
        </mxCell>
        <mxCell id="gDiiwQV4zZhBu72KXJR7-342" value="" style="endArrow=classic;html=1;rounded=0;strokeWidth=2;fillColor=#ffe6cc;strokeColor=#d79b00;startArrow=classic;startFill=1;" edge="1" parent="1">
          <mxGeometry width="50" height="50" relative="1" as="geometry">
            <mxPoint x="312" y="980" as="sourcePoint" />
            <mxPoint x="312.08" y="900" as="targetPoint" />
          </mxGeometry>
        </mxCell>
        <mxCell id="gDiiwQV4zZhBu72KXJR7-343" value="" style="endArrow=classic;html=1;rounded=0;strokeWidth=2;fillColor=#dae8fc;strokeColor=#6c8ebf;startArrow=classic;startFill=1;" edge="1" parent="1">
          <mxGeometry width="50" height="50" relative="1" as="geometry">
            <mxPoint x="325" y="1010" as="sourcePoint" />
            <mxPoint x="325.08" y="900" as="targetPoint" />
          </mxGeometry>
        </mxCell>
        <mxCell id="gDiiwQV4zZhBu72KXJR7-344" value="" style="endArrow=classic;html=1;rounded=0;strokeWidth=2;fillColor=#ffe6cc;strokeColor=#d79b00;startArrow=classic;startFill=1;" edge="1" parent="1">
          <mxGeometry width="50" height="50" relative="1" as="geometry">
            <mxPoint x="341" y="980" as="sourcePoint" />
            <mxPoint x="342.5" y="804" as="targetPoint" />
          </mxGeometry>
        </mxCell>
        <mxCell id="gDiiwQV4zZhBu72KXJR7-345" value="" style="endArrow=classic;html=1;rounded=0;strokeWidth=2;fillColor=#dae8fc;strokeColor=#6c8ebf;startArrow=classic;startFill=1;" edge="1" parent="1">
          <mxGeometry width="50" height="50" relative="1" as="geometry">
            <mxPoint x="357" y="1010" as="sourcePoint" />
            <mxPoint x="357.08" y="804" as="targetPoint" />
          </mxGeometry>
        </mxCell>
        <mxCell id="gDiiwQV4zZhBu72KXJR7-346" value="" style="endArrow=classic;html=1;rounded=0;strokeWidth=2;fillColor=#ffe6cc;strokeColor=#d79b00;startArrow=classic;startFill=1;" edge="1" parent="1">
          <mxGeometry width="50" height="50" relative="1" as="geometry">
            <mxPoint x="392" y="980" as="sourcePoint" />
            <mxPoint x="392.08" y="900" as="targetPoint" />
          </mxGeometry>
        </mxCell>
        <mxCell id="gDiiwQV4zZhBu72KXJR7-347" value="" style="endArrow=classic;html=1;rounded=0;strokeWidth=2;fillColor=#dae8fc;strokeColor=#6c8ebf;startArrow=classic;startFill=1;" edge="1" parent="1">
          <mxGeometry width="50" height="50" relative="1" as="geometry">
            <mxPoint x="405" y="1010" as="sourcePoint" />
            <mxPoint x="405.08" y="900" as="targetPoint" />
          </mxGeometry>
        </mxCell>
        <mxCell id="gDiiwQV4zZhBu72KXJR7-348" value="" style="endArrow=classic;html=1;rounded=0;strokeWidth=2;fillColor=#ffe6cc;strokeColor=#d79b00;startArrow=classic;startFill=1;" edge="1" parent="1">
          <mxGeometry width="50" height="50" relative="1" as="geometry">
            <mxPoint x="421" y="980" as="sourcePoint" />
            <mxPoint x="422.5" y="804" as="targetPoint" />
          </mxGeometry>
        </mxCell>
        <mxCell id="gDiiwQV4zZhBu72KXJR7-349" value="" style="endArrow=classic;html=1;rounded=0;strokeWidth=2;fillColor=#dae8fc;strokeColor=#6c8ebf;startArrow=classic;startFill=1;" edge="1" parent="1">
          <mxGeometry width="50" height="50" relative="1" as="geometry">
            <mxPoint x="437" y="1010" as="sourcePoint" />
            <mxPoint x="437.08" y="804" as="targetPoint" />
          </mxGeometry>
        </mxCell>
        <mxCell id="gDiiwQV4zZhBu72KXJR7-350" value="" style="endArrow=classic;html=1;rounded=0;strokeWidth=2;fillColor=#ffe6cc;strokeColor=#d79b00;startArrow=classic;startFill=1;" edge="1" parent="1">
          <mxGeometry width="50" height="50" relative="1" as="geometry">
            <mxPoint x="612" y="980" as="sourcePoint" />
            <mxPoint x="611.83" y="900" as="targetPoint" />
          </mxGeometry>
        </mxCell>
        <mxCell id="gDiiwQV4zZhBu72KXJR7-351" value="" style="endArrow=classic;html=1;rounded=0;strokeWidth=2;fillColor=#dae8fc;strokeColor=#6c8ebf;startArrow=classic;startFill=1;" edge="1" parent="1">
          <mxGeometry width="50" height="50" relative="1" as="geometry">
            <mxPoint x="625" y="1010" as="sourcePoint" />
            <mxPoint x="624.83" y="900" as="targetPoint" />
          </mxGeometry>
        </mxCell>
        <mxCell id="gDiiwQV4zZhBu72KXJR7-352" value="" style="endArrow=classic;html=1;rounded=0;strokeWidth=2;fillColor=#ffe6cc;strokeColor=#d79b00;startArrow=classic;startFill=1;" edge="1" parent="1">
          <mxGeometry width="50" height="50" relative="1" as="geometry">
            <mxPoint x="640" y="980" as="sourcePoint" />
            <mxPoint x="642.25" y="804" as="targetPoint" />
          </mxGeometry>
        </mxCell>
        <mxCell id="gDiiwQV4zZhBu72KXJR7-353" value="" style="endArrow=classic;html=1;rounded=0;strokeWidth=2;fillColor=#dae8fc;strokeColor=#6c8ebf;startArrow=classic;startFill=1;" edge="1" parent="1">
          <mxGeometry width="50" height="50" relative="1" as="geometry">
            <mxPoint x="657" y="1010" as="sourcePoint" />
            <mxPoint x="656.83" y="804" as="targetPoint" />
          </mxGeometry>
        </mxCell>
        <mxCell id="gDiiwQV4zZhBu72KXJR7-354" value="" style="endArrow=classic;html=1;rounded=0;strokeWidth=2;fillColor=#ffe6cc;strokeColor=#d79b00;startArrow=classic;startFill=1;" edge="1" parent="1">
          <mxGeometry width="50" height="50" relative="1" as="geometry">
            <mxPoint x="692" y="980" as="sourcePoint" />
            <mxPoint x="692.3299999999999" y="900" as="targetPoint" />
          </mxGeometry>
        </mxCell>
        <mxCell id="gDiiwQV4zZhBu72KXJR7-355" value="" style="endArrow=classic;html=1;rounded=0;strokeWidth=2;fillColor=#dae8fc;strokeColor=#6c8ebf;startArrow=classic;startFill=1;" edge="1" parent="1">
          <mxGeometry width="50" height="50" relative="1" as="geometry">
            <mxPoint x="705" y="1010" as="sourcePoint" />
            <mxPoint x="705.3299999999999" y="900" as="targetPoint" />
          </mxGeometry>
        </mxCell>
        <mxCell id="gDiiwQV4zZhBu72KXJR7-356" value="" style="endArrow=classic;html=1;rounded=0;strokeWidth=2;fillColor=#ffe6cc;strokeColor=#d79b00;startArrow=classic;startFill=1;" edge="1" parent="1">
          <mxGeometry width="50" height="50" relative="1" as="geometry">
            <mxPoint x="720" y="980" as="sourcePoint" />
            <mxPoint x="722.75" y="804" as="targetPoint" />
          </mxGeometry>
        </mxCell>
        <mxCell id="gDiiwQV4zZhBu72KXJR7-357" value="" style="endArrow=classic;html=1;rounded=0;strokeWidth=2;fillColor=#dae8fc;strokeColor=#6c8ebf;startArrow=classic;startFill=1;" edge="1" parent="1">
          <mxGeometry width="50" height="50" relative="1" as="geometry">
            <mxPoint x="737" y="1010" as="sourcePoint" />
            <mxPoint x="737.3299999999999" y="804" as="targetPoint" />
          </mxGeometry>
        </mxCell>
        <mxCell id="gDiiwQV4zZhBu72KXJR7-358" value="" style="endArrow=classic;html=1;rounded=0;strokeWidth=2;fillColor=#ffe6cc;strokeColor=#d79b00;startArrow=classic;startFill=1;" edge="1" parent="1">
          <mxGeometry width="50" height="50" relative="1" as="geometry">
            <mxPoint x="772" y="980" as="sourcePoint" />
            <mxPoint x="772.3299999999999" y="900" as="targetPoint" />
          </mxGeometry>
        </mxCell>
        <mxCell id="gDiiwQV4zZhBu72KXJR7-359" value="" style="endArrow=classic;html=1;rounded=0;strokeWidth=2;fillColor=#dae8fc;strokeColor=#6c8ebf;startArrow=classic;startFill=1;" edge="1" parent="1">
          <mxGeometry width="50" height="50" relative="1" as="geometry">
            <mxPoint x="785" y="1010" as="sourcePoint" />
            <mxPoint x="785.3299999999999" y="900" as="targetPoint" />
          </mxGeometry>
        </mxCell>
        <mxCell id="gDiiwQV4zZhBu72KXJR7-360" value="" style="endArrow=classic;html=1;rounded=0;strokeWidth=2;fillColor=#ffe6cc;strokeColor=#d79b00;startArrow=classic;startFill=1;" edge="1" parent="1">
          <mxGeometry width="50" height="50" relative="1" as="geometry">
            <mxPoint x="801" y="980" as="sourcePoint" />
            <mxPoint x="802.75" y="804" as="targetPoint" />
          </mxGeometry>
        </mxCell>
        <mxCell id="gDiiwQV4zZhBu72KXJR7-361" value="" style="endArrow=classic;html=1;rounded=0;strokeWidth=2;fillColor=#dae8fc;strokeColor=#6c8ebf;startArrow=classic;startFill=1;" edge="1" parent="1">
          <mxGeometry width="50" height="50" relative="1" as="geometry">
            <mxPoint x="817" y="1010" as="sourcePoint" />
            <mxPoint x="817.3299999999999" y="804" as="targetPoint" />
          </mxGeometry>
        </mxCell>
        <mxCell id="gDiiwQV4zZhBu72KXJR7-362" value="" style="endArrow=classic;html=1;rounded=0;strokeWidth=2;fillColor=#ffe6cc;strokeColor=#d79b00;startArrow=classic;startFill=1;" edge="1" parent="1">
          <mxGeometry width="50" height="50" relative="1" as="geometry">
            <mxPoint x="852" y="980" as="sourcePoint" />
            <mxPoint x="852.3299999999999" y="900" as="targetPoint" />
          </mxGeometry>
        </mxCell>
        <mxCell id="gDiiwQV4zZhBu72KXJR7-363" value="" style="endArrow=classic;html=1;rounded=0;strokeWidth=2;fillColor=#dae8fc;strokeColor=#6c8ebf;startArrow=classic;startFill=1;" edge="1" parent="1">
          <mxGeometry width="50" height="50" relative="1" as="geometry">
            <mxPoint x="865" y="1010" as="sourcePoint" />
            <mxPoint x="865.3299999999999" y="900" as="targetPoint" />
          </mxGeometry>
        </mxCell>
        <mxCell id="gDiiwQV4zZhBu72KXJR7-364" value="" style="endArrow=classic;html=1;rounded=0;strokeWidth=2;fillColor=#ffe6cc;strokeColor=#d79b00;startArrow=classic;startFill=1;" edge="1" parent="1">
          <mxGeometry width="50" height="50" relative="1" as="geometry">
            <mxPoint x="880" y="980" as="sourcePoint" />
            <mxPoint x="882.75" y="804" as="targetPoint" />
          </mxGeometry>
        </mxCell>
        <mxCell id="gDiiwQV4zZhBu72KXJR7-365" value="" style="endArrow=classic;html=1;rounded=0;strokeWidth=2;fillColor=#dae8fc;strokeColor=#6c8ebf;startArrow=classic;startFill=1;" edge="1" parent="1">
          <mxGeometry width="50" height="50" relative="1" as="geometry">
            <mxPoint x="897" y="1010" as="sourcePoint" />
            <mxPoint x="897.3299999999999" y="804" as="targetPoint" />
          </mxGeometry>
        </mxCell>
        <mxCell id="gDiiwQV4zZhBu72KXJR7-366" value="" style="endArrow=classic;html=1;rounded=0;strokeWidth=2;fillColor=#ffe6cc;strokeColor=#d79b00;startArrow=classic;startFill=1;" edge="1" parent="1">
          <mxGeometry width="50" height="50" relative="1" as="geometry">
            <mxPoint x="932" y="980" as="sourcePoint" />
            <mxPoint x="932.3299999999999" y="900" as="targetPoint" />
          </mxGeometry>
        </mxCell>
        <mxCell id="gDiiwQV4zZhBu72KXJR7-367" value="" style="endArrow=classic;html=1;rounded=0;strokeWidth=2;fillColor=#dae8fc;strokeColor=#6c8ebf;startArrow=classic;startFill=1;" edge="1" parent="1">
          <mxGeometry width="50" height="50" relative="1" as="geometry">
            <mxPoint x="945" y="1010" as="sourcePoint" />
            <mxPoint x="945.3299999999999" y="900" as="targetPoint" />
          </mxGeometry>
        </mxCell>
        <mxCell id="gDiiwQV4zZhBu72KXJR7-368" value="" style="endArrow=classic;html=1;rounded=0;strokeWidth=2;fillColor=#ffe6cc;strokeColor=#d79b00;startArrow=classic;startFill=1;" edge="1" parent="1">
          <mxGeometry width="50" height="50" relative="1" as="geometry">
            <mxPoint x="961" y="980" as="sourcePoint" />
            <mxPoint x="962.75" y="804" as="targetPoint" />
          </mxGeometry>
        </mxCell>
        <mxCell id="gDiiwQV4zZhBu72KXJR7-369" value="" style="endArrow=classic;html=1;rounded=0;strokeWidth=2;fillColor=#dae8fc;strokeColor=#6c8ebf;startArrow=classic;startFill=1;" edge="1" parent="1">
          <mxGeometry width="50" height="50" relative="1" as="geometry">
            <mxPoint x="977" y="1010" as="sourcePoint" />
            <mxPoint x="977.3299999999999" y="804" as="targetPoint" />
          </mxGeometry>
        </mxCell>
        <mxCell id="gDiiwQV4zZhBu72KXJR7-284" value="&lt;font style=&quot;font-size: 14px;&quot; color=&quot;#ababab&quot;&gt;DQ&lt;/font&gt;&lt;div style=&quot;font-size: 14px;&quot;&gt;&lt;font color=&quot;#ababab&quot;&gt;x4&lt;/font&gt;&lt;/div&gt;" style="rounded=0;whiteSpace=wrap;html=1;strokeColor=#454744;fillColor=#464646;" vertex="1" parent="1">
          <mxGeometry x="145" y="820" width="60" height="80" as="geometry" />
        </mxCell>
        <mxCell id="gDiiwQV4zZhBu72KXJR7-285" value="&lt;font style=&quot;font-size: 14px;&quot; color=&quot;#ababab&quot;&gt;DQ&lt;/font&gt;&lt;div style=&quot;font-size: 14px;&quot;&gt;&lt;font color=&quot;#ababab&quot;&gt;x4&lt;/font&gt;&lt;/div&gt;" style="rounded=0;whiteSpace=wrap;html=1;strokeColor=#454744;fillColor=#464646;" vertex="1" parent="1">
          <mxGeometry x="225" y="820" width="60" height="80" as="geometry" />
        </mxCell>
        <mxCell id="gDiiwQV4zZhBu72KXJR7-286" value="&lt;font style=&quot;font-size: 14px;&quot; color=&quot;#ababab&quot;&gt;DQ&lt;/font&gt;&lt;div style=&quot;font-size: 14px;&quot;&gt;&lt;font color=&quot;#ababab&quot;&gt;x4&lt;/font&gt;&lt;/div&gt;" style="rounded=0;whiteSpace=wrap;html=1;strokeColor=#454744;fillColor=#464646;" vertex="1" parent="1">
          <mxGeometry x="305" y="820" width="60" height="80" as="geometry" />
        </mxCell>
        <mxCell id="gDiiwQV4zZhBu72KXJR7-287" value="&lt;font style=&quot;font-size: 14px;&quot; color=&quot;#ababab&quot;&gt;ECC&lt;/font&gt;&lt;div style=&quot;font-size: 14px;&quot;&gt;&lt;font color=&quot;#ababab&quot;&gt;x4&lt;/font&gt;&lt;/div&gt;" style="rounded=0;whiteSpace=wrap;html=1;strokeColor=#454744;fillColor=#464646;" vertex="1" parent="1">
          <mxGeometry x="385" y="820" width="60" height="80" as="geometry" />
        </mxCell>
        <mxCell id="gDiiwQV4zZhBu72KXJR7-288" value="&lt;font style=&quot;font-size: 14px;&quot; color=&quot;#ababab&quot;&gt;ECC&lt;/font&gt;&lt;div style=&quot;font-size: 14px;&quot;&gt;&lt;font color=&quot;#ababab&quot;&gt;x4&lt;/font&gt;&lt;/div&gt;" style="rounded=0;whiteSpace=wrap;html=1;strokeColor=#454744;fillColor=#464646;" vertex="1" parent="1">
          <mxGeometry x="605" y="820" width="60" height="80" as="geometry" />
        </mxCell>
        <mxCell id="gDiiwQV4zZhBu72KXJR7-289" value="&lt;font style=&quot;font-size: 14px;&quot; color=&quot;#ababab&quot;&gt;DQ&lt;/font&gt;&lt;div style=&quot;font-size: 14px;&quot;&gt;&lt;font color=&quot;#ababab&quot;&gt;x4&lt;/font&gt;&lt;/div&gt;" style="rounded=0;whiteSpace=wrap;html=1;strokeColor=#454744;fillColor=#464646;" vertex="1" parent="1">
          <mxGeometry x="685" y="820" width="60" height="80" as="geometry" />
        </mxCell>
        <mxCell id="gDiiwQV4zZhBu72KXJR7-290" value="&lt;font style=&quot;font-size: 14px;&quot; color=&quot;#ababab&quot;&gt;DQ&lt;/font&gt;&lt;div style=&quot;font-size: 14px;&quot;&gt;&lt;font color=&quot;#ababab&quot;&gt;x4&lt;/font&gt;&lt;/div&gt;" style="rounded=0;whiteSpace=wrap;html=1;strokeColor=#454744;fillColor=#464646;" vertex="1" parent="1">
          <mxGeometry x="765" y="820" width="60" height="80" as="geometry" />
        </mxCell>
        <mxCell id="gDiiwQV4zZhBu72KXJR7-291" value="&lt;font style=&quot;font-size: 14px;&quot; color=&quot;#ababab&quot;&gt;DQ&lt;/font&gt;&lt;div style=&quot;font-size: 14px;&quot;&gt;&lt;font color=&quot;#ababab&quot;&gt;x4&lt;/font&gt;&lt;/div&gt;" style="rounded=0;whiteSpace=wrap;html=1;strokeColor=#454744;fillColor=#464646;" vertex="1" parent="1">
          <mxGeometry x="845" y="820" width="60" height="80" as="geometry" />
        </mxCell>
        <mxCell id="gDiiwQV4zZhBu72KXJR7-292" value="&lt;font style=&quot;font-size: 14px;&quot; color=&quot;#ababab&quot;&gt;DQ&lt;/font&gt;&lt;div style=&quot;font-size: 14px;&quot;&gt;&lt;font color=&quot;#ababab&quot;&gt;x4&lt;/font&gt;&lt;/div&gt;" style="rounded=0;whiteSpace=wrap;html=1;strokeColor=#454744;fillColor=#464646;" vertex="1" parent="1">
          <mxGeometry x="925" y="820" width="60" height="80" as="geometry" />
        </mxCell>
        <mxCell id="gDiiwQV4zZhBu72KXJR7-370" value="" style="endArrow=classic;html=1;rounded=0;strokeWidth=2;fillColor=#ffe6cc;strokeColor=#d79b00;startArrow=classic;startFill=1;" edge="1" parent="1">
          <mxGeometry width="50" height="50" relative="1" as="geometry">
            <mxPoint x="80" y="1070" as="sourcePoint" />
            <mxPoint x="169.57999999999998" y="1070" as="targetPoint" />
          </mxGeometry>
        </mxCell>
        <mxCell id="gDiiwQV4zZhBu72KXJR7-371" value="" style="endArrow=classic;html=1;rounded=0;strokeWidth=2;fillColor=#dae8fc;strokeColor=#6c8ebf;startArrow=classic;startFill=1;" edge="1" parent="1">
          <mxGeometry width="50" height="50" relative="1" as="geometry">
            <mxPoint x="80" y="1110" as="sourcePoint" />
            <mxPoint x="169.57999999999998" y="1110" as="targetPoint" />
          </mxGeometry>
        </mxCell>
        <mxCell id="gDiiwQV4zZhBu72KXJR7-372" value="Data Strobe" style="text;html=1;align=center;verticalAlign=middle;whiteSpace=wrap;rounded=0;fontSize=14;fontStyle=1;fillColor=#ffe6cc;strokeColor=#d79b00;" vertex="1" parent="1">
          <mxGeometry x="170" y="1053" width="160" height="30" as="geometry" />
        </mxCell>
        <mxCell id="gDiiwQV4zZhBu72KXJR7-373" value="Data" style="text;html=1;align=center;verticalAlign=middle;whiteSpace=wrap;rounded=0;fontSize=14;fontStyle=1;fillColor=#dae8fc;strokeColor=#6c8ebf;" vertex="1" parent="1">
          <mxGeometry x="170" y="1093" width="160" height="30" as="geometry" />
        </mxCell>
        <mxCell id="gDiiwQV4zZhBu72KXJR7-376" value="" style="endArrow=classic;html=1;rounded=0;strokeWidth=4;fillColor=#ffe6cc;strokeColor=#d79b00;startArrow=classic;startFill=1;" edge="1" parent="1">
          <mxGeometry width="50" height="50" relative="1" as="geometry">
            <mxPoint x="500" y="1050" as="sourcePoint" />
            <mxPoint x="500" y="980" as="targetPoint" />
          </mxGeometry>
        </mxCell>
        <mxCell id="gDiiwQV4zZhBu72KXJR7-377" value="" style="endArrow=classic;html=1;rounded=0;strokeWidth=4;fillColor=#dae8fc;strokeColor=#6c8ebf;startArrow=classic;startFill=1;" edge="1" parent="1">
          <mxGeometry width="50" height="50" relative="1" as="geometry">
            <mxPoint x="555" y="1050" as="sourcePoint" />
            <mxPoint x="555" y="1010" as="targetPoint" />
          </mxGeometry>
        </mxCell>
        <mxCell id="gDiiwQV4zZhBu72KXJR7-378" value="" style="endArrow=none;html=1;rounded=0;strokeWidth=3;fillColor=#ffe6cc;strokeColor=#d79b00;startArrow=none;startFill=0;endFill=0;" edge="1" parent="1">
          <mxGeometry width="50" height="50" relative="1" as="geometry">
            <mxPoint x="70.42" y="980" as="sourcePoint" />
            <mxPoint x="960" y="980" as="targetPoint" />
          </mxGeometry>
        </mxCell>
        <mxCell id="gDiiwQV4zZhBu72KXJR7-379" value="" style="endArrow=none;html=1;rounded=0;strokeWidth=3;fillColor=#dae8fc;strokeColor=#6c8ebf;startArrow=none;startFill=0;endFill=0;" edge="1" parent="1">
          <mxGeometry width="50" height="50" relative="1" as="geometry">
            <mxPoint x="85" y="1010" as="sourcePoint" />
            <mxPoint x="979.58" y="1010" as="targetPoint" />
          </mxGeometry>
        </mxCell>
        <mxCell id="gDiiwQV4zZhBu72KXJR7-381" value="" style="rounded=0;whiteSpace=wrap;html=1;fillColor=#2e7956;" vertex="1" parent="1">
          <mxGeometry x="25" y="1190" width="990" height="260" as="geometry" />
        </mxCell>
        <mxCell id="gDiiwQV4zZhBu72KXJR7-382" value="" style="rounded=0;whiteSpace=wrap;html=1;fillColor=#e5dc7b;" vertex="1" parent="1">
          <mxGeometry x="55" y="1430" width="10" height="20" as="geometry" />
        </mxCell>
        <mxCell id="gDiiwQV4zZhBu72KXJR7-383" value="" style="rounded=0;whiteSpace=wrap;html=1;fillColor=#e5dc7b;" vertex="1" parent="1">
          <mxGeometry x="65" y="1430" width="10" height="20" as="geometry" />
        </mxCell>
        <mxCell id="gDiiwQV4zZhBu72KXJR7-384" value="" style="rounded=0;whiteSpace=wrap;html=1;fillColor=#e5dc7b;" vertex="1" parent="1">
          <mxGeometry x="75" y="1430" width="10" height="20" as="geometry" />
        </mxCell>
        <mxCell id="gDiiwQV4zZhBu72KXJR7-385" value="" style="rounded=0;whiteSpace=wrap;html=1;fillColor=#e5dc7b;" vertex="1" parent="1">
          <mxGeometry x="85" y="1430" width="10" height="20" as="geometry" />
        </mxCell>
        <mxCell id="gDiiwQV4zZhBu72KXJR7-386" value="" style="rounded=0;whiteSpace=wrap;html=1;fillColor=#e5dc7b;" vertex="1" parent="1">
          <mxGeometry x="95" y="1430" width="10" height="20" as="geometry" />
        </mxCell>
        <mxCell id="gDiiwQV4zZhBu72KXJR7-387" value="" style="rounded=0;whiteSpace=wrap;html=1;fillColor=#e5dc7b;" vertex="1" parent="1">
          <mxGeometry x="105" y="1430" width="10" height="20" as="geometry" />
        </mxCell>
        <mxCell id="gDiiwQV4zZhBu72KXJR7-388" value="" style="rounded=0;whiteSpace=wrap;html=1;fillColor=#e5dc7b;" vertex="1" parent="1">
          <mxGeometry x="115" y="1430" width="10" height="20" as="geometry" />
        </mxCell>
        <mxCell id="gDiiwQV4zZhBu72KXJR7-389" value="" style="rounded=0;whiteSpace=wrap;html=1;fillColor=#e5dc7b;" vertex="1" parent="1">
          <mxGeometry x="125" y="1430" width="10" height="20" as="geometry" />
        </mxCell>
        <mxCell id="gDiiwQV4zZhBu72KXJR7-390" value="" style="rounded=0;whiteSpace=wrap;html=1;fillColor=#e5dc7b;" vertex="1" parent="1">
          <mxGeometry x="135" y="1430" width="10" height="20" as="geometry" />
        </mxCell>
        <mxCell id="gDiiwQV4zZhBu72KXJR7-391" value="" style="rounded=0;whiteSpace=wrap;html=1;fillColor=#e5dc7b;" vertex="1" parent="1">
          <mxGeometry x="145" y="1430" width="10" height="20" as="geometry" />
        </mxCell>
        <mxCell id="gDiiwQV4zZhBu72KXJR7-392" value="" style="rounded=0;whiteSpace=wrap;html=1;fillColor=#e5dc7b;" vertex="1" parent="1">
          <mxGeometry x="155" y="1430" width="10" height="20" as="geometry" />
        </mxCell>
        <mxCell id="gDiiwQV4zZhBu72KXJR7-393" value="" style="rounded=0;whiteSpace=wrap;html=1;fillColor=#e5dc7b;" vertex="1" parent="1">
          <mxGeometry x="165" y="1430" width="10" height="20" as="geometry" />
        </mxCell>
        <mxCell id="gDiiwQV4zZhBu72KXJR7-394" value="" style="rounded=0;whiteSpace=wrap;html=1;fillColor=#e5dc7b;" vertex="1" parent="1">
          <mxGeometry x="175" y="1430" width="10" height="20" as="geometry" />
        </mxCell>
        <mxCell id="gDiiwQV4zZhBu72KXJR7-395" value="" style="rounded=0;whiteSpace=wrap;html=1;fillColor=#e5dc7b;" vertex="1" parent="1">
          <mxGeometry x="185" y="1430" width="10" height="20" as="geometry" />
        </mxCell>
        <mxCell id="gDiiwQV4zZhBu72KXJR7-396" value="" style="rounded=0;whiteSpace=wrap;html=1;fillColor=#e5dc7b;" vertex="1" parent="1">
          <mxGeometry x="195" y="1430" width="10" height="20" as="geometry" />
        </mxCell>
        <mxCell id="gDiiwQV4zZhBu72KXJR7-397" value="" style="rounded=0;whiteSpace=wrap;html=1;fillColor=#e5dc7b;" vertex="1" parent="1">
          <mxGeometry x="205" y="1430" width="10" height="20" as="geometry" />
        </mxCell>
        <mxCell id="gDiiwQV4zZhBu72KXJR7-398" value="" style="rounded=0;whiteSpace=wrap;html=1;fillColor=#e5dc7b;" vertex="1" parent="1">
          <mxGeometry x="215" y="1430" width="10" height="20" as="geometry" />
        </mxCell>
        <mxCell id="gDiiwQV4zZhBu72KXJR7-399" value="" style="rounded=0;whiteSpace=wrap;html=1;fillColor=#e5dc7b;" vertex="1" parent="1">
          <mxGeometry x="225" y="1430" width="10" height="20" as="geometry" />
        </mxCell>
        <mxCell id="gDiiwQV4zZhBu72KXJR7-400" value="" style="rounded=0;whiteSpace=wrap;html=1;fillColor=#e5dc7b;" vertex="1" parent="1">
          <mxGeometry x="235" y="1430" width="10" height="20" as="geometry" />
        </mxCell>
        <mxCell id="gDiiwQV4zZhBu72KXJR7-401" value="" style="rounded=0;whiteSpace=wrap;html=1;fillColor=#e5dc7b;" vertex="1" parent="1">
          <mxGeometry x="245" y="1430" width="10" height="20" as="geometry" />
        </mxCell>
        <mxCell id="gDiiwQV4zZhBu72KXJR7-402" value="" style="rounded=0;whiteSpace=wrap;html=1;fillColor=#e5dc7b;" vertex="1" parent="1">
          <mxGeometry x="255" y="1430" width="10" height="20" as="geometry" />
        </mxCell>
        <mxCell id="gDiiwQV4zZhBu72KXJR7-403" value="" style="rounded=0;whiteSpace=wrap;html=1;fillColor=#e5dc7b;" vertex="1" parent="1">
          <mxGeometry x="265" y="1430" width="10" height="20" as="geometry" />
        </mxCell>
        <mxCell id="gDiiwQV4zZhBu72KXJR7-404" value="" style="rounded=0;whiteSpace=wrap;html=1;fillColor=#e5dc7b;" vertex="1" parent="1">
          <mxGeometry x="275" y="1430" width="10" height="20" as="geometry" />
        </mxCell>
        <mxCell id="gDiiwQV4zZhBu72KXJR7-405" value="" style="rounded=0;whiteSpace=wrap;html=1;fillColor=#e5dc7b;" vertex="1" parent="1">
          <mxGeometry x="285" y="1430" width="10" height="20" as="geometry" />
        </mxCell>
        <mxCell id="gDiiwQV4zZhBu72KXJR7-406" value="" style="rounded=0;whiteSpace=wrap;html=1;fillColor=#e5dc7b;" vertex="1" parent="1">
          <mxGeometry x="295" y="1430" width="10" height="20" as="geometry" />
        </mxCell>
        <mxCell id="gDiiwQV4zZhBu72KXJR7-407" value="" style="rounded=0;whiteSpace=wrap;html=1;fillColor=#e5dc7b;" vertex="1" parent="1">
          <mxGeometry x="305" y="1430" width="10" height="20" as="geometry" />
        </mxCell>
        <mxCell id="gDiiwQV4zZhBu72KXJR7-408" value="" style="rounded=0;whiteSpace=wrap;html=1;fillColor=#e5dc7b;" vertex="1" parent="1">
          <mxGeometry x="315" y="1430" width="10" height="20" as="geometry" />
        </mxCell>
        <mxCell id="gDiiwQV4zZhBu72KXJR7-409" value="" style="rounded=0;whiteSpace=wrap;html=1;fillColor=#e5dc7b;" vertex="1" parent="1">
          <mxGeometry x="325" y="1430" width="10" height="20" as="geometry" />
        </mxCell>
        <mxCell id="gDiiwQV4zZhBu72KXJR7-410" value="" style="rounded=0;whiteSpace=wrap;html=1;fillColor=#e5dc7b;" vertex="1" parent="1">
          <mxGeometry x="335" y="1430" width="10" height="20" as="geometry" />
        </mxCell>
        <mxCell id="gDiiwQV4zZhBu72KXJR7-411" value="" style="rounded=0;whiteSpace=wrap;html=1;fillColor=#e5dc7b;" vertex="1" parent="1">
          <mxGeometry x="345" y="1430" width="10" height="20" as="geometry" />
        </mxCell>
        <mxCell id="gDiiwQV4zZhBu72KXJR7-412" value="" style="rounded=0;whiteSpace=wrap;html=1;fillColor=#e5dc7b;" vertex="1" parent="1">
          <mxGeometry x="355" y="1430" width="10" height="20" as="geometry" />
        </mxCell>
        <mxCell id="gDiiwQV4zZhBu72KXJR7-413" value="" style="rounded=0;whiteSpace=wrap;html=1;fillColor=#e5dc7b;" vertex="1" parent="1">
          <mxGeometry x="365" y="1430" width="10" height="20" as="geometry" />
        </mxCell>
        <mxCell id="gDiiwQV4zZhBu72KXJR7-414" value="" style="rounded=0;whiteSpace=wrap;html=1;fillColor=#e5dc7b;" vertex="1" parent="1">
          <mxGeometry x="375" y="1430" width="10" height="20" as="geometry" />
        </mxCell>
        <mxCell id="gDiiwQV4zZhBu72KXJR7-415" value="" style="rounded=0;whiteSpace=wrap;html=1;fillColor=#e5dc7b;" vertex="1" parent="1">
          <mxGeometry x="385" y="1430" width="10" height="20" as="geometry" />
        </mxCell>
        <mxCell id="gDiiwQV4zZhBu72KXJR7-416" value="" style="rounded=0;whiteSpace=wrap;html=1;fillColor=#e5dc7b;" vertex="1" parent="1">
          <mxGeometry x="395" y="1430" width="10" height="20" as="geometry" />
        </mxCell>
        <mxCell id="gDiiwQV4zZhBu72KXJR7-417" value="" style="rounded=0;whiteSpace=wrap;html=1;fillColor=#e5dc7b;" vertex="1" parent="1">
          <mxGeometry x="405" y="1430" width="10" height="20" as="geometry" />
        </mxCell>
        <mxCell id="gDiiwQV4zZhBu72KXJR7-418" value="" style="rounded=0;whiteSpace=wrap;html=1;fillColor=#e5dc7b;" vertex="1" parent="1">
          <mxGeometry x="415" y="1430" width="10" height="20" as="geometry" />
        </mxCell>
        <mxCell id="gDiiwQV4zZhBu72KXJR7-419" value="" style="rounded=0;whiteSpace=wrap;html=1;fillColor=#e5dc7b;" vertex="1" parent="1">
          <mxGeometry x="425" y="1430" width="10" height="20" as="geometry" />
        </mxCell>
        <mxCell id="gDiiwQV4zZhBu72KXJR7-420" value="" style="rounded=0;whiteSpace=wrap;html=1;fillColor=#e5dc7b;" vertex="1" parent="1">
          <mxGeometry x="605" y="1430" width="10" height="20" as="geometry" />
        </mxCell>
        <mxCell id="gDiiwQV4zZhBu72KXJR7-421" value="" style="rounded=0;whiteSpace=wrap;html=1;fillColor=#e5dc7b;" vertex="1" parent="1">
          <mxGeometry x="615" y="1430" width="10" height="20" as="geometry" />
        </mxCell>
        <mxCell id="gDiiwQV4zZhBu72KXJR7-422" value="" style="rounded=0;whiteSpace=wrap;html=1;fillColor=#e5dc7b;" vertex="1" parent="1">
          <mxGeometry x="625" y="1430" width="10" height="20" as="geometry" />
        </mxCell>
        <mxCell id="gDiiwQV4zZhBu72KXJR7-423" value="" style="rounded=0;whiteSpace=wrap;html=1;fillColor=#e5dc7b;" vertex="1" parent="1">
          <mxGeometry x="635" y="1430" width="10" height="20" as="geometry" />
        </mxCell>
        <mxCell id="gDiiwQV4zZhBu72KXJR7-424" value="" style="rounded=0;whiteSpace=wrap;html=1;fillColor=#e5dc7b;" vertex="1" parent="1">
          <mxGeometry x="645" y="1430" width="10" height="20" as="geometry" />
        </mxCell>
        <mxCell id="gDiiwQV4zZhBu72KXJR7-425" value="" style="rounded=0;whiteSpace=wrap;html=1;fillColor=#e5dc7b;" vertex="1" parent="1">
          <mxGeometry x="655" y="1430" width="10" height="20" as="geometry" />
        </mxCell>
        <mxCell id="gDiiwQV4zZhBu72KXJR7-426" value="" style="rounded=0;whiteSpace=wrap;html=1;fillColor=#e5dc7b;" vertex="1" parent="1">
          <mxGeometry x="665" y="1430" width="10" height="20" as="geometry" />
        </mxCell>
        <mxCell id="gDiiwQV4zZhBu72KXJR7-427" value="" style="rounded=0;whiteSpace=wrap;html=1;fillColor=#e5dc7b;" vertex="1" parent="1">
          <mxGeometry x="675" y="1430" width="10" height="20" as="geometry" />
        </mxCell>
        <mxCell id="gDiiwQV4zZhBu72KXJR7-428" value="" style="rounded=0;whiteSpace=wrap;html=1;fillColor=#e5dc7b;" vertex="1" parent="1">
          <mxGeometry x="685" y="1430" width="10" height="20" as="geometry" />
        </mxCell>
        <mxCell id="gDiiwQV4zZhBu72KXJR7-429" value="" style="rounded=0;whiteSpace=wrap;html=1;fillColor=#e5dc7b;" vertex="1" parent="1">
          <mxGeometry x="695" y="1430" width="10" height="20" as="geometry" />
        </mxCell>
        <mxCell id="gDiiwQV4zZhBu72KXJR7-430" value="" style="rounded=0;whiteSpace=wrap;html=1;fillColor=#e5dc7b;" vertex="1" parent="1">
          <mxGeometry x="705" y="1430" width="10" height="20" as="geometry" />
        </mxCell>
        <mxCell id="gDiiwQV4zZhBu72KXJR7-431" value="" style="rounded=0;whiteSpace=wrap;html=1;fillColor=#e5dc7b;" vertex="1" parent="1">
          <mxGeometry x="715" y="1430" width="10" height="20" as="geometry" />
        </mxCell>
        <mxCell id="gDiiwQV4zZhBu72KXJR7-432" value="" style="rounded=0;whiteSpace=wrap;html=1;fillColor=#e5dc7b;" vertex="1" parent="1">
          <mxGeometry x="725" y="1430" width="10" height="20" as="geometry" />
        </mxCell>
        <mxCell id="gDiiwQV4zZhBu72KXJR7-433" value="" style="rounded=0;whiteSpace=wrap;html=1;fillColor=#e5dc7b;" vertex="1" parent="1">
          <mxGeometry x="735" y="1430" width="10" height="20" as="geometry" />
        </mxCell>
        <mxCell id="gDiiwQV4zZhBu72KXJR7-434" value="" style="rounded=0;whiteSpace=wrap;html=1;fillColor=#e5dc7b;" vertex="1" parent="1">
          <mxGeometry x="745" y="1430" width="10" height="20" as="geometry" />
        </mxCell>
        <mxCell id="gDiiwQV4zZhBu72KXJR7-435" value="" style="rounded=0;whiteSpace=wrap;html=1;fillColor=#e5dc7b;" vertex="1" parent="1">
          <mxGeometry x="755" y="1430" width="10" height="20" as="geometry" />
        </mxCell>
        <mxCell id="gDiiwQV4zZhBu72KXJR7-436" value="" style="rounded=0;whiteSpace=wrap;html=1;fillColor=#e5dc7b;" vertex="1" parent="1">
          <mxGeometry x="765" y="1430" width="10" height="20" as="geometry" />
        </mxCell>
        <mxCell id="gDiiwQV4zZhBu72KXJR7-437" value="" style="rounded=0;whiteSpace=wrap;html=1;fillColor=#e5dc7b;" vertex="1" parent="1">
          <mxGeometry x="775" y="1430" width="10" height="20" as="geometry" />
        </mxCell>
        <mxCell id="gDiiwQV4zZhBu72KXJR7-438" value="" style="rounded=0;whiteSpace=wrap;html=1;fillColor=#e5dc7b;" vertex="1" parent="1">
          <mxGeometry x="785" y="1430" width="10" height="20" as="geometry" />
        </mxCell>
        <mxCell id="gDiiwQV4zZhBu72KXJR7-439" value="" style="rounded=0;whiteSpace=wrap;html=1;fillColor=#e5dc7b;" vertex="1" parent="1">
          <mxGeometry x="795" y="1430" width="10" height="20" as="geometry" />
        </mxCell>
        <mxCell id="gDiiwQV4zZhBu72KXJR7-440" value="" style="rounded=0;whiteSpace=wrap;html=1;fillColor=#e5dc7b;" vertex="1" parent="1">
          <mxGeometry x="805" y="1430" width="10" height="20" as="geometry" />
        </mxCell>
        <mxCell id="gDiiwQV4zZhBu72KXJR7-441" value="" style="rounded=0;whiteSpace=wrap;html=1;fillColor=#e5dc7b;" vertex="1" parent="1">
          <mxGeometry x="815" y="1430" width="10" height="20" as="geometry" />
        </mxCell>
        <mxCell id="gDiiwQV4zZhBu72KXJR7-442" value="" style="rounded=0;whiteSpace=wrap;html=1;fillColor=#e5dc7b;" vertex="1" parent="1">
          <mxGeometry x="825" y="1430" width="10" height="20" as="geometry" />
        </mxCell>
        <mxCell id="gDiiwQV4zZhBu72KXJR7-443" value="" style="rounded=0;whiteSpace=wrap;html=1;fillColor=#e5dc7b;" vertex="1" parent="1">
          <mxGeometry x="835" y="1430" width="10" height="20" as="geometry" />
        </mxCell>
        <mxCell id="gDiiwQV4zZhBu72KXJR7-444" value="" style="rounded=0;whiteSpace=wrap;html=1;fillColor=#e5dc7b;" vertex="1" parent="1">
          <mxGeometry x="845" y="1430" width="10" height="20" as="geometry" />
        </mxCell>
        <mxCell id="gDiiwQV4zZhBu72KXJR7-445" value="" style="rounded=0;whiteSpace=wrap;html=1;fillColor=#e5dc7b;" vertex="1" parent="1">
          <mxGeometry x="855" y="1430" width="10" height="20" as="geometry" />
        </mxCell>
        <mxCell id="gDiiwQV4zZhBu72KXJR7-446" value="" style="rounded=0;whiteSpace=wrap;html=1;fillColor=#e5dc7b;" vertex="1" parent="1">
          <mxGeometry x="865" y="1430" width="10" height="20" as="geometry" />
        </mxCell>
        <mxCell id="gDiiwQV4zZhBu72KXJR7-447" value="" style="rounded=0;whiteSpace=wrap;html=1;fillColor=#e5dc7b;" vertex="1" parent="1">
          <mxGeometry x="875" y="1430" width="10" height="20" as="geometry" />
        </mxCell>
        <mxCell id="gDiiwQV4zZhBu72KXJR7-448" value="" style="rounded=0;whiteSpace=wrap;html=1;fillColor=#e5dc7b;" vertex="1" parent="1">
          <mxGeometry x="885" y="1430" width="10" height="20" as="geometry" />
        </mxCell>
        <mxCell id="gDiiwQV4zZhBu72KXJR7-449" value="" style="rounded=0;whiteSpace=wrap;html=1;fillColor=#e5dc7b;" vertex="1" parent="1">
          <mxGeometry x="895" y="1430" width="10" height="20" as="geometry" />
        </mxCell>
        <mxCell id="gDiiwQV4zZhBu72KXJR7-450" value="" style="rounded=0;whiteSpace=wrap;html=1;fillColor=#e5dc7b;" vertex="1" parent="1">
          <mxGeometry x="905" y="1430" width="10" height="20" as="geometry" />
        </mxCell>
        <mxCell id="gDiiwQV4zZhBu72KXJR7-451" value="" style="rounded=0;whiteSpace=wrap;html=1;fillColor=#e5dc7b;" vertex="1" parent="1">
          <mxGeometry x="915" y="1430" width="10" height="20" as="geometry" />
        </mxCell>
        <mxCell id="gDiiwQV4zZhBu72KXJR7-452" value="" style="rounded=0;whiteSpace=wrap;html=1;fillColor=#e5dc7b;" vertex="1" parent="1">
          <mxGeometry x="925" y="1430" width="10" height="20" as="geometry" />
        </mxCell>
        <mxCell id="gDiiwQV4zZhBu72KXJR7-453" value="" style="rounded=0;whiteSpace=wrap;html=1;fillColor=#e5dc7b;" vertex="1" parent="1">
          <mxGeometry x="935" y="1430" width="10" height="20" as="geometry" />
        </mxCell>
        <mxCell id="gDiiwQV4zZhBu72KXJR7-454" value="" style="rounded=0;whiteSpace=wrap;html=1;fillColor=#e5dc7b;" vertex="1" parent="1">
          <mxGeometry x="945" y="1430" width="10" height="20" as="geometry" />
        </mxCell>
        <mxCell id="gDiiwQV4zZhBu72KXJR7-455" value="" style="rounded=0;whiteSpace=wrap;html=1;fillColor=#e5dc7b;" vertex="1" parent="1">
          <mxGeometry x="955" y="1430" width="10" height="20" as="geometry" />
        </mxCell>
        <mxCell id="gDiiwQV4zZhBu72KXJR7-456" value="" style="rounded=0;whiteSpace=wrap;html=1;fillColor=#e5dc7b;" vertex="1" parent="1">
          <mxGeometry x="965" y="1430" width="10" height="20" as="geometry" />
        </mxCell>
        <mxCell id="gDiiwQV4zZhBu72KXJR7-457" value="" style="rounded=0;whiteSpace=wrap;html=1;fillColor=#e5dc7b;" vertex="1" parent="1">
          <mxGeometry x="975" y="1430" width="10" height="20" as="geometry" />
        </mxCell>
        <mxCell id="gDiiwQV4zZhBu72KXJR7-458" value="" style="rounded=0;whiteSpace=wrap;html=1;fillColor=#e5dc7b;" vertex="1" parent="1">
          <mxGeometry x="985" y="1430" width="10" height="20" as="geometry" />
        </mxCell>
        <mxCell id="gDiiwQV4zZhBu72KXJR7-459" value="" style="shape=or;whiteSpace=wrap;html=1;direction=north;" vertex="1" parent="1">
          <mxGeometry x="535" y="1420" width="20" height="30" as="geometry" />
        </mxCell>
        <mxCell id="gDiiwQV4zZhBu72KXJR7-460" value="" style="rounded=0;whiteSpace=wrap;html=1;fillColor=#e5dc7b;" vertex="1" parent="1">
          <mxGeometry x="575" y="1430" width="10" height="20" as="geometry" />
        </mxCell>
        <mxCell id="gDiiwQV4zZhBu72KXJR7-461" value="" style="rounded=0;whiteSpace=wrap;html=1;fillColor=#e5dc7b;" vertex="1" parent="1">
          <mxGeometry x="585" y="1430" width="10" height="20" as="geometry" />
        </mxCell>
        <mxCell id="gDiiwQV4zZhBu72KXJR7-462" value="" style="rounded=0;whiteSpace=wrap;html=1;fillColor=#e5dc7b;" vertex="1" parent="1">
          <mxGeometry x="595" y="1430" width="10" height="20" as="geometry" />
        </mxCell>
        <mxCell id="gDiiwQV4zZhBu72KXJR7-463" value="" style="rounded=0;whiteSpace=wrap;html=1;fillColor=#e5dc7b;" vertex="1" parent="1">
          <mxGeometry x="435" y="1430" width="10" height="20" as="geometry" />
        </mxCell>
        <mxCell id="gDiiwQV4zZhBu72KXJR7-464" value="" style="rounded=0;whiteSpace=wrap;html=1;fillColor=#e5dc7b;" vertex="1" parent="1">
          <mxGeometry x="445" y="1430" width="10" height="20" as="geometry" />
        </mxCell>
        <mxCell id="gDiiwQV4zZhBu72KXJR7-465" value="&lt;font style=&quot;font-size: 14px;&quot; color=&quot;#ababab&quot;&gt;&lt;b&gt;RCD&lt;/b&gt;&lt;/font&gt;" style="rounded=0;whiteSpace=wrap;html=1;strokeColor=#454744;fillColor=#464646;direction=south;" vertex="1" parent="1">
          <mxGeometry x="485" y="1262" width="80" height="60" as="geometry" />
        </mxCell>
        <mxCell id="gDiiwQV4zZhBu72KXJR7-466" value="" style="rounded=0;whiteSpace=wrap;html=1;fillColor=#e5dc7b;" vertex="1" parent="1">
          <mxGeometry x="455" y="1430" width="10" height="20" as="geometry" />
        </mxCell>
        <mxCell id="gDiiwQV4zZhBu72KXJR7-467" value="" style="rounded=0;whiteSpace=wrap;html=1;fillColor=#e5dc7b;" vertex="1" parent="1">
          <mxGeometry x="465" y="1430" width="10" height="20" as="geometry" />
        </mxCell>
        <mxCell id="gDiiwQV4zZhBu72KXJR7-468" value="" style="rounded=0;whiteSpace=wrap;html=1;fillColor=#e5dc7b;" vertex="1" parent="1">
          <mxGeometry x="475" y="1430" width="10" height="20" as="geometry" />
        </mxCell>
        <mxCell id="gDiiwQV4zZhBu72KXJR7-469" value="" style="rounded=0;whiteSpace=wrap;html=1;fillColor=#e5dc7b;" vertex="1" parent="1">
          <mxGeometry x="485" y="1430" width="10" height="20" as="geometry" />
        </mxCell>
        <mxCell id="gDiiwQV4zZhBu72KXJR7-470" value="" style="rounded=0;whiteSpace=wrap;html=1;fillColor=#e5dc7b;" vertex="1" parent="1">
          <mxGeometry x="495" y="1430" width="10" height="20" as="geometry" />
        </mxCell>
        <mxCell id="gDiiwQV4zZhBu72KXJR7-471" value="" style="rounded=0;whiteSpace=wrap;html=1;fillColor=#e5dc7b;" vertex="1" parent="1">
          <mxGeometry x="505" y="1430" width="10" height="20" as="geometry" />
        </mxCell>
        <mxCell id="gDiiwQV4zZhBu72KXJR7-472" value="" style="rounded=0;whiteSpace=wrap;html=1;fillColor=#e5dc7b;" vertex="1" parent="1">
          <mxGeometry x="515" y="1430" width="10" height="20" as="geometry" />
        </mxCell>
        <mxCell id="gDiiwQV4zZhBu72KXJR7-473" value="&lt;font style=&quot;font-size: 14px;&quot; color=&quot;#ababab&quot;&gt;&lt;b&gt;MEMORY CONTROLLER&lt;/b&gt;&lt;/font&gt;" style="rounded=0;whiteSpace=wrap;html=1;strokeColor=#454744;fillColor=#464646;direction=south;" vertex="1" parent="1">
          <mxGeometry x="460" y="1560" width="130" height="100" as="geometry" />
        </mxCell>
        <mxCell id="gDiiwQV4zZhBu72KXJR7-474" value="" style="endArrow=classic;html=1;rounded=0;strokeWidth=2;fillColor=#ffe6cc;strokeColor=#d79b00;startArrow=classic;startFill=1;exitX=0.102;exitY=0.231;exitDx=0;exitDy=0;exitPerimeter=0;" edge="1" parent="1" source="gDiiwQV4zZhBu72KXJR7-543">
          <mxGeometry width="50" height="50" relative="1" as="geometry">
            <mxPoint x="70.42" y="1462" as="sourcePoint" />
            <mxPoint x="70" y="1382" as="targetPoint" />
          </mxGeometry>
        </mxCell>
        <mxCell id="gDiiwQV4zZhBu72KXJR7-475" value="&lt;font color=&quot;#ababab&quot; style=&quot;font-size: 14px;&quot;&gt;DQ&lt;/font&gt;&lt;div style=&quot;font-size: 14px;&quot;&gt;&lt;font color=&quot;#ababab&quot; style=&quot;font-size: 14px;&quot;&gt;x4&lt;/font&gt;&lt;/div&gt;" style="rounded=0;whiteSpace=wrap;html=1;strokeColor=#454744;fillColor=#464646;" vertex="1" parent="1">
          <mxGeometry x="65" y="1206" width="60" height="80" as="geometry" />
        </mxCell>
        <mxCell id="gDiiwQV4zZhBu72KXJR7-476" value="&lt;font style=&quot;font-size: 14px;&quot; color=&quot;#ababab&quot;&gt;DQ&lt;/font&gt;&lt;div style=&quot;font-size: 14px;&quot;&gt;&lt;font color=&quot;#ababab&quot;&gt;x4&lt;/font&gt;&lt;/div&gt;" style="rounded=0;whiteSpace=wrap;html=1;strokeColor=#454744;fillColor=#464646;" vertex="1" parent="1">
          <mxGeometry x="145" y="1206" width="60" height="80" as="geometry" />
        </mxCell>
        <mxCell id="gDiiwQV4zZhBu72KXJR7-477" value="&lt;font style=&quot;font-size: 14px;&quot; color=&quot;#ababab&quot;&gt;DQ&lt;/font&gt;&lt;div style=&quot;font-size: 14px;&quot;&gt;&lt;font color=&quot;#ababab&quot;&gt;x4&lt;/font&gt;&lt;/div&gt;" style="rounded=0;whiteSpace=wrap;html=1;strokeColor=#454744;fillColor=#464646;" vertex="1" parent="1">
          <mxGeometry x="225" y="1206" width="60" height="80" as="geometry" />
        </mxCell>
        <mxCell id="gDiiwQV4zZhBu72KXJR7-478" value="&lt;font style=&quot;font-size: 14px;&quot; color=&quot;#ababab&quot;&gt;DQ&lt;/font&gt;&lt;div style=&quot;font-size: 14px;&quot;&gt;&lt;font color=&quot;#ababab&quot;&gt;x4&lt;/font&gt;&lt;/div&gt;" style="rounded=0;whiteSpace=wrap;html=1;strokeColor=#454744;fillColor=#464646;" vertex="1" parent="1">
          <mxGeometry x="305" y="1206" width="60" height="80" as="geometry" />
        </mxCell>
        <mxCell id="gDiiwQV4zZhBu72KXJR7-479" value="&lt;font style=&quot;font-size: 14px;&quot; color=&quot;#ababab&quot;&gt;ECC&lt;/font&gt;&lt;div style=&quot;font-size: 14px;&quot;&gt;&lt;font color=&quot;#ababab&quot;&gt;x4&lt;/font&gt;&lt;/div&gt;" style="rounded=0;whiteSpace=wrap;html=1;strokeColor=#454744;fillColor=#464646;" vertex="1" parent="1">
          <mxGeometry x="385" y="1206" width="60" height="80" as="geometry" />
        </mxCell>
        <mxCell id="gDiiwQV4zZhBu72KXJR7-480" value="&lt;font style=&quot;font-size: 14px;&quot; color=&quot;#ababab&quot;&gt;ECC&lt;/font&gt;&lt;div style=&quot;font-size: 14px;&quot;&gt;&lt;font color=&quot;#ababab&quot;&gt;x4&lt;/font&gt;&lt;/div&gt;" style="rounded=0;whiteSpace=wrap;html=1;strokeColor=#454744;fillColor=#464646;" vertex="1" parent="1">
          <mxGeometry x="605" y="1206" width="60" height="80" as="geometry" />
        </mxCell>
        <mxCell id="gDiiwQV4zZhBu72KXJR7-481" value="&lt;font style=&quot;font-size: 14px;&quot; color=&quot;#ababab&quot;&gt;DQ&lt;/font&gt;&lt;div style=&quot;font-size: 14px;&quot;&gt;&lt;font color=&quot;#ababab&quot;&gt;x4&lt;/font&gt;&lt;/div&gt;" style="rounded=0;whiteSpace=wrap;html=1;strokeColor=#454744;fillColor=#464646;" vertex="1" parent="1">
          <mxGeometry x="685" y="1206" width="60" height="80" as="geometry" />
        </mxCell>
        <mxCell id="gDiiwQV4zZhBu72KXJR7-482" value="&lt;font style=&quot;font-size: 14px;&quot; color=&quot;#ababab&quot;&gt;DQ&lt;/font&gt;&lt;div style=&quot;font-size: 14px;&quot;&gt;&lt;font color=&quot;#ababab&quot;&gt;x4&lt;/font&gt;&lt;/div&gt;" style="rounded=0;whiteSpace=wrap;html=1;strokeColor=#454744;fillColor=#464646;" vertex="1" parent="1">
          <mxGeometry x="765" y="1206" width="60" height="80" as="geometry" />
        </mxCell>
        <mxCell id="gDiiwQV4zZhBu72KXJR7-483" value="&lt;font style=&quot;font-size: 14px;&quot; color=&quot;#ababab&quot;&gt;DQ&lt;/font&gt;&lt;div style=&quot;font-size: 14px;&quot;&gt;&lt;font color=&quot;#ababab&quot;&gt;x4&lt;/font&gt;&lt;/div&gt;" style="rounded=0;whiteSpace=wrap;html=1;strokeColor=#454744;fillColor=#464646;" vertex="1" parent="1">
          <mxGeometry x="845" y="1206" width="60" height="80" as="geometry" />
        </mxCell>
        <mxCell id="gDiiwQV4zZhBu72KXJR7-484" value="&lt;font style=&quot;font-size: 14px;&quot; color=&quot;#ababab&quot;&gt;DQ&lt;/font&gt;&lt;div style=&quot;font-size: 14px;&quot;&gt;&lt;font color=&quot;#ababab&quot;&gt;x4&lt;/font&gt;&lt;/div&gt;" style="rounded=0;whiteSpace=wrap;html=1;strokeColor=#454744;fillColor=#464646;" vertex="1" parent="1">
          <mxGeometry x="925" y="1206" width="60" height="80" as="geometry" />
        </mxCell>
        <mxCell id="gDiiwQV4zZhBu72KXJR7-485" value="" style="endArrow=classic;html=1;rounded=0;strokeWidth=2;fillColor=#dae8fc;strokeColor=#6c8ebf;startArrow=classic;startFill=1;exitX=0.344;exitY=0.072;exitDx=0;exitDy=0;exitPerimeter=0;" edge="1" parent="1" source="gDiiwQV4zZhBu72KXJR7-543">
          <mxGeometry width="50" height="50" relative="1" as="geometry">
            <mxPoint x="85.08" y="1492" as="sourcePoint" />
            <mxPoint x="84.66" y="1382" as="targetPoint" />
          </mxGeometry>
        </mxCell>
        <mxCell id="gDiiwQV4zZhBu72KXJR7-486" value="" style="endArrow=classic;html=1;rounded=0;strokeWidth=2;fillColor=#ffe6cc;strokeColor=#d79b00;startArrow=classic;startFill=1;exitX=0.597;exitY=-0.088;exitDx=0;exitDy=0;exitPerimeter=0;" edge="1" parent="1" source="gDiiwQV4zZhBu72KXJR7-543">
          <mxGeometry width="50" height="50" relative="1" as="geometry">
            <mxPoint x="100" y="1462" as="sourcePoint" />
            <mxPoint x="102" y="1286" as="targetPoint" />
          </mxGeometry>
        </mxCell>
        <mxCell id="gDiiwQV4zZhBu72KXJR7-487" value="" style="endArrow=classic;html=1;rounded=0;strokeWidth=2;fillColor=#dae8fc;strokeColor=#6c8ebf;startArrow=classic;startFill=1;exitX=0.838;exitY=-0.141;exitDx=0;exitDy=0;exitPerimeter=0;" edge="1" parent="1" source="gDiiwQV4zZhBu72KXJR7-543">
          <mxGeometry width="50" height="50" relative="1" as="geometry">
            <mxPoint x="117" y="1492" as="sourcePoint" />
            <mxPoint x="116.58" y="1286" as="targetPoint" />
          </mxGeometry>
        </mxCell>
        <mxCell id="gDiiwQV4zZhBu72KXJR7-488" value="&lt;font style=&quot;font-size: 14px;&quot; color=&quot;#ababab&quot;&gt;DQ&lt;/font&gt;&lt;div style=&quot;font-size: 14px;&quot;&gt;&lt;font color=&quot;#ababab&quot;&gt;x4&lt;/font&gt;&lt;/div&gt;" style="rounded=0;whiteSpace=wrap;html=1;strokeColor=#454744;fillColor=#464646;" vertex="1" parent="1">
          <mxGeometry x="65" y="1302" width="60" height="80" as="geometry" />
        </mxCell>
        <mxCell id="gDiiwQV4zZhBu72KXJR7-505" value="" style="endArrow=classic;html=1;rounded=0;strokeWidth=4;fillColor=#ffe6cc;strokeColor=#d79b00;startArrow=classic;startFill=1;" edge="1" parent="1">
          <mxGeometry width="50" height="50" relative="1" as="geometry">
            <mxPoint x="88" y="1490" as="sourcePoint" />
            <mxPoint x="88.16000000000008" y="1420" as="targetPoint" />
          </mxGeometry>
        </mxCell>
        <mxCell id="gDiiwQV4zZhBu72KXJR7-506" value="" style="endArrow=classic;html=1;rounded=0;strokeWidth=4;fillColor=#dae8fc;strokeColor=#6c8ebf;startArrow=classic;startFill=1;" edge="1" parent="1">
          <mxGeometry width="50" height="50" relative="1" as="geometry">
            <mxPoint x="109.42" y="1520" as="sourcePoint" />
            <mxPoint x="110.58000000000008" y="1420" as="targetPoint" />
          </mxGeometry>
        </mxCell>
        <mxCell id="gDiiwQV4zZhBu72KXJR7-534" value="" style="endArrow=classic;html=1;rounded=0;strokeWidth=4;fillColor=#ffe6cc;strokeColor=#d79b00;startArrow=classic;startFill=1;" edge="1" parent="1">
          <mxGeometry width="50" height="50" relative="1" as="geometry">
            <mxPoint x="55" y="1620" as="sourcePoint" />
            <mxPoint x="144.57999999999998" y="1620" as="targetPoint" />
          </mxGeometry>
        </mxCell>
        <mxCell id="gDiiwQV4zZhBu72KXJR7-535" value="" style="endArrow=classic;html=1;rounded=0;strokeWidth=4;fillColor=#dae8fc;strokeColor=#6c8ebf;startArrow=classic;startFill=1;" edge="1" parent="1">
          <mxGeometry width="50" height="50" relative="1" as="geometry">
            <mxPoint x="55" y="1660" as="sourcePoint" />
            <mxPoint x="144.57999999999998" y="1660" as="targetPoint" />
          </mxGeometry>
        </mxCell>
        <mxCell id="gDiiwQV4zZhBu72KXJR7-536" value="Data Strobe" style="text;html=1;align=center;verticalAlign=middle;whiteSpace=wrap;rounded=0;fontSize=14;fontStyle=1;fillColor=#ffe6cc;strokeColor=#d79b00;" vertex="1" parent="1">
          <mxGeometry x="145" y="1603" width="160" height="30" as="geometry" />
        </mxCell>
        <mxCell id="gDiiwQV4zZhBu72KXJR7-537" value="Data" style="text;html=1;align=center;verticalAlign=middle;whiteSpace=wrap;rounded=0;fontSize=14;fontStyle=1;fillColor=#dae8fc;strokeColor=#6c8ebf;" vertex="1" parent="1">
          <mxGeometry x="145" y="1643" width="160" height="30" as="geometry" />
        </mxCell>
        <mxCell id="gDiiwQV4zZhBu72KXJR7-538" value="" style="endArrow=classic;html=1;rounded=0;strokeWidth=4;fillColor=#ffe6cc;strokeColor=#d79b00;startArrow=classic;startFill=1;" edge="1" parent="1">
          <mxGeometry width="50" height="50" relative="1" as="geometry">
            <mxPoint x="500" y="1560" as="sourcePoint" />
            <mxPoint x="500" y="1490" as="targetPoint" />
          </mxGeometry>
        </mxCell>
        <mxCell id="gDiiwQV4zZhBu72KXJR7-539" value="" style="endArrow=classic;html=1;rounded=0;strokeWidth=4;fillColor=#dae8fc;strokeColor=#6c8ebf;startArrow=classic;startFill=1;" edge="1" parent="1">
          <mxGeometry width="50" height="50" relative="1" as="geometry">
            <mxPoint x="555" y="1560" as="sourcePoint" />
            <mxPoint x="555" y="1520" as="targetPoint" />
          </mxGeometry>
        </mxCell>
        <mxCell id="gDiiwQV4zZhBu72KXJR7-540" value="" style="endArrow=none;html=1;rounded=0;strokeWidth=3;fillColor=#ffe6cc;strokeColor=#d79b00;startArrow=none;startFill=0;endFill=0;" edge="1" parent="1">
          <mxGeometry width="50" height="50" relative="1" as="geometry">
            <mxPoint x="70.42" y="1490" as="sourcePoint" />
            <mxPoint x="960" y="1490" as="targetPoint" />
          </mxGeometry>
        </mxCell>
        <mxCell id="gDiiwQV4zZhBu72KXJR7-541" value="" style="endArrow=none;html=1;rounded=0;strokeWidth=3;fillColor=#dae8fc;strokeColor=#6c8ebf;startArrow=none;startFill=0;endFill=0;" edge="1" parent="1">
          <mxGeometry width="50" height="50" relative="1" as="geometry">
            <mxPoint x="85" y="1520" as="sourcePoint" />
            <mxPoint x="979.58" y="1520" as="targetPoint" />
          </mxGeometry>
        </mxCell>
        <mxCell id="gDiiwQV4zZhBu72KXJR7-543" value="&lt;div style=&quot;font-size: 14px;&quot;&gt;&lt;font color=&quot;#ababab&quot;&gt;DB&lt;/font&gt;&lt;/div&gt;" style="rounded=0;whiteSpace=wrap;html=1;strokeColor=#454744;fillColor=#464646;" vertex="1" parent="1">
          <mxGeometry x="65" y="1407" width="60" height="13" as="geometry" />
        </mxCell>
        <mxCell id="gDiiwQV4zZhBu72KXJR7-549" value="" style="endArrow=classic;html=1;rounded=0;strokeWidth=2;fillColor=#ffe6cc;strokeColor=#d79b00;startArrow=classic;startFill=1;exitX=0.102;exitY=0.231;exitDx=0;exitDy=0;exitPerimeter=0;" edge="1" parent="1" source="gDiiwQV4zZhBu72KXJR7-555">
          <mxGeometry width="50" height="50" relative="1" as="geometry">
            <mxPoint x="150.42000000000002" y="1462" as="sourcePoint" />
            <mxPoint x="150" y="1382" as="targetPoint" />
          </mxGeometry>
        </mxCell>
        <mxCell id="gDiiwQV4zZhBu72KXJR7-551" value="" style="endArrow=classic;html=1;rounded=0;strokeWidth=2;fillColor=#dae8fc;strokeColor=#6c8ebf;startArrow=classic;startFill=1;exitX=0.344;exitY=0.072;exitDx=0;exitDy=0;exitPerimeter=0;" edge="1" parent="1" source="gDiiwQV4zZhBu72KXJR7-555">
          <mxGeometry width="50" height="50" relative="1" as="geometry">
            <mxPoint x="165.07999999999998" y="1492" as="sourcePoint" />
            <mxPoint x="164.66" y="1382" as="targetPoint" />
          </mxGeometry>
        </mxCell>
        <mxCell id="gDiiwQV4zZhBu72KXJR7-552" value="" style="endArrow=classic;html=1;rounded=0;strokeWidth=2;fillColor=#ffe6cc;strokeColor=#d79b00;startArrow=classic;startFill=1;exitX=0.597;exitY=-0.088;exitDx=0;exitDy=0;exitPerimeter=0;" edge="1" parent="1" source="gDiiwQV4zZhBu72KXJR7-555">
          <mxGeometry width="50" height="50" relative="1" as="geometry">
            <mxPoint x="180" y="1462" as="sourcePoint" />
            <mxPoint x="182" y="1286" as="targetPoint" />
          </mxGeometry>
        </mxCell>
        <mxCell id="gDiiwQV4zZhBu72KXJR7-553" value="" style="endArrow=classic;html=1;rounded=0;strokeWidth=2;fillColor=#dae8fc;strokeColor=#6c8ebf;startArrow=classic;startFill=1;exitX=0.838;exitY=-0.141;exitDx=0;exitDy=0;exitPerimeter=0;" edge="1" parent="1" source="gDiiwQV4zZhBu72KXJR7-555">
          <mxGeometry width="50" height="50" relative="1" as="geometry">
            <mxPoint x="197" y="1492" as="sourcePoint" />
            <mxPoint x="196.57999999999998" y="1286" as="targetPoint" />
          </mxGeometry>
        </mxCell>
        <mxCell id="gDiiwQV4zZhBu72KXJR7-555" value="&lt;div style=&quot;font-size: 14px;&quot;&gt;&lt;font color=&quot;#ababab&quot;&gt;DB&lt;/font&gt;&lt;/div&gt;" style="rounded=0;whiteSpace=wrap;html=1;strokeColor=#454744;fillColor=#464646;" vertex="1" parent="1">
          <mxGeometry x="145" y="1407" width="60" height="13" as="geometry" />
        </mxCell>
        <mxCell id="gDiiwQV4zZhBu72KXJR7-525" value="&lt;font style=&quot;font-size: 14px;&quot; color=&quot;#ababab&quot;&gt;DQ&lt;/font&gt;&lt;div style=&quot;font-size: 14px;&quot;&gt;&lt;font color=&quot;#ababab&quot;&gt;x4&lt;/font&gt;&lt;/div&gt;" style="rounded=0;whiteSpace=wrap;html=1;strokeColor=#454744;fillColor=#464646;" vertex="1" parent="1">
          <mxGeometry x="145" y="1302" width="60" height="80" as="geometry" />
        </mxCell>
        <mxCell id="gDiiwQV4zZhBu72KXJR7-556" value="" style="endArrow=classic;html=1;rounded=0;strokeWidth=4;fillColor=#ffe6cc;strokeColor=#d79b00;startArrow=classic;startFill=1;" edge="1" parent="1">
          <mxGeometry width="50" height="50" relative="1" as="geometry">
            <mxPoint x="162.42000000000002" y="1490" as="sourcePoint" />
            <mxPoint x="162.5800000000001" y="1420" as="targetPoint" />
          </mxGeometry>
        </mxCell>
        <mxCell id="gDiiwQV4zZhBu72KXJR7-557" value="" style="endArrow=classic;html=1;rounded=0;strokeWidth=4;fillColor=#dae8fc;strokeColor=#6c8ebf;startArrow=classic;startFill=1;" edge="1" parent="1">
          <mxGeometry width="50" height="50" relative="1" as="geometry">
            <mxPoint x="183.84" y="1520" as="sourcePoint" />
            <mxPoint x="185.00000000000009" y="1420" as="targetPoint" />
          </mxGeometry>
        </mxCell>
        <mxCell id="gDiiwQV4zZhBu72KXJR7-558" value="" style="rounded=0;whiteSpace=wrap;html=1;fillColor=#e5dc7b;" vertex="1" parent="1">
          <mxGeometry x="225" y="1430" width="10" height="20" as="geometry" />
        </mxCell>
        <mxCell id="gDiiwQV4zZhBu72KXJR7-559" value="" style="rounded=0;whiteSpace=wrap;html=1;fillColor=#e5dc7b;" vertex="1" parent="1">
          <mxGeometry x="235" y="1430" width="10" height="20" as="geometry" />
        </mxCell>
        <mxCell id="gDiiwQV4zZhBu72KXJR7-560" value="" style="rounded=0;whiteSpace=wrap;html=1;fillColor=#e5dc7b;" vertex="1" parent="1">
          <mxGeometry x="245" y="1430" width="10" height="20" as="geometry" />
        </mxCell>
        <mxCell id="gDiiwQV4zZhBu72KXJR7-561" value="" style="rounded=0;whiteSpace=wrap;html=1;fillColor=#e5dc7b;" vertex="1" parent="1">
          <mxGeometry x="255" y="1430" width="10" height="20" as="geometry" />
        </mxCell>
        <mxCell id="gDiiwQV4zZhBu72KXJR7-562" value="" style="rounded=0;whiteSpace=wrap;html=1;fillColor=#e5dc7b;" vertex="1" parent="1">
          <mxGeometry x="265" y="1430" width="10" height="20" as="geometry" />
        </mxCell>
        <mxCell id="gDiiwQV4zZhBu72KXJR7-563" value="" style="rounded=0;whiteSpace=wrap;html=1;fillColor=#e5dc7b;" vertex="1" parent="1">
          <mxGeometry x="275" y="1430" width="10" height="20" as="geometry" />
        </mxCell>
        <mxCell id="gDiiwQV4zZhBu72KXJR7-565" value="" style="endArrow=classic;html=1;rounded=0;strokeWidth=2;fillColor=#ffe6cc;strokeColor=#d79b00;startArrow=classic;startFill=1;exitX=0.102;exitY=0.231;exitDx=0;exitDy=0;exitPerimeter=0;" edge="1" parent="1" source="gDiiwQV4zZhBu72KXJR7-569">
          <mxGeometry width="50" height="50" relative="1" as="geometry">
            <mxPoint x="230.42000000000002" y="1462" as="sourcePoint" />
            <mxPoint x="230" y="1382" as="targetPoint" />
          </mxGeometry>
        </mxCell>
        <mxCell id="gDiiwQV4zZhBu72KXJR7-566" value="" style="endArrow=classic;html=1;rounded=0;strokeWidth=2;fillColor=#dae8fc;strokeColor=#6c8ebf;startArrow=classic;startFill=1;exitX=0.344;exitY=0.072;exitDx=0;exitDy=0;exitPerimeter=0;" edge="1" parent="1" source="gDiiwQV4zZhBu72KXJR7-569">
          <mxGeometry width="50" height="50" relative="1" as="geometry">
            <mxPoint x="245.07999999999998" y="1492" as="sourcePoint" />
            <mxPoint x="244.66" y="1382" as="targetPoint" />
          </mxGeometry>
        </mxCell>
        <mxCell id="gDiiwQV4zZhBu72KXJR7-567" value="" style="endArrow=classic;html=1;rounded=0;strokeWidth=2;fillColor=#ffe6cc;strokeColor=#d79b00;startArrow=classic;startFill=1;exitX=0.597;exitY=-0.088;exitDx=0;exitDy=0;exitPerimeter=0;" edge="1" parent="1" source="gDiiwQV4zZhBu72KXJR7-569">
          <mxGeometry width="50" height="50" relative="1" as="geometry">
            <mxPoint x="260" y="1462" as="sourcePoint" />
            <mxPoint x="262" y="1286" as="targetPoint" />
          </mxGeometry>
        </mxCell>
        <mxCell id="gDiiwQV4zZhBu72KXJR7-568" value="" style="endArrow=classic;html=1;rounded=0;strokeWidth=2;fillColor=#dae8fc;strokeColor=#6c8ebf;startArrow=classic;startFill=1;exitX=0.838;exitY=-0.141;exitDx=0;exitDy=0;exitPerimeter=0;" edge="1" parent="1" source="gDiiwQV4zZhBu72KXJR7-569">
          <mxGeometry width="50" height="50" relative="1" as="geometry">
            <mxPoint x="277" y="1492" as="sourcePoint" />
            <mxPoint x="276.58" y="1286" as="targetPoint" />
          </mxGeometry>
        </mxCell>
        <mxCell id="gDiiwQV4zZhBu72KXJR7-569" value="&lt;div style=&quot;font-size: 14px;&quot;&gt;&lt;font color=&quot;#ababab&quot;&gt;DB&lt;/font&gt;&lt;/div&gt;" style="rounded=0;whiteSpace=wrap;html=1;strokeColor=#454744;fillColor=#464646;" vertex="1" parent="1">
          <mxGeometry x="225" y="1407" width="60" height="13" as="geometry" />
        </mxCell>
        <mxCell id="gDiiwQV4zZhBu72KXJR7-571" value="" style="endArrow=classic;html=1;rounded=0;strokeWidth=4;fillColor=#ffe6cc;strokeColor=#d79b00;startArrow=classic;startFill=1;" edge="1" parent="1">
          <mxGeometry width="50" height="50" relative="1" as="geometry">
            <mxPoint x="242.42000000000002" y="1490" as="sourcePoint" />
            <mxPoint x="242.5800000000001" y="1420" as="targetPoint" />
          </mxGeometry>
        </mxCell>
        <mxCell id="gDiiwQV4zZhBu72KXJR7-572" value="" style="endArrow=classic;html=1;rounded=0;strokeWidth=4;fillColor=#dae8fc;strokeColor=#6c8ebf;startArrow=classic;startFill=1;" edge="1" parent="1">
          <mxGeometry width="50" height="50" relative="1" as="geometry">
            <mxPoint x="263.84000000000003" y="1520" as="sourcePoint" />
            <mxPoint x="265.0000000000001" y="1420" as="targetPoint" />
          </mxGeometry>
        </mxCell>
        <mxCell id="gDiiwQV4zZhBu72KXJR7-573" value="" style="rounded=0;whiteSpace=wrap;html=1;fillColor=#e5dc7b;" vertex="1" parent="1">
          <mxGeometry x="305" y="1430" width="10" height="20" as="geometry" />
        </mxCell>
        <mxCell id="gDiiwQV4zZhBu72KXJR7-574" value="" style="rounded=0;whiteSpace=wrap;html=1;fillColor=#e5dc7b;" vertex="1" parent="1">
          <mxGeometry x="315" y="1430" width="10" height="20" as="geometry" />
        </mxCell>
        <mxCell id="gDiiwQV4zZhBu72KXJR7-575" value="" style="rounded=0;whiteSpace=wrap;html=1;fillColor=#e5dc7b;" vertex="1" parent="1">
          <mxGeometry x="325" y="1430" width="10" height="20" as="geometry" />
        </mxCell>
        <mxCell id="gDiiwQV4zZhBu72KXJR7-576" value="" style="rounded=0;whiteSpace=wrap;html=1;fillColor=#e5dc7b;" vertex="1" parent="1">
          <mxGeometry x="335" y="1430" width="10" height="20" as="geometry" />
        </mxCell>
        <mxCell id="gDiiwQV4zZhBu72KXJR7-577" value="" style="rounded=0;whiteSpace=wrap;html=1;fillColor=#e5dc7b;" vertex="1" parent="1">
          <mxGeometry x="345" y="1430" width="10" height="20" as="geometry" />
        </mxCell>
        <mxCell id="gDiiwQV4zZhBu72KXJR7-578" value="" style="rounded=0;whiteSpace=wrap;html=1;fillColor=#e5dc7b;" vertex="1" parent="1">
          <mxGeometry x="355" y="1430" width="10" height="20" as="geometry" />
        </mxCell>
        <mxCell id="gDiiwQV4zZhBu72KXJR7-580" value="" style="endArrow=classic;html=1;rounded=0;strokeWidth=2;fillColor=#ffe6cc;strokeColor=#d79b00;startArrow=classic;startFill=1;exitX=0.102;exitY=0.231;exitDx=0;exitDy=0;exitPerimeter=0;" edge="1" parent="1" source="gDiiwQV4zZhBu72KXJR7-584">
          <mxGeometry width="50" height="50" relative="1" as="geometry">
            <mxPoint x="310.42" y="1462" as="sourcePoint" />
            <mxPoint x="310" y="1382" as="targetPoint" />
          </mxGeometry>
        </mxCell>
        <mxCell id="gDiiwQV4zZhBu72KXJR7-581" value="" style="endArrow=classic;html=1;rounded=0;strokeWidth=2;fillColor=#dae8fc;strokeColor=#6c8ebf;startArrow=classic;startFill=1;exitX=0.344;exitY=0.072;exitDx=0;exitDy=0;exitPerimeter=0;" edge="1" parent="1" source="gDiiwQV4zZhBu72KXJR7-584">
          <mxGeometry width="50" height="50" relative="1" as="geometry">
            <mxPoint x="325.08" y="1492" as="sourcePoint" />
            <mxPoint x="324.65999999999997" y="1382" as="targetPoint" />
          </mxGeometry>
        </mxCell>
        <mxCell id="gDiiwQV4zZhBu72KXJR7-582" value="" style="endArrow=classic;html=1;rounded=0;strokeWidth=2;fillColor=#ffe6cc;strokeColor=#d79b00;startArrow=classic;startFill=1;exitX=0.597;exitY=-0.088;exitDx=0;exitDy=0;exitPerimeter=0;" edge="1" parent="1" source="gDiiwQV4zZhBu72KXJR7-584">
          <mxGeometry width="50" height="50" relative="1" as="geometry">
            <mxPoint x="340" y="1462" as="sourcePoint" />
            <mxPoint x="342" y="1286" as="targetPoint" />
          </mxGeometry>
        </mxCell>
        <mxCell id="gDiiwQV4zZhBu72KXJR7-583" value="" style="endArrow=classic;html=1;rounded=0;strokeWidth=2;fillColor=#dae8fc;strokeColor=#6c8ebf;startArrow=classic;startFill=1;exitX=0.838;exitY=-0.141;exitDx=0;exitDy=0;exitPerimeter=0;" edge="1" parent="1" source="gDiiwQV4zZhBu72KXJR7-584">
          <mxGeometry width="50" height="50" relative="1" as="geometry">
            <mxPoint x="357" y="1492" as="sourcePoint" />
            <mxPoint x="356.58" y="1286" as="targetPoint" />
          </mxGeometry>
        </mxCell>
        <mxCell id="gDiiwQV4zZhBu72KXJR7-584" value="&lt;div style=&quot;font-size: 14px;&quot;&gt;&lt;font color=&quot;#ababab&quot;&gt;DB&lt;/font&gt;&lt;/div&gt;" style="rounded=0;whiteSpace=wrap;html=1;strokeColor=#454744;fillColor=#464646;" vertex="1" parent="1">
          <mxGeometry x="305" y="1407" width="60" height="13" as="geometry" />
        </mxCell>
        <mxCell id="gDiiwQV4zZhBu72KXJR7-586" value="" style="endArrow=classic;html=1;rounded=0;strokeWidth=4;fillColor=#ffe6cc;strokeColor=#d79b00;startArrow=classic;startFill=1;" edge="1" parent="1">
          <mxGeometry width="50" height="50" relative="1" as="geometry">
            <mxPoint x="322.42" y="1490" as="sourcePoint" />
            <mxPoint x="322.5800000000001" y="1420" as="targetPoint" />
          </mxGeometry>
        </mxCell>
        <mxCell id="gDiiwQV4zZhBu72KXJR7-587" value="" style="endArrow=classic;html=1;rounded=0;strokeWidth=4;fillColor=#dae8fc;strokeColor=#6c8ebf;startArrow=classic;startFill=1;" edge="1" parent="1">
          <mxGeometry width="50" height="50" relative="1" as="geometry">
            <mxPoint x="343.84000000000003" y="1520" as="sourcePoint" />
            <mxPoint x="345.0000000000001" y="1420" as="targetPoint" />
          </mxGeometry>
        </mxCell>
        <mxCell id="gDiiwQV4zZhBu72KXJR7-526" value="&lt;font style=&quot;font-size: 14px;&quot; color=&quot;#ababab&quot;&gt;DQ&lt;/font&gt;&lt;div style=&quot;font-size: 14px;&quot;&gt;&lt;font color=&quot;#ababab&quot;&gt;x4&lt;/font&gt;&lt;/div&gt;" style="rounded=0;whiteSpace=wrap;html=1;strokeColor=#454744;fillColor=#464646;" vertex="1" parent="1">
          <mxGeometry x="225" y="1302" width="60" height="80" as="geometry" />
        </mxCell>
        <mxCell id="gDiiwQV4zZhBu72KXJR7-527" value="&lt;font style=&quot;font-size: 14px;&quot; color=&quot;#ababab&quot;&gt;DQ&lt;/font&gt;&lt;div style=&quot;font-size: 14px;&quot;&gt;&lt;font color=&quot;#ababab&quot;&gt;x4&lt;/font&gt;&lt;/div&gt;" style="rounded=0;whiteSpace=wrap;html=1;strokeColor=#454744;fillColor=#464646;" vertex="1" parent="1">
          <mxGeometry x="305" y="1302" width="60" height="80" as="geometry" />
        </mxCell>
        <mxCell id="gDiiwQV4zZhBu72KXJR7-678" value="" style="rounded=0;whiteSpace=wrap;html=1;fillColor=#e5dc7b;" vertex="1" parent="1">
          <mxGeometry x="385" y="1430" width="10" height="20" as="geometry" />
        </mxCell>
        <mxCell id="gDiiwQV4zZhBu72KXJR7-679" value="" style="rounded=0;whiteSpace=wrap;html=1;fillColor=#e5dc7b;" vertex="1" parent="1">
          <mxGeometry x="395" y="1430" width="10" height="20" as="geometry" />
        </mxCell>
        <mxCell id="gDiiwQV4zZhBu72KXJR7-680" value="" style="rounded=0;whiteSpace=wrap;html=1;fillColor=#e5dc7b;" vertex="1" parent="1">
          <mxGeometry x="405" y="1430" width="10" height="20" as="geometry" />
        </mxCell>
        <mxCell id="gDiiwQV4zZhBu72KXJR7-681" value="" style="rounded=0;whiteSpace=wrap;html=1;fillColor=#e5dc7b;" vertex="1" parent="1">
          <mxGeometry x="415" y="1430" width="10" height="20" as="geometry" />
        </mxCell>
        <mxCell id="gDiiwQV4zZhBu72KXJR7-682" value="" style="rounded=0;whiteSpace=wrap;html=1;fillColor=#e5dc7b;" vertex="1" parent="1">
          <mxGeometry x="425" y="1430" width="10" height="20" as="geometry" />
        </mxCell>
        <mxCell id="gDiiwQV4zZhBu72KXJR7-683" value="" style="rounded=0;whiteSpace=wrap;html=1;fillColor=#e5dc7b;" vertex="1" parent="1">
          <mxGeometry x="435" y="1430" width="10" height="20" as="geometry" />
        </mxCell>
        <mxCell id="gDiiwQV4zZhBu72KXJR7-685" value="" style="rounded=0;whiteSpace=wrap;html=1;fillColor=#e5dc7b;" vertex="1" parent="1">
          <mxGeometry x="385" y="1430" width="10" height="20" as="geometry" />
        </mxCell>
        <mxCell id="gDiiwQV4zZhBu72KXJR7-686" value="" style="rounded=0;whiteSpace=wrap;html=1;fillColor=#e5dc7b;" vertex="1" parent="1">
          <mxGeometry x="395" y="1430" width="10" height="20" as="geometry" />
        </mxCell>
        <mxCell id="gDiiwQV4zZhBu72KXJR7-687" value="" style="rounded=0;whiteSpace=wrap;html=1;fillColor=#e5dc7b;" vertex="1" parent="1">
          <mxGeometry x="405" y="1430" width="10" height="20" as="geometry" />
        </mxCell>
        <mxCell id="gDiiwQV4zZhBu72KXJR7-688" value="" style="rounded=0;whiteSpace=wrap;html=1;fillColor=#e5dc7b;" vertex="1" parent="1">
          <mxGeometry x="415" y="1430" width="10" height="20" as="geometry" />
        </mxCell>
        <mxCell id="gDiiwQV4zZhBu72KXJR7-689" value="" style="rounded=0;whiteSpace=wrap;html=1;fillColor=#e5dc7b;" vertex="1" parent="1">
          <mxGeometry x="425" y="1430" width="10" height="20" as="geometry" />
        </mxCell>
        <mxCell id="gDiiwQV4zZhBu72KXJR7-690" value="" style="rounded=0;whiteSpace=wrap;html=1;fillColor=#e5dc7b;" vertex="1" parent="1">
          <mxGeometry x="435" y="1430" width="10" height="20" as="geometry" />
        </mxCell>
        <mxCell id="gDiiwQV4zZhBu72KXJR7-692" value="" style="endArrow=classic;html=1;rounded=0;strokeWidth=2;fillColor=#ffe6cc;strokeColor=#d79b00;startArrow=classic;startFill=1;exitX=0.102;exitY=0.231;exitDx=0;exitDy=0;exitPerimeter=0;" edge="1" parent="1" source="gDiiwQV4zZhBu72KXJR7-696">
          <mxGeometry width="50" height="50" relative="1" as="geometry">
            <mxPoint x="390.42" y="1462" as="sourcePoint" />
            <mxPoint x="390" y="1382" as="targetPoint" />
          </mxGeometry>
        </mxCell>
        <mxCell id="gDiiwQV4zZhBu72KXJR7-693" value="" style="endArrow=classic;html=1;rounded=0;strokeWidth=2;fillColor=#dae8fc;strokeColor=#6c8ebf;startArrow=classic;startFill=1;exitX=0.344;exitY=0.072;exitDx=0;exitDy=0;exitPerimeter=0;" edge="1" parent="1" source="gDiiwQV4zZhBu72KXJR7-696">
          <mxGeometry width="50" height="50" relative="1" as="geometry">
            <mxPoint x="405.08" y="1492" as="sourcePoint" />
            <mxPoint x="404.65999999999997" y="1382" as="targetPoint" />
          </mxGeometry>
        </mxCell>
        <mxCell id="gDiiwQV4zZhBu72KXJR7-694" value="" style="endArrow=classic;html=1;rounded=0;strokeWidth=2;fillColor=#ffe6cc;strokeColor=#d79b00;startArrow=classic;startFill=1;exitX=0.597;exitY=-0.088;exitDx=0;exitDy=0;exitPerimeter=0;" edge="1" parent="1" source="gDiiwQV4zZhBu72KXJR7-696">
          <mxGeometry width="50" height="50" relative="1" as="geometry">
            <mxPoint x="420" y="1462" as="sourcePoint" />
            <mxPoint x="422" y="1286" as="targetPoint" />
          </mxGeometry>
        </mxCell>
        <mxCell id="gDiiwQV4zZhBu72KXJR7-695" value="" style="endArrow=classic;html=1;rounded=0;strokeWidth=2;fillColor=#dae8fc;strokeColor=#6c8ebf;startArrow=classic;startFill=1;exitX=0.838;exitY=-0.141;exitDx=0;exitDy=0;exitPerimeter=0;" edge="1" parent="1" source="gDiiwQV4zZhBu72KXJR7-696">
          <mxGeometry width="50" height="50" relative="1" as="geometry">
            <mxPoint x="437" y="1492" as="sourcePoint" />
            <mxPoint x="436.58" y="1286" as="targetPoint" />
          </mxGeometry>
        </mxCell>
        <mxCell id="gDiiwQV4zZhBu72KXJR7-696" value="&lt;div style=&quot;font-size: 14px;&quot;&gt;&lt;font color=&quot;#ababab&quot;&gt;DB&lt;/font&gt;&lt;/div&gt;" style="rounded=0;whiteSpace=wrap;html=1;strokeColor=#454744;fillColor=#464646;" vertex="1" parent="1">
          <mxGeometry x="385" y="1407" width="60" height="13" as="geometry" />
        </mxCell>
        <mxCell id="gDiiwQV4zZhBu72KXJR7-697" value="" style="endArrow=classic;html=1;rounded=0;strokeWidth=4;fillColor=#ffe6cc;strokeColor=#d79b00;startArrow=classic;startFill=1;" edge="1" parent="1">
          <mxGeometry width="50" height="50" relative="1" as="geometry">
            <mxPoint x="402.42" y="1490" as="sourcePoint" />
            <mxPoint x="402.5800000000001" y="1420" as="targetPoint" />
          </mxGeometry>
        </mxCell>
        <mxCell id="gDiiwQV4zZhBu72KXJR7-698" value="" style="endArrow=classic;html=1;rounded=0;strokeWidth=4;fillColor=#dae8fc;strokeColor=#6c8ebf;startArrow=classic;startFill=1;" edge="1" parent="1">
          <mxGeometry width="50" height="50" relative="1" as="geometry">
            <mxPoint x="423.84000000000003" y="1520" as="sourcePoint" />
            <mxPoint x="425.0000000000001" y="1420" as="targetPoint" />
          </mxGeometry>
        </mxCell>
        <mxCell id="gDiiwQV4zZhBu72KXJR7-745" value="" style="endArrow=classic;html=1;rounded=0;strokeWidth=2;fillColor=#ffe6cc;strokeColor=#d79b00;startArrow=classic;startFill=1;exitX=0.102;exitY=0.231;exitDx=0;exitDy=0;exitPerimeter=0;" edge="1" parent="1" source="gDiiwQV4zZhBu72KXJR7-749">
          <mxGeometry width="50" height="50" relative="1" as="geometry">
            <mxPoint x="610.4200000000001" y="1462" as="sourcePoint" />
            <mxPoint x="610" y="1382" as="targetPoint" />
          </mxGeometry>
        </mxCell>
        <mxCell id="gDiiwQV4zZhBu72KXJR7-746" value="" style="endArrow=classic;html=1;rounded=0;strokeWidth=2;fillColor=#dae8fc;strokeColor=#6c8ebf;startArrow=classic;startFill=1;exitX=0.344;exitY=0.072;exitDx=0;exitDy=0;exitPerimeter=0;" edge="1" parent="1" source="gDiiwQV4zZhBu72KXJR7-749">
          <mxGeometry width="50" height="50" relative="1" as="geometry">
            <mxPoint x="625.0799999999999" y="1492" as="sourcePoint" />
            <mxPoint x="624.66" y="1382" as="targetPoint" />
          </mxGeometry>
        </mxCell>
        <mxCell id="gDiiwQV4zZhBu72KXJR7-747" value="" style="endArrow=classic;html=1;rounded=0;strokeWidth=2;fillColor=#ffe6cc;strokeColor=#d79b00;startArrow=classic;startFill=1;exitX=0.597;exitY=-0.088;exitDx=0;exitDy=0;exitPerimeter=0;" edge="1" parent="1" source="gDiiwQV4zZhBu72KXJR7-749">
          <mxGeometry width="50" height="50" relative="1" as="geometry">
            <mxPoint x="640" y="1462" as="sourcePoint" />
            <mxPoint x="642" y="1286" as="targetPoint" />
          </mxGeometry>
        </mxCell>
        <mxCell id="gDiiwQV4zZhBu72KXJR7-748" value="" style="endArrow=classic;html=1;rounded=0;strokeWidth=2;fillColor=#dae8fc;strokeColor=#6c8ebf;startArrow=classic;startFill=1;exitX=0.838;exitY=-0.141;exitDx=0;exitDy=0;exitPerimeter=0;" edge="1" parent="1" source="gDiiwQV4zZhBu72KXJR7-749">
          <mxGeometry width="50" height="50" relative="1" as="geometry">
            <mxPoint x="657" y="1492" as="sourcePoint" />
            <mxPoint x="656.5799999999999" y="1286" as="targetPoint" />
          </mxGeometry>
        </mxCell>
        <mxCell id="gDiiwQV4zZhBu72KXJR7-749" value="&lt;div style=&quot;font-size: 14px;&quot;&gt;&lt;font color=&quot;#ababab&quot;&gt;DB&lt;/font&gt;&lt;/div&gt;" style="rounded=0;whiteSpace=wrap;html=1;strokeColor=#454744;fillColor=#464646;" vertex="1" parent="1">
          <mxGeometry x="605" y="1407" width="60" height="13" as="geometry" />
        </mxCell>
        <mxCell id="gDiiwQV4zZhBu72KXJR7-750" value="" style="endArrow=classic;html=1;rounded=0;strokeWidth=4;fillColor=#ffe6cc;strokeColor=#d79b00;startArrow=classic;startFill=1;" edge="1" parent="1">
          <mxGeometry width="50" height="50" relative="1" as="geometry">
            <mxPoint x="622.4200000000001" y="1490" as="sourcePoint" />
            <mxPoint x="622.5800000000002" y="1420" as="targetPoint" />
          </mxGeometry>
        </mxCell>
        <mxCell id="gDiiwQV4zZhBu72KXJR7-751" value="" style="endArrow=classic;html=1;rounded=0;strokeWidth=4;fillColor=#dae8fc;strokeColor=#6c8ebf;startArrow=classic;startFill=1;" edge="1" parent="1">
          <mxGeometry width="50" height="50" relative="1" as="geometry">
            <mxPoint x="643.84" y="1520" as="sourcePoint" />
            <mxPoint x="645.0000000000001" y="1420" as="targetPoint" />
          </mxGeometry>
        </mxCell>
        <mxCell id="gDiiwQV4zZhBu72KXJR7-754" value="" style="endArrow=classic;html=1;rounded=0;strokeWidth=2;fillColor=#ffe6cc;strokeColor=#d79b00;startArrow=classic;startFill=1;exitX=0.102;exitY=0.231;exitDx=0;exitDy=0;exitPerimeter=0;" edge="1" parent="1" source="gDiiwQV4zZhBu72KXJR7-758">
          <mxGeometry width="50" height="50" relative="1" as="geometry">
            <mxPoint x="690.4200000000001" y="1462" as="sourcePoint" />
            <mxPoint x="690" y="1382" as="targetPoint" />
          </mxGeometry>
        </mxCell>
        <mxCell id="gDiiwQV4zZhBu72KXJR7-755" value="" style="endArrow=classic;html=1;rounded=0;strokeWidth=2;fillColor=#dae8fc;strokeColor=#6c8ebf;startArrow=classic;startFill=1;exitX=0.344;exitY=0.072;exitDx=0;exitDy=0;exitPerimeter=0;" edge="1" parent="1" source="gDiiwQV4zZhBu72KXJR7-758">
          <mxGeometry width="50" height="50" relative="1" as="geometry">
            <mxPoint x="705.0799999999999" y="1492" as="sourcePoint" />
            <mxPoint x="704.66" y="1382" as="targetPoint" />
          </mxGeometry>
        </mxCell>
        <mxCell id="gDiiwQV4zZhBu72KXJR7-756" value="" style="endArrow=classic;html=1;rounded=0;strokeWidth=2;fillColor=#ffe6cc;strokeColor=#d79b00;startArrow=classic;startFill=1;exitX=0.597;exitY=-0.088;exitDx=0;exitDy=0;exitPerimeter=0;" edge="1" parent="1" source="gDiiwQV4zZhBu72KXJR7-758">
          <mxGeometry width="50" height="50" relative="1" as="geometry">
            <mxPoint x="720" y="1462" as="sourcePoint" />
            <mxPoint x="722" y="1286" as="targetPoint" />
          </mxGeometry>
        </mxCell>
        <mxCell id="gDiiwQV4zZhBu72KXJR7-757" value="" style="endArrow=classic;html=1;rounded=0;strokeWidth=2;fillColor=#dae8fc;strokeColor=#6c8ebf;startArrow=classic;startFill=1;exitX=0.838;exitY=-0.141;exitDx=0;exitDy=0;exitPerimeter=0;" edge="1" parent="1" source="gDiiwQV4zZhBu72KXJR7-758">
          <mxGeometry width="50" height="50" relative="1" as="geometry">
            <mxPoint x="737" y="1492" as="sourcePoint" />
            <mxPoint x="736.5799999999999" y="1286" as="targetPoint" />
          </mxGeometry>
        </mxCell>
        <mxCell id="gDiiwQV4zZhBu72KXJR7-758" value="&lt;div style=&quot;font-size: 14px;&quot;&gt;&lt;font color=&quot;#ababab&quot;&gt;DB&lt;/font&gt;&lt;/div&gt;" style="rounded=0;whiteSpace=wrap;html=1;strokeColor=#454744;fillColor=#464646;" vertex="1" parent="1">
          <mxGeometry x="685" y="1407" width="60" height="13" as="geometry" />
        </mxCell>
        <mxCell id="gDiiwQV4zZhBu72KXJR7-759" value="" style="endArrow=classic;html=1;rounded=0;strokeWidth=4;fillColor=#ffe6cc;strokeColor=#d79b00;startArrow=classic;startFill=1;" edge="1" parent="1">
          <mxGeometry width="50" height="50" relative="1" as="geometry">
            <mxPoint x="702.4200000000001" y="1490" as="sourcePoint" />
            <mxPoint x="702.5800000000002" y="1420" as="targetPoint" />
          </mxGeometry>
        </mxCell>
        <mxCell id="gDiiwQV4zZhBu72KXJR7-760" value="" style="endArrow=classic;html=1;rounded=0;strokeWidth=4;fillColor=#dae8fc;strokeColor=#6c8ebf;startArrow=classic;startFill=1;" edge="1" parent="1">
          <mxGeometry width="50" height="50" relative="1" as="geometry">
            <mxPoint x="723.84" y="1520" as="sourcePoint" />
            <mxPoint x="725.0000000000001" y="1420" as="targetPoint" />
          </mxGeometry>
        </mxCell>
        <mxCell id="gDiiwQV4zZhBu72KXJR7-763" value="" style="endArrow=classic;html=1;rounded=0;strokeWidth=2;fillColor=#ffe6cc;strokeColor=#d79b00;startArrow=classic;startFill=1;exitX=0.102;exitY=0.231;exitDx=0;exitDy=0;exitPerimeter=0;" edge="1" parent="1" source="gDiiwQV4zZhBu72KXJR7-767">
          <mxGeometry width="50" height="50" relative="1" as="geometry">
            <mxPoint x="770.4200000000001" y="1462" as="sourcePoint" />
            <mxPoint x="770" y="1382" as="targetPoint" />
          </mxGeometry>
        </mxCell>
        <mxCell id="gDiiwQV4zZhBu72KXJR7-764" value="" style="endArrow=classic;html=1;rounded=0;strokeWidth=2;fillColor=#dae8fc;strokeColor=#6c8ebf;startArrow=classic;startFill=1;exitX=0.344;exitY=0.072;exitDx=0;exitDy=0;exitPerimeter=0;" edge="1" parent="1" source="gDiiwQV4zZhBu72KXJR7-767">
          <mxGeometry width="50" height="50" relative="1" as="geometry">
            <mxPoint x="785.0799999999999" y="1492" as="sourcePoint" />
            <mxPoint x="784.66" y="1382" as="targetPoint" />
          </mxGeometry>
        </mxCell>
        <mxCell id="gDiiwQV4zZhBu72KXJR7-765" value="" style="endArrow=classic;html=1;rounded=0;strokeWidth=2;fillColor=#ffe6cc;strokeColor=#d79b00;startArrow=classic;startFill=1;exitX=0.597;exitY=-0.088;exitDx=0;exitDy=0;exitPerimeter=0;" edge="1" parent="1" source="gDiiwQV4zZhBu72KXJR7-767">
          <mxGeometry width="50" height="50" relative="1" as="geometry">
            <mxPoint x="800" y="1462" as="sourcePoint" />
            <mxPoint x="802" y="1286" as="targetPoint" />
          </mxGeometry>
        </mxCell>
        <mxCell id="gDiiwQV4zZhBu72KXJR7-766" value="" style="endArrow=classic;html=1;rounded=0;strokeWidth=2;fillColor=#dae8fc;strokeColor=#6c8ebf;startArrow=classic;startFill=1;exitX=0.838;exitY=-0.141;exitDx=0;exitDy=0;exitPerimeter=0;" edge="1" parent="1" source="gDiiwQV4zZhBu72KXJR7-767">
          <mxGeometry width="50" height="50" relative="1" as="geometry">
            <mxPoint x="817" y="1492" as="sourcePoint" />
            <mxPoint x="816.5799999999999" y="1286" as="targetPoint" />
          </mxGeometry>
        </mxCell>
        <mxCell id="gDiiwQV4zZhBu72KXJR7-767" value="&lt;div style=&quot;font-size: 14px;&quot;&gt;&lt;font color=&quot;#ababab&quot;&gt;DB&lt;/font&gt;&lt;/div&gt;" style="rounded=0;whiteSpace=wrap;html=1;strokeColor=#454744;fillColor=#464646;" vertex="1" parent="1">
          <mxGeometry x="765" y="1407" width="60" height="13" as="geometry" />
        </mxCell>
        <mxCell id="gDiiwQV4zZhBu72KXJR7-768" value="" style="endArrow=classic;html=1;rounded=0;strokeWidth=4;fillColor=#ffe6cc;strokeColor=#d79b00;startArrow=classic;startFill=1;" edge="1" parent="1">
          <mxGeometry width="50" height="50" relative="1" as="geometry">
            <mxPoint x="782.4200000000001" y="1490" as="sourcePoint" />
            <mxPoint x="782.5800000000002" y="1420" as="targetPoint" />
          </mxGeometry>
        </mxCell>
        <mxCell id="gDiiwQV4zZhBu72KXJR7-769" value="" style="endArrow=classic;html=1;rounded=0;strokeWidth=4;fillColor=#dae8fc;strokeColor=#6c8ebf;startArrow=classic;startFill=1;" edge="1" parent="1">
          <mxGeometry width="50" height="50" relative="1" as="geometry">
            <mxPoint x="803.84" y="1520" as="sourcePoint" />
            <mxPoint x="805.0000000000001" y="1420" as="targetPoint" />
          </mxGeometry>
        </mxCell>
        <mxCell id="gDiiwQV4zZhBu72KXJR7-772" value="" style="endArrow=classic;html=1;rounded=0;strokeWidth=2;fillColor=#ffe6cc;strokeColor=#d79b00;startArrow=classic;startFill=1;exitX=0.102;exitY=0.231;exitDx=0;exitDy=0;exitPerimeter=0;" edge="1" parent="1" source="gDiiwQV4zZhBu72KXJR7-776">
          <mxGeometry width="50" height="50" relative="1" as="geometry">
            <mxPoint x="850.4200000000001" y="1462" as="sourcePoint" />
            <mxPoint x="850" y="1382" as="targetPoint" />
          </mxGeometry>
        </mxCell>
        <mxCell id="gDiiwQV4zZhBu72KXJR7-773" value="" style="endArrow=classic;html=1;rounded=0;strokeWidth=2;fillColor=#dae8fc;strokeColor=#6c8ebf;startArrow=classic;startFill=1;exitX=0.344;exitY=0.072;exitDx=0;exitDy=0;exitPerimeter=0;" edge="1" parent="1" source="gDiiwQV4zZhBu72KXJR7-776">
          <mxGeometry width="50" height="50" relative="1" as="geometry">
            <mxPoint x="865.0799999999999" y="1492" as="sourcePoint" />
            <mxPoint x="864.66" y="1382" as="targetPoint" />
          </mxGeometry>
        </mxCell>
        <mxCell id="gDiiwQV4zZhBu72KXJR7-774" value="" style="endArrow=classic;html=1;rounded=0;strokeWidth=2;fillColor=#ffe6cc;strokeColor=#d79b00;startArrow=classic;startFill=1;exitX=0.597;exitY=-0.088;exitDx=0;exitDy=0;exitPerimeter=0;" edge="1" parent="1" source="gDiiwQV4zZhBu72KXJR7-776">
          <mxGeometry width="50" height="50" relative="1" as="geometry">
            <mxPoint x="880" y="1462" as="sourcePoint" />
            <mxPoint x="882" y="1286" as="targetPoint" />
          </mxGeometry>
        </mxCell>
        <mxCell id="gDiiwQV4zZhBu72KXJR7-775" value="" style="endArrow=classic;html=1;rounded=0;strokeWidth=2;fillColor=#dae8fc;strokeColor=#6c8ebf;startArrow=classic;startFill=1;exitX=0.838;exitY=-0.141;exitDx=0;exitDy=0;exitPerimeter=0;" edge="1" parent="1" source="gDiiwQV4zZhBu72KXJR7-776">
          <mxGeometry width="50" height="50" relative="1" as="geometry">
            <mxPoint x="897" y="1492" as="sourcePoint" />
            <mxPoint x="896.5799999999999" y="1286" as="targetPoint" />
          </mxGeometry>
        </mxCell>
        <mxCell id="gDiiwQV4zZhBu72KXJR7-776" value="&lt;div style=&quot;font-size: 14px;&quot;&gt;&lt;font color=&quot;#ababab&quot;&gt;DB&lt;/font&gt;&lt;/div&gt;" style="rounded=0;whiteSpace=wrap;html=1;strokeColor=#454744;fillColor=#464646;" vertex="1" parent="1">
          <mxGeometry x="845" y="1407" width="60" height="13" as="geometry" />
        </mxCell>
        <mxCell id="gDiiwQV4zZhBu72KXJR7-777" value="" style="endArrow=classic;html=1;rounded=0;strokeWidth=4;fillColor=#ffe6cc;strokeColor=#d79b00;startArrow=classic;startFill=1;" edge="1" parent="1">
          <mxGeometry width="50" height="50" relative="1" as="geometry">
            <mxPoint x="862.4200000000001" y="1490" as="sourcePoint" />
            <mxPoint x="862.5800000000002" y="1420" as="targetPoint" />
          </mxGeometry>
        </mxCell>
        <mxCell id="gDiiwQV4zZhBu72KXJR7-778" value="" style="endArrow=classic;html=1;rounded=0;strokeWidth=4;fillColor=#dae8fc;strokeColor=#6c8ebf;startArrow=classic;startFill=1;" edge="1" parent="1">
          <mxGeometry width="50" height="50" relative="1" as="geometry">
            <mxPoint x="883.84" y="1520" as="sourcePoint" />
            <mxPoint x="885.0000000000001" y="1420" as="targetPoint" />
          </mxGeometry>
        </mxCell>
        <mxCell id="gDiiwQV4zZhBu72KXJR7-781" value="" style="endArrow=classic;html=1;rounded=0;strokeWidth=2;fillColor=#ffe6cc;strokeColor=#d79b00;startArrow=classic;startFill=1;exitX=0.102;exitY=0.231;exitDx=0;exitDy=0;exitPerimeter=0;" edge="1" parent="1" source="gDiiwQV4zZhBu72KXJR7-785">
          <mxGeometry width="50" height="50" relative="1" as="geometry">
            <mxPoint x="930.4200000000001" y="1462" as="sourcePoint" />
            <mxPoint x="930" y="1382" as="targetPoint" />
          </mxGeometry>
        </mxCell>
        <mxCell id="gDiiwQV4zZhBu72KXJR7-782" value="" style="endArrow=classic;html=1;rounded=0;strokeWidth=2;fillColor=#dae8fc;strokeColor=#6c8ebf;startArrow=classic;startFill=1;exitX=0.344;exitY=0.072;exitDx=0;exitDy=0;exitPerimeter=0;" edge="1" parent="1" source="gDiiwQV4zZhBu72KXJR7-785">
          <mxGeometry width="50" height="50" relative="1" as="geometry">
            <mxPoint x="945.0799999999999" y="1492" as="sourcePoint" />
            <mxPoint x="944.66" y="1382" as="targetPoint" />
          </mxGeometry>
        </mxCell>
        <mxCell id="gDiiwQV4zZhBu72KXJR7-783" value="" style="endArrow=classic;html=1;rounded=0;strokeWidth=2;fillColor=#ffe6cc;strokeColor=#d79b00;startArrow=classic;startFill=1;exitX=0.597;exitY=-0.088;exitDx=0;exitDy=0;exitPerimeter=0;" edge="1" parent="1" source="gDiiwQV4zZhBu72KXJR7-785">
          <mxGeometry width="50" height="50" relative="1" as="geometry">
            <mxPoint x="960" y="1462" as="sourcePoint" />
            <mxPoint x="962" y="1286" as="targetPoint" />
          </mxGeometry>
        </mxCell>
        <mxCell id="gDiiwQV4zZhBu72KXJR7-784" value="" style="endArrow=classic;html=1;rounded=0;strokeWidth=2;fillColor=#dae8fc;strokeColor=#6c8ebf;startArrow=classic;startFill=1;exitX=0.838;exitY=-0.141;exitDx=0;exitDy=0;exitPerimeter=0;" edge="1" parent="1" source="gDiiwQV4zZhBu72KXJR7-785">
          <mxGeometry width="50" height="50" relative="1" as="geometry">
            <mxPoint x="977" y="1492" as="sourcePoint" />
            <mxPoint x="976.5799999999999" y="1286" as="targetPoint" />
          </mxGeometry>
        </mxCell>
        <mxCell id="gDiiwQV4zZhBu72KXJR7-785" value="&lt;div style=&quot;font-size: 14px;&quot;&gt;&lt;font color=&quot;#ababab&quot;&gt;DB&lt;/font&gt;&lt;/div&gt;" style="rounded=0;whiteSpace=wrap;html=1;strokeColor=#454744;fillColor=#464646;" vertex="1" parent="1">
          <mxGeometry x="925" y="1407" width="60" height="13" as="geometry" />
        </mxCell>
        <mxCell id="gDiiwQV4zZhBu72KXJR7-786" value="" style="endArrow=classic;html=1;rounded=0;strokeWidth=4;fillColor=#ffe6cc;strokeColor=#d79b00;startArrow=classic;startFill=1;" edge="1" parent="1">
          <mxGeometry width="50" height="50" relative="1" as="geometry">
            <mxPoint x="942.4200000000001" y="1490" as="sourcePoint" />
            <mxPoint x="942.5800000000002" y="1420" as="targetPoint" />
          </mxGeometry>
        </mxCell>
        <mxCell id="gDiiwQV4zZhBu72KXJR7-787" value="" style="endArrow=classic;html=1;rounded=0;strokeWidth=4;fillColor=#dae8fc;strokeColor=#6c8ebf;startArrow=classic;startFill=1;" edge="1" parent="1">
          <mxGeometry width="50" height="50" relative="1" as="geometry">
            <mxPoint x="963.84" y="1520" as="sourcePoint" />
            <mxPoint x="965.0000000000001" y="1420" as="targetPoint" />
          </mxGeometry>
        </mxCell>
        <mxCell id="gDiiwQV4zZhBu72KXJR7-528" value="&lt;font style=&quot;font-size: 14px;&quot; color=&quot;#ababab&quot;&gt;ECC&lt;/font&gt;&lt;div style=&quot;font-size: 14px;&quot;&gt;&lt;font color=&quot;#ababab&quot;&gt;x4&lt;/font&gt;&lt;/div&gt;" style="rounded=0;whiteSpace=wrap;html=1;strokeColor=#454744;fillColor=#464646;" vertex="1" parent="1">
          <mxGeometry x="385" y="1302" width="60" height="80" as="geometry" />
        </mxCell>
        <mxCell id="gDiiwQV4zZhBu72KXJR7-529" value="&lt;font style=&quot;font-size: 14px;&quot; color=&quot;#ababab&quot;&gt;ECC&lt;/font&gt;&lt;div style=&quot;font-size: 14px;&quot;&gt;&lt;font color=&quot;#ababab&quot;&gt;x4&lt;/font&gt;&lt;/div&gt;" style="rounded=0;whiteSpace=wrap;html=1;strokeColor=#454744;fillColor=#464646;" vertex="1" parent="1">
          <mxGeometry x="605" y="1302" width="60" height="80" as="geometry" />
        </mxCell>
        <mxCell id="gDiiwQV4zZhBu72KXJR7-530" value="&lt;font style=&quot;font-size: 14px;&quot; color=&quot;#ababab&quot;&gt;DQ&lt;/font&gt;&lt;div style=&quot;font-size: 14px;&quot;&gt;&lt;font color=&quot;#ababab&quot;&gt;x4&lt;/font&gt;&lt;/div&gt;" style="rounded=0;whiteSpace=wrap;html=1;strokeColor=#454744;fillColor=#464646;" vertex="1" parent="1">
          <mxGeometry x="685" y="1302" width="60" height="80" as="geometry" />
        </mxCell>
        <mxCell id="gDiiwQV4zZhBu72KXJR7-531" value="&lt;font style=&quot;font-size: 14px;&quot; color=&quot;#ababab&quot;&gt;DQ&lt;/font&gt;&lt;div style=&quot;font-size: 14px;&quot;&gt;&lt;font color=&quot;#ababab&quot;&gt;x4&lt;/font&gt;&lt;/div&gt;" style="rounded=0;whiteSpace=wrap;html=1;strokeColor=#454744;fillColor=#464646;" vertex="1" parent="1">
          <mxGeometry x="765" y="1302" width="60" height="80" as="geometry" />
        </mxCell>
        <mxCell id="gDiiwQV4zZhBu72KXJR7-532" value="&lt;font style=&quot;font-size: 14px;&quot; color=&quot;#ababab&quot;&gt;DQ&lt;/font&gt;&lt;div style=&quot;font-size: 14px;&quot;&gt;&lt;font color=&quot;#ababab&quot;&gt;x4&lt;/font&gt;&lt;/div&gt;" style="rounded=0;whiteSpace=wrap;html=1;strokeColor=#454744;fillColor=#464646;" vertex="1" parent="1">
          <mxGeometry x="845" y="1302" width="60" height="80" as="geometry" />
        </mxCell>
        <mxCell id="gDiiwQV4zZhBu72KXJR7-533" value="&lt;font style=&quot;font-size: 14px;&quot; color=&quot;#ababab&quot;&gt;DQ&lt;/font&gt;&lt;div style=&quot;font-size: 14px;&quot;&gt;&lt;font color=&quot;#ababab&quot;&gt;x4&lt;/font&gt;&lt;/div&gt;" style="rounded=0;whiteSpace=wrap;html=1;strokeColor=#454744;fillColor=#464646;" vertex="1" parent="1">
          <mxGeometry x="925" y="1302" width="60" height="80" as="geometry" />
        </mxCell>
        <mxCell id="gDiiwQV4zZhBu72KXJR7-790" value="" style="endArrow=classic;html=1;rounded=0;strokeWidth=4;fillColor=#ffe6cc;strokeColor=#d79b00;startArrow=classic;startFill=1;" edge="1" parent="1">
          <mxGeometry width="50" height="50" relative="1" as="geometry">
            <mxPoint x="610" y="1620" as="sourcePoint" />
            <mxPoint x="699.5799999999999" y="1620" as="targetPoint" />
          </mxGeometry>
        </mxCell>
        <mxCell id="gDiiwQV4zZhBu72KXJR7-791" value="" style="endArrow=classic;html=1;rounded=0;strokeWidth=4;fillColor=#dae8fc;strokeColor=#6c8ebf;startArrow=classic;startFill=1;" edge="1" parent="1">
          <mxGeometry width="50" height="50" relative="1" as="geometry">
            <mxPoint x="610" y="1660" as="sourcePoint" />
            <mxPoint x="699.5799999999999" y="1660" as="targetPoint" />
          </mxGeometry>
        </mxCell>
        <mxCell id="gDiiwQV4zZhBu72KXJR7-792" value="Data Strobe" style="text;html=1;align=center;verticalAlign=middle;whiteSpace=wrap;rounded=0;fontSize=14;fontStyle=1;fillColor=#ffe6cc;strokeColor=#d79b00;" vertex="1" parent="1">
          <mxGeometry x="700" y="1603" width="160" height="30" as="geometry" />
        </mxCell>
        <mxCell id="gDiiwQV4zZhBu72KXJR7-793" value="Data" style="text;html=1;align=center;verticalAlign=middle;whiteSpace=wrap;rounded=0;fontSize=14;fontStyle=1;fillColor=#dae8fc;strokeColor=#6c8ebf;" vertex="1" parent="1">
          <mxGeometry x="700" y="1643" width="160" height="30" as="geometry" />
        </mxCell>
        <mxCell id="gDiiwQV4zZhBu72KXJR7-794" value="Pre-RCD Signals" style="text;html=1;align=center;verticalAlign=middle;whiteSpace=wrap;rounded=0;fontSize=14;fontStyle=1" vertex="1" parent="1">
          <mxGeometry x="165" y="1550" width="130" height="30" as="geometry" />
        </mxCell>
        <mxCell id="gDiiwQV4zZhBu72KXJR7-795" value="Post-RCD Signals" style="text;html=1;align=center;verticalAlign=middle;whiteSpace=wrap;rounded=0;fontSize=14;fontStyle=1" vertex="1" parent="1">
          <mxGeometry x="735" y="1550" width="130" height="30" as="geometry" />
        </mxCell>
      </root>
    </mxGraphModel>
  </diagram>
</mxfile>
